<svg width="60" height="60" viewBox="0 0 60 60" fill="none" xmlns="http://www.w3.org/2000/svg">
<path d="M46.3033 12.7606C44.2936 10.7505 41.0214 10.7496 39.0102 12.7606C37.0005 14.7711 37.0005 18.0422 39.0102 20.0528C39.1016 20.1442 39.2217 20.1901 39.3414 20.1901C39.4614 20.1901 39.5813 20.1444 39.673 20.0526C39.8561 19.8696 39.8561 19.5729 39.673 19.3899C38.0286 17.7451 38.0286 15.0681 39.673 13.4234C41.3191 11.7782 43.9943 11.7782 45.6404 13.4234C45.8234 13.6065 46.1201 13.6065 46.3033 13.4234C46.4864 13.2402 46.4864 12.9437 46.3033 12.7606Z" fill="#252525"/>
<path d="M46.3025 12.7607C46.1193 12.5775 45.8226 12.5775 45.6396 12.7607L39.0095 19.39C38.8263 19.5731 38.8263 19.8696 39.0095 20.0528C39.1008 20.1442 39.2209 20.1901 39.3407 20.1901C39.4607 20.1901 39.5805 20.1444 39.6721 20.0528L46.3025 13.4235C46.4855 13.2403 46.4855 12.9437 46.3025 12.7607Z" fill="#252525"/>
<path d="M41.6622 14.7492L40.9993 14.0864C40.8163 13.9032 40.5197 13.9032 40.3366 14.0864C40.1534 14.2695 40.1534 14.5661 40.3366 14.7492L40.9993 15.4119C41.0909 15.5035 41.2108 15.5493 41.3307 15.5493C41.4508 15.5493 41.5706 15.5035 41.6622 15.4119C41.8453 15.229 41.8453 14.9324 41.6622 14.7492Z" fill="#252525"/>
<path d="M40.7803 15.9385H39.8427C39.5836 15.9385 39.374 16.1482 39.374 16.4073C39.374 16.6664 39.5836 16.8761 39.8427 16.8761H40.7803C41.0394 16.8761 41.249 16.6664 41.249 16.4073C41.249 16.1481 41.0394 15.9385 40.7803 15.9385Z" fill="#252525"/>
<path d="M42.6552 13.126C42.3961 13.126 42.1865 13.3357 42.1865 13.5948V14.5322C42.1865 14.7913 42.3961 15.0009 42.6552 15.0009C42.9143 15.0009 43.1239 14.7913 43.1239 14.5322V13.5948C43.1239 13.3356 42.9143 13.126 42.6552 13.126Z" fill="#252525"/>
<path d="M46.4063 17.8455C43.5628 17.8464 41.25 20.1595 41.25 23.0017C41.25 23.2608 41.4596 23.4705 41.7189 23.4705C41.978 23.4705 42.1876 23.2608 42.1876 23.0017C42.1876 20.6763 44.08 18.7839 46.4063 18.7829C48.7328 18.7829 50.6252 20.6758 50.6252 23.0027C50.6252 23.2618 50.8348 23.4715 51.0939 23.4715C51.353 23.4715 51.5625 23.2619 51.5625 23.0027C51.5625 20.1591 49.2491 17.8455 46.4063 17.8455Z" fill="#252525"/>
<path d="M51.0939 22.5339L41.7189 22.533C41.4596 22.533 41.25 22.7427 41.25 23.0018C41.25 23.2604 41.4596 23.4706 41.7189 23.4706L51.0939 23.4715C51.353 23.4715 51.5625 23.2619 51.5625 23.0027C51.5625 22.7441 51.353 22.5339 51.0939 22.5339Z" fill="#252525"/>
<path d="M46.4062 19.7212C46.1471 19.7212 45.9375 19.9309 45.9375 20.19V21.1265C45.9375 21.3856 46.1471 21.5953 46.4062 21.5953C46.6653 21.5953 46.8749 21.3857 46.8749 21.1265V20.19C46.8749 19.931 46.6653 19.7212 46.4062 19.7212Z" fill="#252525"/>
<path d="M45.4112 21.3445L44.7483 20.6817C44.5653 20.4987 44.2687 20.4987 44.0856 20.6817C43.9024 20.8648 43.9024 21.1615 44.0856 21.3445L44.7483 22.0074C44.8399 22.099 44.96 22.1448 45.0798 22.1448C45.1999 22.1448 45.3196 22.099 45.4112 22.0074C45.5943 21.8244 45.5943 21.5277 45.4112 21.3445Z" fill="#252525"/>
<path d="M48.7257 20.6817C48.5425 20.4987 48.2458 20.4987 48.0628 20.6817L47.4001 21.3445C47.2169 21.5277 47.2169 21.8244 47.4001 22.0074C47.4915 22.099 47.6116 22.1448 47.7313 22.1448C47.8513 22.1448 47.9712 22.099 48.0628 22.0074L48.7257 21.3445C48.9087 21.1616 48.9087 20.8649 48.7257 20.6817Z" fill="#252525"/>
<path d="M36.0938 17.8127C33.7684 17.8127 31.876 15.9203 31.8751 13.594C31.8751 11.2676 33.7684 9.37522 36.0947 9.37522C36.3538 9.37522 36.5636 9.16551 36.5636 8.90642C36.5636 8.64733 36.3538 8.43774 36.0947 8.43774C33.2512 8.43774 30.9375 10.7509 30.9375 13.594C30.9384 16.4372 33.252 18.7502 36.0938 18.7502C36.3529 18.7502 36.5627 18.5406 36.5627 18.2815C36.5627 18.0224 36.3529 17.8127 36.0938 17.8127Z" fill="#252525"/>
<path d="M36.0946 8.43774C35.8355 8.43774 35.6259 8.64733 35.6259 8.90642L35.625 18.2815C35.625 18.5401 35.8346 18.7503 36.0937 18.7503C36.3528 18.7503 36.5626 18.5406 36.5626 18.2815L36.5635 8.90642C36.5635 8.6478 36.3537 8.43774 36.0946 8.43774Z" fill="#252525"/>
<path d="M34.2188 13.125H33.2824C33.0233 13.125 32.8135 13.3347 32.8135 13.5938C32.8135 13.8529 33.0233 14.0625 33.2824 14.0625H34.2188C34.4779 14.0625 34.6877 13.8529 34.6877 13.5938C34.6877 13.3346 34.4779 13.125 34.2188 13.125Z" fill="#252525"/>
<path d="M35.0996 14.589C34.9167 14.4059 34.6199 14.4059 34.4367 14.589L33.774 15.2519C33.5909 15.435 33.5909 15.7316 33.774 15.9147C33.8656 16.0063 33.9855 16.052 34.1055 16.052C34.2252 16.052 34.3453 16.0063 34.4367 15.9147L35.0996 15.2519C35.2827 15.0688 35.2827 14.7722 35.0996 14.589Z" fill="#252525"/>
<path d="M35.0996 11.9376L34.4367 11.2749C34.2537 11.0917 33.9571 11.0917 33.774 11.2749C33.5909 11.4579 33.5909 11.7544 33.774 11.9376L34.4367 12.6004C34.5283 12.6919 34.6484 12.7378 34.7682 12.7378C34.8883 12.7378 35.008 12.692 35.0996 12.6004C35.2827 12.4173 35.2827 12.1207 35.0996 11.9376Z" fill="#252525"/>
<path d="M30.0001 0C13.4583 0 0 13.4579 0 30.0001C0 46.5417 13.4583 59.9999 30.0001 59.9999C46.5418 59.9999 60 46.5417 60 30.0001C60 13.4579 46.5418 0 30.0001 0ZM29.9999 59.0626C13.9746 59.0626 0.937473 46.0255 0.937473 30.0001C0.937473 13.9752 13.9747 0.93759 30.0001 0.93759C46.0255 0.93759 59.0624 13.9752 59.0624 30.0001C59.0624 46.0255 46.0254 59.0626 29.9999 59.0626Z" fill="#252525"/>
<path d="M30 4.6875C16.0427 4.6875 4.6875 16.0428 4.6875 30C4.6875 43.9572 16.0428 55.3124 30 55.3124C43.9571 55.3124 55.3123 43.9571 55.3123 30C55.3123 16.0428 43.9572 4.6875 30 4.6875ZM30 54.3748C16.5591 54.3748 5.62497 43.4398 5.62497 29.9998C5.62497 16.5595 16.5591 5.62486 30 5.62486C43.4408 5.62486 54.3749 16.5595 54.3751 29.9998C54.3751 43.44 43.4408 54.3748 30 54.3748Z" fill="#252525"/>
<path d="M47.956 26.5752C46.4464 25.065 44.3508 24.2671 41.8953 24.2671C38.0023 24.2671 33.649 26.2967 30.2489 29.697C24.5058 35.44 23.1049 43.3852 27.126 47.4052C28.6357 48.9148 30.7313 49.7131 33.1859 49.7131C37.0787 49.7131 41.433 47.6827 44.8332 44.2823C47.5928 41.5219 49.4475 38.1775 50.0537 34.866C50.6724 31.4905 49.9272 28.5458 47.956 26.5752ZM49.1316 34.6968C48.5584 37.8241 46.797 40.9919 44.1702 43.6195C40.9421 46.8477 36.8362 48.7758 33.1859 48.7758C30.985 48.7758 29.1192 48.0726 27.7889 46.7423C24.1341 43.0867 25.5349 35.7385 30.9117 30.3599C34.14 27.1317 38.246 25.2046 41.8953 25.2046C44.0963 25.2046 45.9631 25.9077 47.2932 27.238C49.04 28.9849 49.6928 31.6334 49.1316 34.6968Z" fill="#252525"/>
<path d="M50.0393 30.4933C49.9632 30.2464 49.7041 30.1074 49.4524 30.1842C49.2051 30.2606 49.0669 30.5234 49.1438 30.7707C51.2357 37.5222 49.2674 40.9828 44.0645 46.1867C40.763 49.488 34.0623 51.9133 29.7272 50.1189C27.3286 49.1255 26.0606 46.9282 26.0597 43.765C26.0597 43.5059 25.85 43.2963 25.5909 43.2963C25.3318 43.2963 25.1221 43.5059 25.1221 43.765C25.1239 48.2796 27.4319 50.1829 29.3683 50.9849C30.5146 51.4601 31.7936 51.6725 33.1256 51.6725C37.3087 51.6725 42.0081 49.5687 44.7272 46.8496C50.097 41.4811 52.2613 37.6633 50.0393 30.4933Z" fill="#252525"/>
<path d="M44.7917 37.031L38.1625 30.4017C37.9793 30.2186 37.6827 30.2186 37.4996 30.4017C37.3165 30.5848 37.3165 30.8814 37.4996 31.0645L44.129 37.6939C44.2204 37.7854 44.3405 37.8311 44.4602 37.8311C44.5802 37.8311 44.7003 37.7855 44.7917 37.6939C44.9748 37.5108 44.9748 37.2142 44.7917 37.031Z" fill="#252525"/>
<path d="M41.4774 40.3457L34.849 33.7172C34.6661 33.534 34.3693 33.534 34.1861 33.7172C34.0031 33.9003 34.0031 34.1968 34.1861 34.38L40.8147 41.0085C40.9063 41.1 41.0262 41.1458 41.1462 41.1458C41.266 41.1458 41.386 41.1001 41.4774 41.0085C41.6606 40.8254 41.6606 40.5288 41.4774 40.3457Z" fill="#252525"/>
<path d="M38.163 43.6606L31.5344 37.0314C31.3515 36.8483 31.0549 36.8483 30.8718 37.0314C30.6886 37.2144 30.6886 37.5111 30.8718 37.6943L37.5001 44.3234C37.5917 44.415 37.7116 44.4609 37.8316 44.4609C37.9514 44.4609 38.0714 44.415 38.163 44.3234C38.3461 44.1405 38.3461 43.844 38.163 43.6606Z" fill="#252525"/>
<path d="M27.0501 32.0124L21.4252 26.3873C21.2421 26.2042 20.9455 26.2042 20.7624 26.3873C20.5792 26.5704 20.5792 26.867 20.7624 27.0501L26.3874 32.6751C26.479 32.7667 26.5989 32.8125 26.7188 32.8125C26.8388 32.8125 26.9588 32.7668 27.0501 32.6751C27.2333 32.492 27.2333 32.1955 27.0501 32.0124Z" fill="#252525"/>
<path d="M21.5388 26.5706C21.4564 26.3253 21.1918 26.1925 20.9455 26.2745L18.1331 27.212C17.8878 27.2934 17.7551 27.5589 17.8365 27.8047C17.9025 28.0011 18.0856 28.1252 18.2814 28.1252C18.3309 28.1252 18.3803 28.1173 18.4298 28.101L21.2422 27.1634C21.4875 27.0819 21.6202 26.8165 21.5388 26.5706Z" fill="#252525"/>
<path d="M25.1751 33.8876L18.6126 27.3251C18.4295 27.142 18.1329 27.142 17.9498 27.3251C17.7667 27.5081 17.7667 27.8048 17.9498 27.9878L24.5123 34.5504C24.604 34.6419 24.7238 34.6877 24.8438 34.6877C24.9638 34.6877 25.0838 34.6419 25.1751 34.5504C25.3583 34.3672 25.3583 34.0707 25.1751 33.8876Z" fill="#252525"/>
<path d="M19.6381 30.2591C19.5218 30.0271 19.2416 29.9342 19.0091 30.0495L17.1341 30.9869C16.9023 31.1022 16.8091 31.3842 16.9244 31.6158C17.0067 31.7797 17.1725 31.8749 17.3437 31.8749C17.4142 31.8749 17.4856 31.8585 17.5533 31.8255L19.4284 30.8881C19.6601 30.7723 19.7534 30.4908 19.6381 30.2591Z" fill="#252525"/>
<path d="M24.21 36.633L17.6476 31.0492C17.4498 30.8827 17.1541 30.9046 16.9866 31.1024C16.8191 31.3002 16.8429 31.5949 17.0397 31.7634L23.6023 37.3473C23.691 37.4223 23.7981 37.4589 23.9061 37.4589C24.0389 37.4589 24.1707 37.4031 24.2632 37.294C24.4306 37.0972 24.407 36.8007 24.21 36.633Z" fill="#252525"/>
<path d="M24.1793 39.4629L17.6167 34.7755C17.4043 34.6254 17.1132 34.673 16.9622 34.8835C16.812 35.0941 16.8606 35.387 17.0711 35.5373L23.6337 40.2247C23.717 40.2842 23.8122 40.3126 23.9065 40.3126C24.052 40.3126 24.1967 40.2448 24.2883 40.1167C24.4384 39.906 24.3898 39.6129 24.1793 39.4629Z" fill="#252525"/>
<path d="M18.6127 33.8874C18.4296 33.7042 18.133 33.7042 17.9499 33.8874L17.0123 34.8249C16.8292 35.0079 16.8292 35.3045 17.0123 35.4877C17.1039 35.5792 17.2239 35.625 17.3438 35.625C17.4637 35.625 17.5836 35.5792 17.6752 35.4877L18.6127 34.5502C18.7958 34.3671 18.7958 34.0706 18.6127 33.8874Z" fill="#252525"/>
<path d="M24.1387 42.2498L18.109 38.8037L18.6125 38.3002C18.7956 38.1171 18.7956 37.8205 18.6125 37.6374C18.4295 37.4542 18.1328 37.4542 17.9497 37.6374L17.0122 38.5749C16.9087 38.6782 16.8593 38.8239 16.8794 38.9685C16.8986 39.1132 16.9839 39.2414 17.1112 39.3128L23.6736 43.0628C23.7469 43.1049 23.8265 43.125 23.9062 43.125C24.0681 43.125 24.2266 43.0409 24.3136 42.8888C24.4417 42.6636 24.3639 42.3779 24.1387 42.2498Z" fill="#252525"/>
<path d="M24.1157 45.0493L19.072 42.528L19.5499 42.0501C19.733 41.867 19.733 41.5705 19.5499 41.3873C19.3668 41.2042 19.0702 41.2042 18.8871 41.3873L17.9497 42.3248C17.8434 42.4309 17.794 42.5829 17.8188 42.7313C17.8425 42.8797 17.9369 43.0079 18.0714 43.0756L23.6964 45.888C23.7642 45.921 23.8356 45.9374 23.9061 45.9374C24.0772 45.9374 24.2431 45.8422 24.3253 45.6782C24.4407 45.4467 24.3473 45.1647 24.1157 45.0493Z" fill="#252525"/>
<path d="M19.2188 15.9375C16.8924 15.9375 15 17.8299 15 20.1563C15 22.4827 16.8924 24.3751 19.2188 24.3751C21.5452 24.3751 23.4376 22.4827 23.4376 20.1563C23.4376 17.8299 21.5452 15.9375 19.2188 15.9375ZM19.2188 23.4375C17.4097 23.4375 15.9375 21.9653 15.9375 20.1562C15.9375 18.3472 17.4098 16.875 19.2188 16.875C21.0278 16.875 22.5 18.3472 22.5001 20.1562C22.5001 21.9653 21.028 23.4375 19.2188 23.4375Z" fill="#252525"/>
<path d="M33.2814 20.6252C31.9887 20.6252 30.9375 21.6766 30.9375 22.9689C30.9375 24.2616 31.9887 25.3135 33.2814 25.3135C34.574 25.3135 35.625 24.2616 35.625 22.9689C35.625 21.6767 34.574 20.6252 33.2814 20.6252ZM33.2814 24.3761C32.506 24.3761 31.8751 23.7448 31.8751 22.9689C31.8751 22.1935 32.506 21.5627 33.2814 21.5627C34.0567 21.5627 34.6876 22.1934 34.6876 22.9689C34.6876 23.7448 34.0567 24.3761 33.2814 24.3761Z" fill="#252525"/>
<path d="M11.7187 17.8125C10.426 17.8125 9.375 18.864 9.375 20.1562C9.375 21.449 10.426 22.5009 11.7187 22.5009C13.0115 22.5009 14.0625 21.449 14.0625 20.1562C14.0625 18.864 13.0115 17.8125 11.7187 17.8125ZM11.7187 21.5636C10.9432 21.5636 10.3125 20.9323 10.3125 20.1564C10.3125 19.3809 10.9432 18.7501 11.7187 18.7501C12.4942 18.7501 13.125 19.3809 13.125 20.1564C13.125 20.9323 12.4942 21.5636 11.7187 21.5636Z" fill="#252525"/>
<path d="M26.6934 21.5627C24.8843 21.5627 23.4121 23.0349 23.4121 24.844C23.4121 26.653 24.8843 28.1252 26.6934 28.1252C28.5025 28.1252 29.9747 26.653 29.9747 24.844C29.9747 23.0349 28.5025 21.5627 26.6934 21.5627ZM26.6934 27.1877C25.4007 27.1877 24.3497 26.1362 24.3497 24.844C24.3497 23.5517 25.4007 22.5002 26.6934 22.5002C27.9862 22.5002 29.0372 23.5517 29.0372 24.844C29.0372 26.1362 27.9861 27.1877 26.6934 27.1877Z" fill="#252525"/>
<path d="M20.625 9.375C19.074 9.375 17.8125 10.6365 17.8125 12.1874C17.8125 13.7383 19.074 14.9998 20.625 14.9998C22.1759 14.9998 23.4375 13.7383 23.4375 12.1874C23.4375 10.6367 22.1759 9.375 20.625 9.375ZM20.625 14.0625C19.5913 14.0625 18.75 13.2217 18.75 12.1875C18.75 11.1535 19.5914 10.3126 20.625 10.3126C21.6586 10.3126 22.5 11.1534 22.5 12.1875C22.5 13.2215 21.6586 14.0625 20.625 14.0625Z" fill="#252525"/>
<path d="M27.1874 15.001C25.6365 15.001 24.375 16.2626 24.375 17.8135C24.375 19.3644 25.6365 20.626 27.1874 20.626C28.7384 20.626 29.9998 19.3644 29.9998 17.8135C29.9998 16.2626 28.7384 15.001 27.1874 15.001ZM27.1874 19.6883C26.1539 19.6883 25.3125 18.8475 25.3125 17.8134C25.3125 16.7793 26.1539 15.9383 27.1874 15.9383C28.2211 15.9383 29.0624 16.7793 29.0624 17.8134C29.0624 18.8475 28.2211 19.6883 27.1874 19.6883Z" fill="#252525"/>
<path d="M12.1875 23.4375C10.1193 23.4375 8.4375 25.1199 8.4375 27.1875C8.4375 29.2556 10.1193 30.9385 12.1875 30.9385C14.2557 30.9385 15.9375 29.2556 15.9375 27.1875C15.9375 25.1199 14.2557 23.4375 12.1875 23.4375ZM12.1875 30.0009C10.6366 30.0009 9.37509 28.739 9.37509 27.1875C9.37509 25.6366 10.6366 24.3751 12.1875 24.3751C13.7385 24.3751 15 25.6366 14.9999 27.1875C14.9999 28.7389 13.7384 30.0009 12.1875 30.0009Z" fill="#252525"/>
<path d="M17.3438 46.875C16.5684 46.875 15.9375 47.5058 15.9375 48.2812C15.9375 49.0566 16.5684 49.6874 17.3438 49.6874C18.1193 49.6874 18.75 49.0566 18.75 48.2812C18.75 47.5058 18.1192 46.875 17.3438 46.875ZM17.3438 48.7499C17.0855 48.7499 16.875 48.5393 16.875 48.2812C16.875 48.023 17.0856 47.8125 17.3438 47.8125C17.6019 47.8125 17.8126 48.023 17.8126 48.2812C17.8126 48.5394 17.602 48.7499 17.3438 48.7499Z" fill="#252525"/>
<path d="M14.5313 44.0625C13.7558 44.0625 13.125 44.6934 13.125 45.4688C13.125 46.2441 13.7558 46.875 14.5313 46.875C15.3067 46.875 15.9374 46.2441 15.9374 45.4688C15.9374 44.6935 15.3067 44.0625 14.5313 44.0625ZM14.5313 45.9376C14.273 45.9376 14.0625 45.727 14.0625 45.4689C14.0625 45.2107 14.273 45.0002 14.5313 45.0002C14.7894 45.0002 15 45.2107 15 45.4689C15 45.727 14.7894 45.9376 14.5313 45.9376Z" fill="#252525"/>
<path d="M11.7188 41.25C10.9433 41.25 10.3125 41.8808 10.3125 42.6563C10.3125 43.4316 10.9433 44.0624 11.7188 44.0624C12.4943 44.0624 13.125 43.4318 13.125 42.6563C13.125 41.8808 12.4943 41.25 11.7188 41.25ZM11.7188 43.1248C11.4605 43.1248 11.25 42.9143 11.25 42.6561C11.25 42.398 11.4606 42.1874 11.7188 42.1874C11.9769 42.1874 12.1876 42.398 12.1876 42.6561C12.1876 42.9143 11.977 43.1248 11.7188 43.1248Z" fill="#252525"/>
<path d="M10.7813 37.5C10.0058 37.5 9.375 38.1308 9.375 38.9061C9.375 39.6816 10.0058 40.3124 10.7813 40.3124C11.5567 40.3124 12.1874 39.6816 12.1875 38.9061C12.1875 38.1308 11.5568 37.5 10.7813 37.5ZM10.7813 39.3749C10.523 39.3749 10.3125 39.1643 10.3125 38.9061C10.3125 38.648 10.523 38.4375 10.7813 38.4375C11.0394 38.4375 11.2501 38.648 11.2501 38.9061C11.2501 39.1642 11.0394 39.3749 10.7813 39.3749Z" fill="#252525"/>
<path d="M14.5313 36.5212C13.7558 36.5212 13.125 37.1521 13.125 37.9275C13.125 38.7029 13.7558 39.3337 14.5313 39.3337C15.3067 39.3337 15.9374 38.7029 15.9374 37.9275C15.9374 37.1521 15.3067 36.5212 14.5313 36.5212ZM14.5313 38.3963C14.273 38.3963 14.0625 38.1867 14.0625 37.9276C14.0625 37.6685 14.273 37.4588 14.5313 37.4588C14.7894 37.4588 15 37.6685 15 37.9276C15 38.1867 14.7894 38.3963 14.5313 38.3963Z" fill="#252525"/>
<path d="M14.5313 31.875C13.7558 31.875 13.125 32.5059 13.125 33.2813C13.125 34.0567 13.7558 34.6875 14.5313 34.6875C15.3067 34.6875 15.9374 34.0567 15.9374 33.2813C15.9374 32.5059 15.3067 31.875 14.5313 31.875ZM14.5313 33.7497C14.273 33.7497 14.0625 33.5392 14.0625 33.281C14.0625 33.0229 14.273 32.8124 14.5313 32.8124C14.7894 32.8124 15 33.0229 15 33.281C15 33.5392 14.7894 33.7497 14.5313 33.7497Z" fill="#252525"/>
<path d="M7.96865 32.8125C7.19327 32.8125 6.5625 33.4433 6.5625 34.2186C6.5625 34.9941 7.19327 35.6249 7.96865 35.6249C8.74415 35.6249 9.37491 34.9941 9.37491 34.2186C9.37491 33.4433 8.74415 32.8125 7.96865 32.8125ZM7.96865 34.6874C7.7105 34.6874 7.49997 34.4768 7.49997 34.2186C7.49997 33.9605 7.7105 33.7499 7.96865 33.7499C8.2268 33.7499 8.43744 33.9605 8.43744 34.2186C8.43744 34.4769 8.2268 34.6874 7.96865 34.6874Z" fill="#252525"/>
<path d="M11.7188 33.75C10.9433 33.75 10.3125 34.3809 10.3125 35.1563C10.3125 35.9317 10.9433 36.5625 11.7188 36.5625C12.4943 36.5625 13.125 35.9317 13.125 35.1563C13.125 34.3808 12.4943 33.75 11.7188 33.75ZM11.7188 35.6251C11.4605 35.6251 11.25 35.4144 11.25 35.1563C11.25 34.8981 11.4606 34.6876 11.7188 34.6876C11.9769 34.6876 12.1876 34.8981 12.1876 35.1563C12.1876 35.4144 11.977 35.6251 11.7188 35.6251Z" fill="#252525"/>
<path d="M15.4688 40.3125C14.6933 40.3125 14.0625 40.9434 14.0625 41.7188C14.0625 42.4941 14.6933 43.1249 15.4688 43.1249C16.2442 43.1249 16.875 42.4941 16.875 41.7188C16.875 40.9435 16.2442 40.3125 15.4688 40.3125ZM15.4688 42.1874C15.2106 42.1874 15 41.9769 15 41.7188C15 41.4606 15.2106 41.25 15.4688 41.25C15.7269 41.25 15.9374 41.4606 15.9374 41.7188C15.9374 41.9769 15.7269 42.1874 15.4688 42.1874Z" fill="#252525"/>
</svg>
