<svg width="61" height="61" viewBox="0 0 61 61" fill="none" xmlns="http://www.w3.org/2000/svg">
<g clip-path="url(#clip0)">
<path d="M33.8641 57.1875H33.8548C33.5923 57.1875 33.3838 57.4007 33.3838 57.6641C33.3838 57.9275 33.6015 58.1407 33.8641 58.1407C34.1283 58.1407 34.3406 57.9275 34.3406 57.6641C34.3406 57.4007 34.1283 57.1875 33.8641 57.1875Z" fill="#252525"/>
<path d="M58.1405 6.19531C57.8771 6.19531 57.6641 6.40838 57.6641 6.6718C57.6641 6.93521 57.8771 7.1484 58.1405 7.1484C59.1923 7.1484 60.0468 8.00331 60.0468 9.0547C60.0468 10.1061 59.1923 10.961 58.1405 10.961C57.8771 10.961 57.6641 11.1742 57.6641 11.4376C57.6641 11.701 57.8771 11.9141 58.1405 11.9141C59.7173 11.9141 60.9999 10.6315 60.9999 9.0547C60.9999 7.47791 59.7173 6.19531 58.1405 6.19531Z" fill="#252525"/>
<path d="M60.5234 8.57812C60.2599 8.57812 60.0469 8.79131 60.0469 9.05473V47.1799C60.0469 47.4433 60.2599 47.6565 60.5234 47.6565C60.7868 47.6565 60.9998 47.4432 60.9998 47.1798V9.05473C60.9998 8.79131 60.7868 8.57812 60.5234 8.57812Z" fill="#252525"/>
<path d="M58.1406 10.9609H54.8047C54.5412 10.9609 54.3281 11.1741 54.3281 11.4375C54.3281 11.701 54.5412 11.914 54.8047 11.914H58.1406C58.404 11.914 58.6172 11.701 58.6172 11.4375C58.6172 11.1741 58.404 10.9609 58.1406 10.9609Z" fill="#252525"/>
<path d="M58.1407 6.19531H2.85942C2.596 6.19531 2.38281 6.40838 2.38281 6.6718C2.38281 6.93521 2.596 7.1484 2.85942 7.1484H58.1407C58.4041 7.1484 58.6173 6.93521 58.6173 6.6718C58.6173 6.40838 58.4041 6.19531 58.1407 6.19531Z" fill="#252525"/>
<path d="M58.1406 49.0859H54.8047C54.5412 49.0859 54.3281 49.2991 54.3281 49.5625C54.3281 49.826 54.5412 50.039 54.8047 50.039H58.1406C58.404 50.039 58.6172 49.826 58.6172 49.5625C58.6172 49.2991 58.404 49.0859 58.1406 49.0859Z" fill="#252525"/>
<path d="M52.8986 44.3206H2.85942C2.596 44.3206 2.38281 44.5337 2.38281 44.797C2.38281 45.0606 2.596 45.2737 2.85942 45.2737H52.8986C53.1619 45.2737 53.3751 45.0606 53.3751 44.797C53.3751 44.5337 53.1619 44.3206 52.8986 44.3206Z" fill="#252525"/>
<path d="M60.5233 46.7031C60.2599 46.7031 60.0468 46.9162 60.0468 47.1796C60.0468 48.2315 59.1923 49.0859 58.1405 49.0859C57.8771 49.0859 57.6641 49.2991 57.6641 49.5625C57.6641 49.8259 57.8771 50.039 58.1405 50.039C59.7173 50.039 60.9999 48.7564 60.9998 47.1796C60.9998 46.9162 60.7867 46.7031 60.5233 46.7031Z" fill="#252525"/>
<path d="M2.85938 44.3204C1.80799 44.3204 0.953088 43.4659 0.953088 42.4141C0.953088 42.1507 0.739899 41.9375 0.476484 41.9375C0.21307 41.9375 0 42.1507 0 42.4141C0 43.9909 1.28259 45.2735 2.85938 45.2735C3.1228 45.2735 3.33587 45.0604 3.33599 44.7969C3.33599 44.5336 3.1228 44.3204 2.85938 44.3204Z" fill="#252525"/>
<path d="M54.8047 10.9609C54.5412 10.9609 54.3281 11.1741 54.3281 11.4375V49.5626C54.3281 49.826 54.5412 50.0391 54.8047 50.0391C55.068 50.0391 55.2812 49.826 55.2812 49.5626V11.4375C55.2812 11.1741 55.068 10.9609 54.8047 10.9609Z" fill="#252525"/>
<path d="M2.85938 6.19536C1.80799 6.19536 0.953088 5.34034 0.953088 4.28907C0.953088 3.2378 1.80811 2.38278 2.85938 2.38278C3.1228 2.38278 3.33599 2.16971 3.33599 1.90629C3.33599 1.64288 3.1228 1.42969 2.85938 1.42969C1.28259 1.42969 0 2.7124 0 4.28919C0 5.86598 1.28259 7.14857 2.85938 7.14857C3.1228 7.14857 3.33599 6.93526 3.33599 6.67185C3.33599 6.40843 3.1228 6.19536 2.85938 6.19536Z" fill="#252525"/>
<path d="M6.1954 1.42969H2.85942C2.596 1.42969 2.38281 1.64288 2.38281 1.90629C2.38281 2.16971 2.596 2.38278 2.85942 2.38278H6.19529C6.4587 2.38278 6.67189 2.16971 6.67189 1.90629C6.67189 1.64288 6.45882 1.42969 6.1954 1.42969Z" fill="#252525"/>
<path d="M6.19535 1.42969C5.93194 1.42969 5.71875 1.64288 5.71875 1.90629V4.76567C5.71875 5.02909 5.93194 5.24228 6.19535 5.24228C6.45877 5.24228 6.67195 5.02909 6.67184 4.76567V1.90629C6.67184 1.64288 6.45877 1.42969 6.19535 1.42969Z" fill="#252525"/>
<path d="M0.476484 3.8125C0.21307 3.8125 0 4.02569 0 4.2891V42.4142C0 42.6776 0.21307 42.8907 0.476484 42.8907C0.739899 42.8907 0.953088 42.6776 0.953088 42.4142V4.2891C0.953088 4.02569 0.739899 3.8125 0.476484 3.8125Z" fill="#252525"/>
<path d="M10.961 12.8672C10.6976 12.8672 10.4844 13.0804 10.4844 13.3438V18.1093C10.4844 18.3728 10.6976 18.586 10.961 18.586C11.2244 18.586 11.4375 18.3728 11.4376 18.1093V13.3438C11.4376 13.0804 11.2244 12.8672 10.961 12.8672Z" fill="#252525"/>
<path d="M10.961 20.4922C10.6976 20.4922 10.4844 20.7053 10.4844 20.9687V24.7813C10.4844 25.0447 10.6976 25.2577 10.961 25.2577C11.2244 25.2577 11.4375 25.0446 11.4376 24.7813V20.9687C11.4376 20.7053 11.2244 20.4922 10.961 20.4922Z" fill="#252525"/>
<path d="M8.1016 24.3047C7.83819 24.3047 7.625 24.5179 7.625 24.7813V29.5468C7.625 29.8103 7.83819 30.0234 8.1016 30.0234C8.36502 30.0234 8.57809 29.8103 8.57809 29.5468V24.7813C8.57809 24.5179 8.36502 24.3047 8.1016 24.3047Z" fill="#252525"/>
<path d="M8.1016 31.9297C7.83819 31.9297 7.625 32.1429 7.625 32.4062V36.2188C7.625 36.4822 7.83819 36.6952 8.1016 36.6952C8.36502 36.6952 8.57809 36.4822 8.57809 36.2188V32.4062C8.57809 32.1429 8.36502 31.9297 8.1016 31.9297Z" fill="#252525"/>
<path d="M19.539 12.8672H11.0204C10.757 12.8672 10.5439 13.0804 10.5439 13.3438C10.5439 13.6072 10.757 13.8203 11.0204 13.8203H19.539C19.8025 13.8203 20.0155 13.6072 20.0155 13.3438C20.0155 13.0804 19.8025 12.8672 19.539 12.8672Z" fill="#252525"/>
<path d="M23.3516 24.3047H8.1016C7.83819 24.3047 7.625 24.5179 7.625 24.7813C7.625 25.0447 7.83819 25.2578 8.1016 25.2578H23.3516C23.615 25.2578 23.8282 25.0447 23.8282 24.7813C23.8282 24.5179 23.615 24.3047 23.3516 24.3047Z" fill="#252525"/>
<path d="M22.3985 35.7422H8.1016C7.83819 35.7422 7.625 35.9554 7.625 36.2188C7.625 36.4822 7.83819 36.6953 8.1016 36.6953H22.3985C22.6619 36.6953 22.8751 36.4822 22.8751 36.2188C22.8751 35.9554 22.6619 35.7422 22.3985 35.7422Z" fill="#252525"/>
<path d="M22.3985 23.3516C22.1351 23.3516 21.9219 23.5648 21.9219 23.8282V24.7803C21.9219 25.0437 22.1351 25.2568 22.3985 25.2568C22.6619 25.2568 22.875 25.0437 22.8751 24.7803V23.8282C22.8751 23.5648 22.6619 23.3516 22.3985 23.3516Z" fill="#252525"/>
<path d="M35.7421 23.3516C35.4787 23.3516 35.2656 23.5648 35.2656 23.8282V24.7803C35.2656 25.0437 35.4787 25.2568 35.7421 25.2568C36.0055 25.2568 36.2187 25.0437 36.2186 24.7803V23.8282C36.2186 23.5648 36.0055 23.3516 35.7421 23.3516Z" fill="#252525"/>
<path d="M22.3985 12.8672C22.1351 12.8672 21.9219 13.0804 21.9219 13.3438V20.9687C21.9219 21.2321 22.1351 21.4453 22.3985 21.4453C22.6619 21.4453 22.875 21.232 22.8751 20.9687V13.3438C22.8751 13.0804 22.6619 12.8672 22.3985 12.8672Z" fill="#252525"/>
<path d="M29.0704 12.8672C28.8069 12.8672 28.5938 13.0804 28.5938 13.3438V20.9687C28.5938 21.2321 28.8069 21.4453 29.0704 21.4453C29.3338 21.4453 29.547 21.232 29.547 20.9687V13.3438C29.547 13.0804 29.3338 12.8672 29.0704 12.8672Z" fill="#252525"/>
<path d="M30.9766 20.4922H27.164C26.9006 20.4922 26.6875 20.7053 26.6875 20.9687C26.6875 21.2321 26.9006 21.4453 27.164 21.4453H30.9766C31.24 21.4453 31.4531 21.2321 31.4531 20.9687C31.4531 20.7053 31.24 20.4922 30.9766 20.4922Z" fill="#252525"/>
<path d="M24.3048 20.4922H22.3985C22.1351 20.4922 21.9219 20.7053 21.9219 20.9687C21.9219 21.2321 22.1351 21.4453 22.3985 21.4453H24.3048C24.5682 21.4453 24.7814 21.2321 24.7814 20.9687C24.7814 20.7053 24.5682 20.4922 24.3048 20.4922Z" fill="#252525"/>
<path d="M35.7423 20.4922H33.836C33.5726 20.4922 33.3594 20.7053 33.3594 20.9687C33.3594 21.2321 33.5726 21.4453 33.836 21.4453H35.7423C36.0057 21.4453 36.2188 21.2321 36.2188 20.9687C36.2188 20.7053 36.0057 20.4922 35.7423 20.4922Z" fill="#252525"/>
<path d="M46.2266 12.8672H22.3985C22.1351 12.8672 21.9219 13.0804 21.9219 13.3438C21.9219 13.6072 22.1351 13.8203 22.3985 13.8203H46.2266C46.49 13.8203 46.7031 13.6072 46.7031 13.3438C46.7031 13.0804 46.49 12.8672 46.2266 12.8672Z" fill="#252525"/>
<path d="M35.7421 12.8672C35.4787 12.8672 35.2656 13.0804 35.2656 13.3438V20.9687C35.2656 21.2321 35.4787 21.4453 35.7421 21.4453C36.0055 21.4453 36.2187 21.232 36.2186 20.9687V13.3438C36.2186 13.0804 36.0055 12.8672 35.7421 12.8672Z" fill="#252525"/>
<path d="M46.2266 12.8669C45.9632 12.8669 45.75 13.0801 45.75 13.3435V39.078C45.75 39.3414 45.9632 39.5545 46.2266 39.5545C46.49 39.5545 46.7031 39.3414 46.7031 39.078V13.3435C46.7031 13.0801 46.49 12.8669 46.2266 12.8669Z" fill="#252525"/>
<path d="M46.2265 24.3047H26.2109C25.9474 24.3047 25.7344 24.5179 25.7344 24.7813C25.7344 25.0447 25.9474 25.2578 26.2109 25.2578H46.2265C46.4899 25.2578 46.703 25.0447 46.703 24.7813C46.703 24.5179 46.4899 24.3047 46.2265 24.3047Z" fill="#252525"/>
<path d="M22.3985 35.7422C22.1351 35.7422 21.9219 35.9554 21.9219 36.2188V39.0782C21.9219 39.3416 22.1351 39.5547 22.3985 39.5547C22.6619 39.5547 22.875 39.3416 22.8751 39.0782V36.2188C22.8751 35.9554 22.6619 35.7422 22.3985 35.7422Z" fill="#252525"/>
<path d="M46.2266 38.6016H22.3985C22.1351 38.6016 21.9219 38.8146 21.9219 39.078C21.9219 39.3415 22.1351 39.5545 22.3985 39.5545H46.2266C46.49 39.5545 46.7031 39.3415 46.7031 39.078C46.7031 38.8146 46.49 38.6016 46.2266 38.6016Z" fill="#252525"/>
<path d="M22.3985 31.9297C22.1351 31.9297 21.9219 32.1429 21.9219 32.4062V36.2188C21.9219 36.4822 22.1351 36.6952 22.3985 36.6952C22.6619 36.6952 22.875 36.4822 22.8751 36.2188V32.4062C22.8751 32.1429 22.6619 31.9297 22.3985 31.9297Z" fill="#252525"/>
<path d="M12.8671 48.1328C11.0279 48.1328 9.53125 49.6296 9.53125 51.4688C9.53125 53.3081 11.0279 54.8048 12.8671 54.8048C14.7064 54.8048 16.2031 53.3081 16.2031 51.4688C16.2031 49.6296 14.7064 48.1328 12.8671 48.1328ZM12.8671 53.8517C11.5533 53.8517 10.4843 52.7831 10.4843 51.4688C10.4843 50.1545 11.5533 49.0859 12.8671 49.0859C14.181 49.0859 15.25 50.1545 15.25 51.4688C15.25 52.7831 14.181 53.8517 12.8671 53.8517Z" fill="#252525"/>
<path d="M9.21806 50.0391H6.19535C5.93194 50.0391 5.71875 50.2523 5.71875 50.5157C5.71875 50.7791 5.93194 50.9923 6.19535 50.9923H9.21806C9.48147 50.9923 9.69466 50.7791 9.69466 50.5157C9.69466 50.2523 9.48147 50.0391 9.21806 50.0391Z" fill="#252525"/>
<path d="M9.21806 51.9453H6.19535C5.93194 51.9453 5.71875 52.1585 5.71875 52.4219C5.71875 52.6853 5.93194 52.8985 6.19535 52.8985H9.21806C9.48147 52.8985 9.69466 52.6853 9.69466 52.4219C9.69466 52.1585 9.48147 51.9453 9.21806 51.9453Z" fill="#252525"/>
<path d="M6.19532 51.9452C5.93238 51.9452 5.71871 51.7312 5.71871 51.4687C5.71871 51.2063 5.93238 50.9923 6.19532 50.9923C6.45861 50.9923 6.6718 50.7791 6.6718 50.5157C6.6718 50.2522 6.45873 50.0391 6.19532 50.0391C5.40698 50.0391 4.76562 50.6804 4.76562 51.4687C4.76562 52.2571 5.40698 52.8984 6.19532 52.8984C6.45873 52.8984 6.6718 52.6852 6.6718 52.4218C6.6718 52.1584 6.45873 51.9452 6.19532 51.9452Z" fill="#252525"/>
<path d="M12.8672 50.0391C12.0787 50.0391 11.4375 50.6804 11.4375 51.4687C11.4375 52.2571 12.0789 52.8984 12.8672 52.8984C13.6556 52.8984 14.2969 52.2571 14.2969 51.4687C14.2969 50.6804 13.6556 50.0391 12.8672 50.0391ZM12.8672 51.9451C12.6043 51.9451 12.3907 51.7311 12.3907 51.4686C12.3907 51.2062 12.6043 50.9921 12.8672 50.9921C13.1301 50.9921 13.3438 51.2062 13.3438 51.4686C13.3438 51.7311 13.1301 51.9451 12.8672 51.9451Z" fill="#252525"/>
<path d="M38.6013 50.0391H17.4668C17.2034 50.0391 16.9902 50.2523 16.9902 50.5157C16.9902 50.7791 17.2034 50.9923 17.4668 50.9923H38.6013C38.8647 50.9923 39.0779 50.7791 39.0779 50.5157C39.0779 50.2523 38.8647 50.0391 38.6013 50.0391Z" fill="#252525"/>
<path d="M38.6013 51.9453H17.4668C17.2034 51.9453 16.9902 52.1585 16.9902 52.4219C16.9902 52.6853 17.2034 52.8985 17.4668 52.8985H38.6013C38.8647 52.8985 39.0779 52.6853 39.0779 52.4219C39.0779 52.1585 38.8647 51.9453 38.6013 51.9453Z" fill="#252525"/>
<path d="M38.6016 55.7581H9.0547C8.99744 55.7581 8.94065 55.7683 8.8872 55.7878L5.07461 57.2175C4.88898 57.2882 4.76562 57.465 4.76562 57.6642C4.76562 57.8635 4.88886 58.0403 5.07461 58.111L8.8872 59.5407C8.94065 59.5601 8.99744 59.5704 9.0547 59.5704H38.6016C38.865 59.5704 39.0782 59.3573 39.0782 59.094V56.2347C39.0782 55.9711 38.865 55.7581 38.6016 55.7581ZM38.1251 58.6173H9.14131L6.59927 57.6641L9.14131 56.711H38.1251V58.6173Z" fill="#252525"/>
<path d="M10.4045 57.3998L9.4513 55.9701C9.30564 55.7506 9.01013 55.691 8.7905 55.838C8.57135 55.9842 8.51217 56.2792 8.65832 56.4988L9.61141 57.9285C9.70315 58.0662 9.85442 58.1407 10.0084 58.1407C10.0992 58.1407 10.191 58.1147 10.2723 58.0606C10.4915 57.9144 10.5507 57.6195 10.4045 57.3998Z" fill="#252525"/>
<path d="M10.2723 57.2679C10.0521 57.1207 9.75659 57.1802 9.61141 57.3999L8.65832 58.8296C8.51217 59.0493 8.57135 59.3443 8.7905 59.4904C8.87198 59.5445 8.96361 59.5705 9.05439 59.5705C9.20841 59.5705 9.35968 59.496 9.4513 59.3584L10.4045 57.9287C10.5507 57.7089 10.4915 57.414 10.2723 57.2679Z" fill="#252525"/>
<path d="M35.7421 55.7581C35.4787 55.7581 35.2656 55.9711 35.2656 56.2347V59.094C35.2656 59.3575 35.4787 59.5705 35.7421 59.5705C36.0055 59.5705 36.2187 59.3575 36.2186 59.094V56.2347C36.2186 55.9711 36.0055 55.7581 35.7421 55.7581Z" fill="#252525"/>
<path d="M31.9297 55.7581C31.6663 55.7581 31.4531 55.9711 31.4531 56.2347V59.094C31.4531 59.3575 31.6663 59.5705 31.9297 59.5705C32.1931 59.5705 32.4063 59.3575 32.4062 59.094V56.2347C32.4062 55.9711 32.1931 55.7581 31.9297 55.7581Z" fill="#252525"/>
<path d="M47.1797 50.0383H42.4141C42.1506 50.0383 41.9375 50.2515 41.9375 50.5149V59.094C41.9375 59.3575 42.1506 59.5705 42.4141 59.5705H47.1797C47.4431 59.5705 47.6564 59.3575 47.6563 59.094V50.5149C47.6563 50.2515 47.4431 50.0383 47.1797 50.0383ZM46.7031 58.6174H42.8906V50.9915H46.7031V58.6174Z" fill="#252525"/>
<path d="M46.2266 51.9453H43.3672C43.1038 51.9453 42.8906 52.1585 42.8906 52.4219C42.8906 52.6853 43.1038 52.8985 43.3672 52.8985H46.2266C46.49 52.8985 46.7031 52.6853 46.7031 52.4219C46.7031 52.1585 46.49 51.9453 46.2266 51.9453Z" fill="#252525"/>
<path d="M46.2266 56.7112H43.3672C43.1038 56.7112 42.8906 56.9244 42.8906 57.1877C42.8906 57.4512 43.1038 57.6643 43.3672 57.6643H46.2266C46.49 57.6643 46.7031 57.4512 46.7031 57.1877C46.7031 56.9244 46.49 56.7112 46.2266 56.7112Z" fill="#252525"/>
</g>
<defs>
<clipPath id="clip0">
<rect width="61" height="61" fill="white"/>
</clipPath>
</defs>
</svg>
