<svg width="68" height="59" viewBox="0 0 68 59" fill="none" xmlns="http://www.w3.org/2000/svg">
<path d="M27.141 44.5431C25.8507 44.6491 24.0971 44.641 22.139 44.4109M7.60645 36.7551C8.7513 38.4735 10.2166 39.8377 11.8448 40.9133M11.8448 40.9133L11.598 37.0155M11.8448 40.9133C13.3654 41.9179 15.0281 42.6709 16.7046 43.2256M11.8448 40.9133L7.35432 40.6204M16.7046 43.2256L15.4593 39.2716M16.7046 43.2256C18.557 43.8386 20.4262 44.2097 22.139 44.4109M16.7046 43.2256L12.6717 43.5993M22.139 44.4109L19.8847 40.5624M22.139 44.4109L17.4984 46.4195" stroke="#252525" stroke-linecap="round" stroke-linejoin="round"/>
<path d="M40.9797 44.7025C42.2699 44.8096 44.0236 44.8031 45.9819 44.5749M60.5215 36.9326C59.375 38.6499 57.9085 40.0127 56.2793 41.0869M56.2793 41.0869L56.5297 37.1893M56.2793 41.0869C54.7577 42.0901 53.0943 42.8415 51.4173 43.3947M56.2793 41.0869L60.77 40.7981M51.4173 43.3947L52.6663 39.4418M51.4173 43.3947C49.5643 44.006 47.6948 44.3753 45.9819 44.5749M51.4173 43.3947L55.4499 43.7721M45.9819 44.5749L48.2397 40.7285M45.9819 44.5749L50.6206 46.5878" stroke="#252525" stroke-linecap="round" stroke-linejoin="round"/>
<path d="M23.0205 8.25524H6.0207C4.35403 8.08857 1.0207 9.15524 1.0207 14.7552C1.0207 20.3552 1.0207 38.0887 1.0207 46.2554M1.0207 46.2554C0.854031 48.2554 1.6207 52.2554 6.0207 52.2554C10.4207 52.2554 45.1872 52.2554 62.0205 52.2554C63.5205 52.2554 66.5205 51.0554 66.5205 46.2554M1.0207 46.2554V53.7554C1.35409 55.0887 2.82085 57.7554 6.0207 57.7554C9.22055 57.7554 44.6872 57.7554 62.0205 57.7554C63.5205 57.422 66.5205 56.1554 66.5205 53.7554C66.5205 51.3554 66.5205 47.7554 66.5205 46.2554M66.5205 46.2554C66.5205 41.4554 66.5205 23.2553 66.5205 14.7552C66.8538 12.5886 66.4205 8.25524 62.0205 8.25524H61.0205M9.02051 20.7552V18.2553C9.02051 13.2553 13.4205 11.2553 19.0205 11.2553C24.6205 11.2553 29.1872 6.58869 32.0205 5.25536C36.6872 2.4623 44.0205 -1.24487 52.5205 2.75527C57.833 5.25536 59.7412 11.0746 59.6836 16.7554M9.02051 20.7552C9.52051 23.5885 12.0205 28.5552 18.0205 27.7552C25.5205 26.7552 30.5205 29.1964 35.0205 30.2552C48.6205 33.4552 56.4598 29.7553 58.0205 24.7553C58.6606 22.7045 59.6527 19.8029 59.6836 16.7554M9.02051 20.7552C9.02051 22.7079 9.02051 23.8026 9.02051 25.7553C9.02051 27.0886 10.0205 30.5678 14.5205 32.2553C19.0205 33.9428 22.0205 30.9219 27.5205 32.7553C33.5205 34.7553 37.2884 36.7553 46.0205 36.7553C51.0205 36.7553 59.0205 33.7553 59.5205 25.2553L59.6836 16.7554M11.0205 18.2553C11.1629 16.5465 12.2205 13.2553 19.0205 13.2553C25.5205 13.2553 32.2705 7.25527 34.5205 6.25527C35.6453 5.75536 43.5205 0.25536 52.0205 4.75527C60.5205 9.25517 57.2665 23.0093 54.5205 25.7553C51.7745 28.5012 46.5205 30.7553 36.0205 28.2553C27.5205 26.2315 23.5205 25.2553 19.5205 25.7553C15.5205 26.2553 10.5205 24.2553 11.0205 18.2553ZM50.0205 11.7551C50.0205 10.4218 49.2205 8.25513 46.0205 8.25513C42.8205 8.25513 42.0205 10.4218 42.0205 11.7551C42.0205 12.7551 42.8205 14.7551 46.0205 14.7551C49.2205 14.7551 50.0205 12.7551 50.0205 11.7551Z" stroke="#252525" stroke-linecap="round" stroke-linejoin="round"/>
</svg>
