<svg width="61" height="60" viewBox="0 0 61 60" fill="none" xmlns="http://www.w3.org/2000/svg">
<g clip-path="url(#clip0)">
<path d="M30.0525 28.125H30.0423C29.7798 28.125 29.5713 28.3346 29.5713 28.5938C29.5713 28.8529 29.7891 29.0625 30.0525 29.0625C30.315 29.0625 30.5291 28.8529 30.5291 28.5938C30.5291 28.3346 30.315 28.125 30.0525 28.125Z" fill="#252525"/>
<path d="M28.1462 25.3125H28.136C27.8735 25.3125 27.665 25.5221 27.665 25.7812C27.665 26.0404 27.8828 26.25 28.1462 26.25C28.4087 26.25 28.6228 26.0404 28.6228 25.7812C28.6228 25.5221 28.4087 25.3125 28.1462 25.3125Z" fill="#252525"/>
<path d="M31.0056 23.4375H30.9954C30.7329 23.4375 30.5244 23.6471 30.5244 23.9062C30.5244 24.1654 30.7422 24.375 31.0056 24.375C31.2681 24.375 31.4822 24.1654 31.4822 23.9062C31.4822 23.6471 31.2681 23.4375 31.0056 23.4375Z" fill="#252525"/>
<path d="M17.6328 15.9375C17.3694 15.9375 17.1562 16.1471 17.1562 16.4062V35.1562C17.1562 35.4153 17.3694 35.625 17.6328 35.625C17.8962 35.625 18.1094 35.4153 18.1094 35.1562V16.4062C18.1094 16.1471 17.8962 15.9375 17.6328 15.9375Z" fill="#252525"/>
<path d="M38.6016 15.9375C38.3381 15.9375 38.125 16.1471 38.125 16.4062V35.1562C38.125 35.4153 38.3381 35.625 38.6016 35.625C38.865 35.625 39.0781 35.4153 39.0781 35.1562V16.4062C39.0781 16.1471 38.865 15.9375 38.6016 15.9375Z" fill="#252525"/>
<path d="M28.1172 44.9999C22.5985 44.9999 18.1094 40.5843 18.1094 35.1562C18.1094 34.8971 17.8962 34.6875 17.6328 34.6875C17.3694 34.6875 17.1562 34.8971 17.1562 35.1562C17.1562 41.1015 22.0735 45.9374 28.1172 45.9374C28.3806 45.9374 28.5938 45.7277 28.5938 45.4686C28.5938 45.2095 28.3806 44.9999 28.1172 44.9999Z" fill="#252525"/>
<path d="M38.6016 34.6875C38.3381 34.6875 38.125 34.8971 38.125 35.1562C38.125 40.5843 33.6358 44.9999 28.1172 44.9999C27.8538 44.9999 27.6406 45.2095 27.6406 45.4686C27.6406 45.7277 27.8538 45.9374 28.1172 45.9374C34.1608 45.9374 39.0781 41.1015 39.0781 35.1562C39.0781 34.8971 38.865 34.6875 38.6016 34.6875Z" fill="#252525"/>
<path d="M28.1172 45C27.8538 45 27.6406 45.2096 27.6406 45.4688V56.7188C27.6406 56.9779 27.8538 57.1875 28.1172 57.1875C28.3806 57.1875 28.5938 56.9779 28.5938 56.7188V45.4688C28.5938 45.2096 28.3806 45 28.1172 45Z" fill="#252525"/>
<path d="M37.6484 59.0625H18.5859C18.3225 59.0625 18.1094 59.2721 18.1094 59.5312C18.1094 59.7904 18.3225 60 18.5859 60H37.6484C37.9119 60 38.125 59.7904 38.125 59.5312C38.125 59.2721 37.9119 59.0625 37.6484 59.0625Z" fill="#252525"/>
<path d="M32.2154 59.1567L28.4028 56.3442C28.1944 56.1904 27.8955 56.2298 27.7354 56.4376C27.5782 56.6445 27.6209 56.9384 27.8313 57.094L31.6438 59.9065C31.7294 59.9697 31.8299 59.9999 31.9295 59.9999C32.0738 59.9999 32.2171 59.9358 32.3113 59.8122C32.4685 59.6052 32.4258 59.3113 32.2154 59.1567Z" fill="#252525"/>
<path d="M28.4988 56.4378C28.3404 56.2299 28.0408 56.1897 27.8313 56.3443L24.0188 59.1569C23.8084 59.3117 23.7657 59.6054 23.9229 59.8124C24.0169 59.936 24.1603 60.0001 24.3045 60.0001C24.4041 60.0001 24.5047 59.9699 24.5903 59.9067L28.4028 57.0942C28.6133 56.9385 28.656 56.6447 28.4988 56.4378Z" fill="#252525"/>
<path d="M38.6016 15.9375H17.6328C17.3694 15.9375 17.1562 16.1471 17.1562 16.4062C17.1562 16.6654 17.3694 16.875 17.6328 16.875H38.6016C38.865 16.875 39.0781 16.6654 39.0781 16.4062C39.0781 16.1471 38.865 15.9375 38.6016 15.9375Z" fill="#252525"/>
<path d="M36.6953 19.6875H19.5391C19.2756 19.6875 19.0625 19.8971 19.0625 20.1562C19.0625 20.4154 19.2756 20.625 19.5391 20.625H36.6953C36.9587 20.625 37.1719 20.4154 37.1719 20.1562C37.1719 19.8971 36.9587 19.6875 36.6953 19.6875Z" fill="#252525"/>
<path d="M37.7912 4.70915C37.538 4.63133 37.2727 4.77008 37.1936 5.01676L32.4279 20.0168C32.3498 20.2636 32.4894 20.5268 32.7407 20.6036C32.7881 20.6183 32.8365 20.6252 32.8831 20.6252C33.086 20.6252 33.274 20.4971 33.3383 20.296L38.1039 5.29602C38.1821 5.04922 38.0424 4.78602 37.7912 4.70915Z" fill="#252525"/>
<path d="M49.5262 0.288577C49.4248 0.0491625 49.1428 -0.0634547 48.9026 0.0363891L37.4652 4.72389C37.2223 4.82315 37.1078 5.09783 37.2083 5.33678C37.2846 5.51666 37.4625 5.62518 37.6486 5.62518C37.71 5.62518 37.7723 5.61369 37.8319 5.58897L49.2693 0.901467C49.5122 0.802209 49.6267 0.527522 49.5262 0.288577Z" fill="#252525"/>
<path d="M22.4553 19.9595L19.7151 14.1332C19.6035 13.8979 19.3215 13.7945 19.0822 13.9048C18.843 14.0133 18.7397 14.2921 18.8495 14.527L21.5898 20.3533C21.6708 20.5245 21.843 20.6252 22.0226 20.6252C22.0896 20.6252 22.1576 20.6114 22.2227 20.5817C22.4619 20.4732 22.5652 20.1944 22.4553 19.9595Z" fill="#252525"/>
<path d="M29.2936 7.70801C29.1829 7.47317 28.9 7.37063 28.6607 7.47961L7.90156 16.9287C7.66233 17.0372 7.55903 17.316 7.66888 17.5508C7.7499 17.722 7.92206 17.8227 8.10172 17.8227C8.16868 17.8227 8.23671 17.809 8.30188 17.7792L29.0609 8.33016C29.3002 8.22164 29.4035 7.94285 29.2936 7.70801Z" fill="#252525"/>
<path d="M28.9609 7.44677L14.9788 4.51345C14.7276 4.45755 14.4688 4.62009 14.4129 4.87369C14.358 5.12728 14.5228 5.3763 14.7796 5.42986L28.7617 8.36318C28.7953 8.37056 28.8288 8.37373 28.8623 8.37373C29.082 8.37373 29.2793 8.22314 29.3276 8.00294C29.3826 7.74935 29.2178 7.50033 28.9609 7.44677Z" fill="#252525"/>
<path d="M15.1051 4.5585C14.8715 4.43534 14.5848 4.521 14.4591 4.7494L7.68205 17.1319C7.55731 17.3598 7.64392 17.6441 7.87565 17.7668C7.94821 17.8049 8.02541 17.8227 8.10178 17.8227C8.2712 17.8227 8.43502 17.7335 8.52151 17.576L15.2987 5.19343C15.4233 4.9655 15.3368 4.6812 15.1051 4.5585Z" fill="#252525"/>
<path d="M15.3627 7.55004C15.1049 7.49426 14.8517 7.65176 14.7931 7.90348L13.7562 12.3987C13.6976 12.6513 13.8586 12.9022 14.1155 12.9599C14.1509 12.9677 14.1863 12.9714 14.2207 12.9714C14.4385 12.9714 14.635 12.8241 14.6851 12.6065L15.722 8.11125C15.7806 7.8586 15.6195 7.6077 15.3627 7.55004Z" fill="#252525"/>
<path d="M21.3613 8.9385L17.2072 6.8044C16.9745 6.68627 16.6879 6.77416 16.5641 7.00303C16.4421 7.23237 16.5324 7.51573 16.766 7.63561L20.9201 9.76971C20.9909 9.80581 21.0663 9.8228 21.1408 9.8228C21.312 9.8228 21.4777 9.73127 21.5632 9.57108C21.6851 9.34174 21.5948 9.05838 21.3613 8.9385Z" fill="#252525"/>
<path d="M47.1796 53.4375C43.7637 53.4375 40.9844 56.1712 40.9844 59.5312C40.9844 59.7904 41.1975 60 41.4609 60C41.7244 60 41.9375 59.7904 41.9375 59.5312C41.9375 56.6885 44.2896 54.375 47.1796 54.375C50.0697 54.375 52.4218 56.6885 52.4218 59.5312C52.4218 59.7904 52.6349 60 52.8983 60C53.1617 60 53.3749 59.7904 53.3749 59.5312C53.3749 56.1712 50.5956 53.4375 47.1796 53.4375Z" fill="#252525"/>
<path d="M52.8983 59.0625H41.4609C41.1975 59.0625 40.9844 59.2721 40.9844 59.5312C40.9844 59.7904 41.1975 60 41.4609 60H52.8983C53.1617 60 53.3749 59.7904 53.3749 59.5312C53.3749 59.2721 53.1617 59.0625 52.8983 59.0625Z" fill="#252525"/>
<path d="M47.1797 55.3125C46.9163 55.3125 46.7031 55.5221 46.7031 55.7812V57.6562C46.7031 57.9154 46.9163 58.125 47.1797 58.125C47.4431 58.125 47.6562 57.9154 47.6562 57.6562V55.7812C47.6562 55.5221 47.4431 55.3125 47.1797 55.3125Z" fill="#252525"/>
<path d="M46.1699 57.8743L44.8222 56.5487C44.6361 56.3656 44.3345 56.3656 44.1484 56.5487C43.9623 56.7317 43.9623 57.0284 44.1484 57.2115L45.4961 58.5371C45.5891 58.6286 45.7111 58.6744 45.833 58.6744C45.955 58.6744 46.0769 58.6286 46.1699 58.5371C46.356 58.354 46.356 58.0573 46.1699 57.8743Z" fill="#252525"/>
<path d="M50.2129 56.5467C50.0268 56.3637 49.7251 56.3637 49.5391 56.5467L48.1913 57.8723C48.0052 58.0554 48.0052 58.3521 48.1913 58.5351C48.2844 58.6267 48.4064 58.6725 48.5283 58.6725C48.6503 58.6725 48.7721 58.6267 48.8652 58.5351L50.2129 57.2095C50.399 57.0265 50.399 56.7298 50.2129 56.5467Z" fill="#252525"/>
<path d="M29.639 34.1484C29.4529 33.9653 29.1512 33.9653 28.9651 34.1484C26.9201 36.1598 23.5944 36.1588 21.5513 34.1484C20.561 33.1752 20.0156 31.8797 20.0156 30.5028C20.0156 29.1254 20.561 27.8303 21.5513 26.8563C21.7374 26.6732 21.7374 26.3765 21.5513 26.1934C21.3652 26.0104 21.0636 26.0104 20.8775 26.1934C19.7075 27.3447 19.0625 28.8749 19.0625 30.5028C19.0625 32.1306 19.7075 33.6605 20.8775 34.8113C22.0856 35.9997 23.6717 36.5938 25.2577 36.5938C26.8446 36.5938 28.4308 35.9996 29.639 34.8112C29.8251 34.6281 29.8251 34.3314 29.639 34.1484Z" fill="#252525"/>
<path d="M29.6393 34.1485L21.5517 26.1934C21.3656 26.0104 21.064 26.0104 20.8779 26.1934C20.6918 26.3765 20.6918 26.6732 20.8779 26.8563L28.9654 34.8113C29.0584 34.9028 29.1804 34.9486 29.3023 34.9486C29.4243 34.9486 29.5462 34.9028 29.6393 34.8113C29.8254 34.6281 29.8254 34.3315 29.6393 34.1485Z" fill="#252525"/>
<path d="M24.2471 31.4971C24.061 31.3141 23.7593 31.3141 23.5732 31.4971L22.2255 32.8228C22.0394 33.0058 22.0394 33.3025 22.2255 33.4856C22.3186 33.5771 22.4406 33.6229 22.5624 33.6229C22.6843 33.6229 22.8063 33.5771 22.8994 33.4856L24.2471 32.16C24.4332 31.9768 24.4332 31.6802 24.2471 31.4971Z" fill="#252525"/>
<path d="M25.2578 31.908C24.9944 31.908 24.7812 32.1176 24.7812 32.3767V34.2517C24.7812 34.5108 24.9944 34.7205 25.2578 34.7205C25.5212 34.7205 25.7344 34.5108 25.7344 34.2517V32.3767C25.7344 32.1176 25.5212 31.908 25.2578 31.908Z" fill="#252525"/>
<path d="M23.3496 30.0349H21.4434C21.1799 30.0349 20.9668 30.2446 20.9668 30.5037C20.9668 30.7628 21.1799 30.9724 21.4434 30.9724H23.3496C23.613 30.9724 23.8262 30.7628 23.8262 30.5037C23.8262 30.2446 23.613 30.0349 23.3496 30.0349Z" fill="#252525"/>
<path d="M34.4048 32.722C34.2187 32.539 33.9171 32.539 33.731 32.722C33.5449 32.905 33.5449 33.2018 33.731 33.3848C35.775 35.3954 35.775 38.6666 33.731 40.6769C32.7407 41.6511 31.4245 42.1876 30.0246 42.1876C28.6247 42.1876 27.3076 41.651 26.3173 40.6769C26.1312 40.4939 25.8296 40.4939 25.6435 40.6769C25.4574 40.86 25.4574 41.1567 25.6435 41.3397C26.8134 42.4915 28.3697 43.125 30.0246 43.125C31.6795 43.125 33.2349 42.4915 34.4048 41.3397C36.8202 38.964 36.8202 35.0977 34.4048 32.722Z" fill="#252525"/>
<path d="M34.405 32.722C34.2189 32.539 33.9172 32.539 33.7311 32.722L25.6435 40.6769C25.4574 40.86 25.4574 41.1567 25.6435 41.3397C25.7365 41.4313 25.8585 41.4771 25.9804 41.4771C26.1024 41.4771 26.2243 41.4313 26.3173 41.3397L34.405 33.3848C34.5911 33.2018 34.5911 32.905 34.405 32.722Z" fill="#252525"/>
<path d="M33.0567 39.3513L31.7089 38.0257C31.5228 37.8427 31.2212 37.8427 31.0351 38.0257C30.849 38.2088 30.849 38.5055 31.0351 38.6885L32.3828 40.0141C32.4759 40.1057 32.5979 40.1515 32.7197 40.1515C32.8416 40.1515 32.9636 40.1057 33.0567 40.014C33.2428 39.8309 33.2428 39.5344 33.0567 39.3513Z" fill="#252525"/>
<path d="M33.8359 36.5625H31.9297C31.6663 36.5625 31.4531 36.7721 31.4531 37.0312C31.4531 37.2904 31.6663 37.5 31.9297 37.5H33.8359C34.0994 37.5 34.3125 37.2904 34.3125 37.0312C34.3125 36.7721 34.0994 36.5625 33.8359 36.5625Z" fill="#252525"/>
<path d="M30.0254 38.4395C29.762 38.4395 29.5488 38.6491 29.5488 38.9082V40.7821C29.5488 41.0413 29.762 41.2509 30.0254 41.2509C30.2888 41.2509 30.502 41.0413 30.502 40.7821V38.9082C30.502 38.6491 30.2888 38.4395 30.0254 38.4395Z" fill="#252525"/>
<path d="M36.6953 21.5625C36.4319 21.5625 36.2188 21.7721 36.2188 22.0312V31.4392C36.2188 31.6983 36.4319 31.9079 36.6953 31.9079C36.9587 31.9079 37.1719 31.6983 37.1719 31.4392V22.0312C37.1719 21.7721 36.9587 21.5625 36.6953 21.5625Z" fill="#252525"/>
</g>
<defs>
<clipPath id="clip0">
<rect width="61" height="60" fill="white"/>
</clipPath>
</defs>
</svg>
