<svg width="59" height="59" viewBox="0 0 59 59" fill="none" xmlns="http://www.w3.org/2000/svg">
<g clip-path="url(#clip0)">
<path d="M18.8984 23.7014C18.6437 23.7014 18.4375 23.9076 18.4375 24.1624V31.8047C18.4375 32.0595 18.6437 32.2657 18.8984 32.2657C19.1532 32.2657 19.3594 32.0595 19.3594 31.8047V24.1624C19.3594 23.9076 19.1532 23.7014 18.8984 23.7014Z" fill="#252525"/>
<path d="M26.2734 23.7014C26.0187 23.7014 25.8125 23.9076 25.8125 24.1624V31.8047C25.8125 32.0595 26.0187 32.2657 26.2734 32.2657C26.5282 32.2657 26.7344 32.0595 26.7344 31.8047V24.1624C26.7344 23.9076 26.5282 23.7014 26.2734 23.7014Z" fill="#252525"/>
<path d="M21.6641 19.3594C21.4093 19.3594 21.2031 19.5655 21.2031 19.8203V21.9089C21.2031 22.1637 21.4093 22.3699 21.6641 22.3699C21.9188 22.3699 22.125 22.1637 22.125 21.9089V19.8203C22.125 19.5655 21.9188 19.3594 21.6641 19.3594Z" fill="#252525"/>
<path d="M23.5078 19.3594C23.253 19.3594 23.0469 19.5655 23.0469 19.8203V21.9089C23.0469 22.1637 23.253 22.3699 23.5078 22.3699C23.7626 22.3699 23.9688 22.1637 23.9688 21.9089V19.8203C23.9688 19.5655 23.7626 19.3594 23.5078 19.3594Z" fill="#252525"/>
<path d="M21.664 21.448C21.4092 21.448 21.203 21.6542 21.203 21.9089C21.203 22.1241 20.6566 22.3239 20.2173 22.4833C19.4665 22.7578 18.4375 23.1332 18.4375 24.1622C18.4375 24.417 18.6437 24.6232 18.8984 24.6232C19.1532 24.6232 19.3594 24.417 19.3593 24.1624C19.3593 23.8049 19.8239 23.6086 20.5333 23.3503C21.2427 23.091 22.1249 22.7696 22.1249 21.9089C22.1249 21.6542 21.9187 21.448 21.664 21.448Z" fill="#252525"/>
<path d="M24.9546 22.4878C24.4927 22.3248 23.9688 22.1413 23.9688 21.9089C23.9688 21.6542 23.7626 21.448 23.5078 21.448C23.253 21.448 23.0469 21.6542 23.0469 21.9089C23.0469 22.7947 23.9355 23.1062 24.6493 23.3574C25.3732 23.6113 25.8125 23.7922 25.8125 24.1622C25.8125 24.417 26.0187 24.6232 26.2734 24.6232C26.5282 24.6232 26.7344 24.417 26.7344 24.1622C26.7344 23.1124 25.7053 22.7506 24.9546 22.4878Z" fill="#252525"/>
<path d="M25.3516 32.2656H19.8203C19.5655 32.2656 19.3594 32.4718 19.3594 32.7266C19.3594 32.9813 19.5655 33.1875 19.8203 33.1875H25.3516C25.6064 33.1875 25.8125 32.9813 25.8125 32.7266C25.8125 32.4718 25.6064 32.2656 25.3516 32.2656Z" fill="#252525"/>
<path d="M26.2735 24.8906H18.8984C18.6437 24.8906 18.4375 25.0968 18.4375 25.3516C18.4375 25.6063 18.6437 25.8125 18.8984 25.8125H26.2735C26.5283 25.8125 26.7344 25.6063 26.7344 25.3516C26.7344 25.0968 26.5283 24.8906 26.2735 24.8906Z" fill="#252525"/>
<path d="M26.2735 30.4219H18.8984C18.6437 30.4219 18.4375 30.628 18.4375 30.8828C18.4375 31.1376 18.6437 31.3438 18.8984 31.3438H26.2735C26.5283 31.3438 26.7344 31.1376 26.7344 30.8828C26.7344 30.628 26.5283 30.4219 26.2735 30.4219Z" fill="#252525"/>
<path d="M22.5859 26.7496C21.2724 26.7496 20.2812 27.3376 20.2812 28.1171C20.2812 28.8967 21.2725 29.4846 22.5859 29.4846C23.8994 29.4846 24.8906 28.8967 24.8906 28.1171C24.8906 27.3376 23.8995 26.7496 22.5859 26.7496ZM22.5859 28.5627C21.6803 28.5627 21.2185 28.2207 21.2031 28.118C21.2185 28.0136 21.6803 27.6715 22.5859 27.6715C23.4916 27.6715 23.9534 28.0136 23.9688 28.1162C23.9534 28.2206 23.4916 28.5627 22.5859 28.5627Z" fill="#252525"/>
<path d="M19.8203 32.2656C19.5665 32.2656 19.3594 32.0586 19.3594 31.8047C19.3594 31.5499 19.1532 31.3438 18.8984 31.3438C18.6437 31.3438 18.4375 31.5499 18.4375 31.8047C18.4375 32.5672 19.0578 33.1875 19.8203 33.1875C20.0751 33.1875 20.2813 32.9814 20.2813 32.7266C20.2813 32.4718 20.0751 32.2656 19.8203 32.2656Z" fill="#252525"/>
<path d="M26.2734 31.3438C26.0187 31.3438 25.8125 31.5499 25.8125 31.8047C25.8125 32.0586 25.6054 32.2656 25.3516 32.2656C25.0968 32.2656 24.8906 32.4718 24.8906 32.7266C24.8906 32.9814 25.0968 33.1875 25.3516 33.1875C26.1141 33.1875 26.7344 32.5672 26.7344 31.8047C26.7344 31.5499 26.5282 31.3438 26.2734 31.3438Z" fill="#252525"/>
<path d="M23.9688 19.3594H21.2031C20.9483 19.3594 20.7422 19.5655 20.7422 19.8203C20.7422 20.0751 20.9483 20.2813 21.2031 20.2813H23.9688C24.2235 20.2813 24.4297 20.0751 24.4297 19.8203C24.4297 19.5655 24.2235 19.3594 23.9688 19.3594Z" fill="#252525"/>
<path d="M58.5391 34.1094H0.460939C0.206155 34.1094 0 34.3155 0 34.5703V36.4141C0 36.6689 0.206155 36.875 0.460939 36.875H58.5391C58.7938 36.875 59 36.6689 59 36.4141V34.5703C59 34.3155 58.7938 34.1094 58.5391 34.1094ZM58.0781 35.9531H0.921879V35.0313H58.0781V35.9531Z" fill="#252525"/>
<path d="M2.30469 37.7969C2.04991 37.7969 1.84375 38.003 1.84375 38.2578V58.539C1.84375 58.7938 2.04991 59 2.30469 59C2.55947 59 2.76563 58.7938 2.76563 58.539V38.2578C2.76563 38.003 2.55947 37.7969 2.30469 37.7969Z" fill="#252525"/>
<path d="M55.7734 37.7969C55.5187 37.7969 55.3125 38.003 55.3125 38.2578V58.539C55.3125 58.7938 55.5187 59 55.7734 59C56.0282 59 56.2344 58.7938 56.2344 58.539V38.2578C56.2344 38.003 56.0282 37.7969 55.7734 37.7969Z" fill="#252525"/>
<path d="M17.0547 47.0067C16.7999 47.0067 16.5938 47.2129 16.5938 47.4677V58.5392C16.5938 58.794 16.7999 59.0001 17.0547 59.0001C17.3095 59.0001 17.5156 58.794 17.5156 58.5392V47.4677C17.5156 47.2129 17.3095 47.0067 17.0547 47.0067Z" fill="#252525"/>
<path d="M18.8984 47.0156C18.6437 47.0156 18.4375 47.2218 18.4375 47.4766V58.5391C18.4375 58.7939 18.6437 59.0001 18.8984 59.0001C19.1532 59.0001 19.3594 58.7939 19.3594 58.5391V47.4766C19.3594 47.2218 19.1532 47.0156 18.8984 47.0156Z" fill="#252525"/>
<path d="M20.8108 54.5805C20.5625 54.5408 20.3247 54.7146 20.2869 54.9675C20.249 55.2197 20.4228 55.4546 20.674 55.4915C21.2798 55.5824 21.6661 55.6896 21.8947 55.776C21.3374 55.984 20.0123 56.2343 17.9767 56.2343C15.9411 56.2343 14.616 55.984 14.0587 55.776C14.2873 55.6896 14.6736 55.5824 15.2794 55.4915C15.5305 55.4546 15.7043 55.2196 15.6665 54.9675C15.6287 54.7155 15.3919 54.5462 15.1425 54.5805C13.5958 54.8119 12.9062 55.1792 12.9062 55.7734C12.9062 57.0563 16.7874 57.1562 17.9766 57.1562C19.1659 57.1562 23.0469 57.0563 23.047 55.7734C23.047 55.1791 22.3575 54.8119 20.8108 54.5805Z" fill="#252525"/>
<path d="M17.9766 42.4062C15.6205 42.4062 10.1406 42.5413 10.1406 43.7891C10.1406 45.0368 15.6206 45.1719 17.9766 45.1719C20.3327 45.1719 25.8126 45.0368 25.8126 43.7891C25.8126 42.5413 20.3327 42.4062 17.9766 42.4062ZM17.9766 44.25C15.2146 44.25 12.8929 44.0222 11.7288 43.7891C12.8929 43.556 15.2146 43.3281 17.9766 43.3281C20.7385 43.3281 23.0603 43.556 24.2244 43.7891C23.0604 44.0222 20.7385 44.25 17.9766 44.25Z" fill="#252525"/>
<path d="M25.3516 46.0938C25.1707 46.0938 25.014 46.1983 24.9384 46.3504C24.409 46.6312 21.5642 47.0156 17.9766 47.0156C14.389 47.0156 11.5442 46.6313 11.0148 46.3504C10.9392 46.1982 10.7825 46.0938 10.6016 46.0938C10.3468 46.0938 10.1406 46.2999 10.1406 46.5547C10.1406 47.8025 15.6206 47.9375 17.9766 47.9375C20.3327 47.9375 25.8126 47.8025 25.8126 46.5547C25.8126 46.2999 25.6064 46.0938 25.3516 46.0938Z" fill="#252525"/>
<path d="M10.6016 43.3281C10.3468 43.3281 10.1406 43.5343 10.1406 43.7891V46.5547C10.1406 46.8095 10.3468 47.0156 10.6016 47.0156C10.8564 47.0156 11.0625 46.8095 11.0625 46.5547V43.7891C11.0625 43.5343 10.8564 43.3281 10.6016 43.3281Z" fill="#252525"/>
<path d="M25.3516 43.3281C25.0968 43.3281 24.8906 43.5343 24.8906 43.7891V46.5547C24.8906 46.8095 25.0968 47.0156 25.3516 47.0156C25.6063 47.0156 25.8125 46.8095 25.8125 46.5547V43.7891C25.8125 43.5343 25.6063 43.3281 25.3516 43.3281Z" fill="#252525"/>
<path d="M39.1797 47.0067C38.9249 47.0067 38.7188 47.2129 38.7188 47.4677V58.5392C38.7188 58.794 38.9249 59.0001 39.1797 59.0001C39.4345 59.0001 39.6406 58.794 39.6406 58.5392V47.4677C39.6406 47.2129 39.4345 47.0067 39.1797 47.0067Z" fill="#252525"/>
<path d="M41.0234 47.0156C40.7687 47.0156 40.5625 47.2218 40.5625 47.4766V58.5391C40.5625 58.7939 40.7687 59.0001 41.0234 59.0001C41.2782 59.0001 41.4844 58.7939 41.4844 58.5391V47.4766C41.4844 47.2218 41.2782 47.0156 41.0234 47.0156Z" fill="#252525"/>
<path d="M42.9357 54.5805C42.6872 54.5408 42.4495 54.7146 42.4117 54.9675C42.3738 55.2197 42.5476 55.4546 42.7988 55.4915C43.4047 55.5824 43.7909 55.6896 44.0196 55.776C43.4623 55.984 42.1371 56.2343 40.1016 56.2343C38.0661 56.2343 36.7409 55.984 36.1836 55.776C36.4123 55.6896 36.7985 55.5824 37.4044 55.4915C37.6555 55.4546 37.8293 55.2196 37.7915 54.9675C37.7537 54.7155 37.5169 54.5462 37.2675 54.5805C35.7208 54.8119 35.0312 55.1792 35.0312 55.7734C35.0312 57.0563 38.9124 57.1562 40.1016 57.1562C41.2908 57.1562 45.1718 57.0563 45.1718 55.7734C45.1718 55.1791 44.4824 54.8119 42.9357 54.5805Z" fill="#252525"/>
<path d="M40.1016 42.4062C37.7456 42.4062 32.2656 42.5413 32.2656 43.7891C32.2656 45.0368 37.7456 45.1719 40.1016 45.1719C42.4576 45.1719 47.9374 45.0368 47.9374 43.7891C47.9374 42.5413 42.4576 42.4062 40.1016 42.4062ZM40.1016 44.25C37.3395 44.25 35.0178 44.0222 33.8537 43.7891C35.0178 43.556 37.3395 43.3281 40.1016 43.3281C42.8637 43.3281 45.1853 43.556 46.3494 43.7891C45.1853 44.0222 42.8637 44.25 40.1016 44.25Z" fill="#252525"/>
<path d="M47.4765 46.0938C47.2956 46.0938 47.1389 46.1983 47.0633 46.3504C46.5339 46.6312 43.6892 47.0156 40.1016 47.0156C36.514 47.0156 33.6692 46.6313 33.1398 46.3504C33.0642 46.1982 32.9075 46.0938 32.7266 46.0938C32.4718 46.0938 32.2656 46.2999 32.2656 46.5547C32.2656 47.8025 37.7456 47.9375 40.1016 47.9375C42.4576 47.9375 47.9374 47.8025 47.9374 46.5547C47.9374 46.2999 47.7313 46.0938 47.4765 46.0938Z" fill="#252525"/>
<path d="M32.7266 43.3281C32.4718 43.3281 32.2656 43.5343 32.2656 43.7891V46.5547C32.2656 46.8095 32.4718 47.0156 32.7266 47.0156C32.9813 47.0156 33.1875 46.8095 33.1875 46.5547V43.7891C33.1875 43.5343 32.9813 43.3281 32.7266 43.3281Z" fill="#252525"/>
<path d="M47.4766 43.3281C47.2218 43.3281 47.0156 43.5343 47.0156 43.7891V46.5547C47.0156 46.8095 47.2218 47.0156 47.4766 47.0156C47.7313 47.0156 47.9375 46.8095 47.9375 46.5547V43.7891C47.9375 43.5343 47.7313 43.3281 47.4766 43.3281Z" fill="#252525"/>
<path d="M5.07031 0C4.81553 0 4.60938 0.206155 4.60938 0.460939V31.8047C4.60938 32.0595 4.81553 32.2656 5.07031 32.2656C5.3251 32.2656 5.53125 32.0595 5.53125 31.8047V0.460939C5.53125 0.206155 5.3251 0 5.07031 0Z" fill="#252525"/>
<path d="M53.9297 0C53.6749 0 53.4688 0.206155 53.4688 0.460939V31.8047C53.4688 32.0595 53.6749 32.2656 53.9297 32.2656C54.1845 32.2656 54.3906 32.0595 54.3906 31.8047V0.460939C54.3906 0.206155 54.1845 0 53.9297 0Z" fill="#252525"/>
<path d="M53.9296 0H5.07031C4.81553 0 4.60938 0.206155 4.60938 0.460939C4.60938 0.715724 4.81553 0.921879 5.07031 0.921879H53.9296C54.1844 0.921879 54.3906 0.715724 54.3906 0.460939C54.3906 0.206155 54.1844 0 53.9296 0Z" fill="#252525"/>
<path d="M17.0547 27.6562H7.83594C7.58116 27.6562 7.375 27.8624 7.375 28.1172C7.375 28.372 7.58116 28.5781 7.83594 28.5781H17.0547C17.3095 28.5781 17.5157 28.372 17.5157 28.1172C17.5157 27.8624 17.3095 27.6562 17.0547 27.6562Z" fill="#252525"/>
<path d="M51.164 27.6562H28.1172C27.8624 27.6562 27.6562 27.8624 27.6562 28.1172C27.6562 28.372 27.8624 28.5781 28.1172 28.5781H51.164C51.4188 28.5781 51.625 28.372 51.625 28.1172C51.625 27.8624 51.4188 27.6562 51.164 27.6562Z" fill="#252525"/>
<path d="M51.164 13.8281H7.83594C7.58116 13.8281 7.375 14.0343 7.375 14.2891C7.375 14.5438 7.58116 14.75 7.83594 14.75H51.164C51.4188 14.75 51.6249 14.5438 51.6249 14.2891C51.6249 14.0343 51.4188 13.8281 51.164 13.8281Z" fill="#252525"/>
<path d="M2.30469 0.921875C1.54218 0.921875 0.921875 1.54218 0.921875 2.30469C0.921875 3.0672 1.54218 3.68751 2.30469 3.68751C3.0672 3.68751 3.68751 3.0672 3.68751 2.30469C3.68751 1.54218 3.0672 0.921875 2.30469 0.921875ZM2.30469 2.76563C2.05083 2.76563 1.84375 2.55855 1.84375 2.30469C1.84375 2.05083 2.05083 1.84375 2.30469 1.84375C2.55855 1.84375 2.76563 2.05083 2.76563 2.30469C2.76563 2.55855 2.55855 2.76563 2.30469 2.76563Z" fill="#252525"/>
<path d="M2.30469 10.1406C1.54218 10.1406 0.921875 10.7609 0.921875 11.5234C0.921875 12.286 1.54218 12.9063 2.30469 12.9063C3.0672 12.9063 3.68751 12.286 3.68751 11.5234C3.68751 10.7609 3.0672 10.1406 2.30469 10.1406ZM2.30469 11.9844C2.05083 11.9844 1.84375 11.7773 1.84375 11.5234C1.84375 11.2696 2.05083 11.0625 2.30469 11.0625C2.55855 11.0625 2.76563 11.2696 2.76563 11.5234C2.76563 11.7773 2.55855 11.9844 2.30469 11.9844Z" fill="#252525"/>
<path d="M2.30469 19.3594C1.54218 19.3594 0.921875 19.9797 0.921875 20.7422C0.921875 21.5047 1.54218 22.125 2.30469 22.125C3.0672 22.125 3.68751 21.5047 3.68751 20.7422C3.68751 19.9797 3.0672 19.3594 2.30469 19.3594ZM2.30469 21.2031C2.05083 21.2031 1.84375 20.9961 1.84375 20.7422C1.84375 20.4883 2.05083 20.2813 2.30469 20.2813C2.55855 20.2813 2.76563 20.4883 2.76563 20.7422C2.76563 20.9961 2.55855 21.2031 2.30469 21.2031Z" fill="#252525"/>
<path d="M2.30469 28.5781C1.54218 28.5781 0.921875 29.1984 0.921875 29.9609C0.921875 30.7235 1.54218 31.3438 2.30469 31.3438C3.0672 31.3438 3.68751 30.7235 3.68751 29.9609C3.68751 29.1984 3.0672 28.5781 2.30469 28.5781ZM2.30469 30.4219C2.05083 30.4219 1.84375 30.2148 1.84375 29.9609C1.84375 29.7071 2.05083 29.5 2.30469 29.5C2.55855 29.5 2.76563 29.7071 2.76563 29.9609C2.76563 30.2148 2.55855 30.4219 2.30469 30.4219Z" fill="#252525"/>
<path d="M56.6953 0.921875C55.9328 0.921875 55.3125 1.54218 55.3125 2.30469C55.3125 3.0672 55.9328 3.68751 56.6953 3.68751C57.4578 3.68751 58.0781 3.0672 58.0781 2.30469C58.0781 1.54218 57.4578 0.921875 56.6953 0.921875ZM56.6953 2.76563C56.4415 2.76563 56.2344 2.55855 56.2344 2.30469C56.2344 2.05083 56.4415 1.84375 56.6953 1.84375C56.9492 1.84375 57.1563 2.05083 57.1563 2.30469C57.1563 2.55855 56.9492 2.76563 56.6953 2.76563Z" fill="#252525"/>
<path d="M56.6953 10.1406C55.9328 10.1406 55.3125 10.7609 55.3125 11.5234C55.3125 12.286 55.9328 12.9063 56.6953 12.9063C57.4578 12.9063 58.0781 12.286 58.0781 11.5234C58.0781 10.7609 57.4578 10.1406 56.6953 10.1406ZM56.6953 11.9844C56.4415 11.9844 56.2344 11.7773 56.2344 11.5234C56.2344 11.2696 56.4415 11.0625 56.6953 11.0625C56.9492 11.0625 57.1563 11.2696 57.1563 11.5234C57.1563 11.7773 56.9492 11.9844 56.6953 11.9844Z" fill="#252525"/>
<path d="M56.6953 19.3594C55.9328 19.3594 55.3125 19.9797 55.3125 20.7422C55.3125 21.5047 55.9328 22.125 56.6953 22.125C57.4578 22.125 58.0781 21.5047 58.0781 20.7422C58.0781 19.9797 57.4578 19.3594 56.6953 19.3594ZM56.6953 21.2031C56.4415 21.2031 56.2344 20.9961 56.2344 20.7422C56.2344 20.4883 56.4415 20.2813 56.6953 20.2813C56.9492 20.2813 57.1563 20.4883 57.1563 20.7422C57.1563 20.9961 56.9492 21.2031 56.6953 21.2031Z" fill="#252525"/>
<path d="M56.6953 28.5781C55.9328 28.5781 55.3125 29.1984 55.3125 29.9609C55.3125 30.7235 55.9328 31.3438 56.6953 31.3438C57.4578 31.3438 58.0781 30.7235 58.0781 29.9609C58.0781 29.1984 57.4578 28.5781 56.6953 28.5781ZM56.6953 30.4219C56.4415 30.4219 56.2344 30.2148 56.2344 29.9609C56.2344 29.7071 56.4415 29.5 56.6953 29.5C56.9492 29.5 57.1563 29.7071 57.1563 29.9609C57.1563 30.2148 56.9492 30.4219 56.6953 30.4219Z" fill="#252525"/>
<path d="M29.0391 29.5C28.7843 29.5 28.5781 29.7062 28.5781 29.9609V32.7266C28.5781 32.9814 28.7843 33.1875 29.0391 33.1875C29.2938 33.1875 29.5 32.9814 29.5 32.7266V29.9609C29.5 29.7062 29.2938 29.5 29.0391 29.5Z" fill="#252525"/>
<path d="M31.8047 32.2656H29.0391C28.7843 32.2656 28.5781 32.4718 28.5781 32.7266C28.5781 32.9813 28.7843 33.1875 29.0391 33.1875H31.8047C32.0595 33.1875 32.2656 32.9813 32.2656 32.7266C32.2656 32.4718 32.0595 32.2656 31.8047 32.2656Z" fill="#252525"/>
<path d="M31.8047 29.5C31.5499 29.5 31.3438 29.7062 31.3438 29.9609V32.7266C31.3438 32.9814 31.5499 33.1875 31.8047 33.1875C32.0595 33.1875 32.2656 32.9814 32.2656 32.7266V29.9609C32.2656 29.7062 32.0595 29.5 31.8047 29.5Z" fill="#252525"/>
<path d="M31.8047 29.5H29.0391C28.7843 29.5 28.5781 29.7062 28.5781 29.9609C28.5781 30.2157 28.7843 30.4219 29.0391 30.4219H31.8047C32.0595 30.4219 32.2656 30.2157 32.2656 29.9609C32.2656 29.7062 32.0595 29.5 31.8047 29.5Z" fill="#252525"/>
<path d="M39.1797 21.3435C38.9249 21.3435 38.7188 21.5497 38.7188 21.8044V28.1171C38.7188 28.3719 38.9249 28.5781 39.1797 28.5781C39.4345 28.5781 39.6406 28.3719 39.6406 28.1171V21.8044C39.6406 21.5497 39.4345 21.3435 39.1797 21.3435Z" fill="#252525"/>
<path d="M40.1016 16.5938C39.8468 16.5938 39.6406 16.7999 39.6406 17.0547V19.8203C39.6406 20.0751 39.8468 20.2813 40.1016 20.2813C40.3563 20.2813 40.5625 20.0751 40.5625 19.8203V17.0547C40.5625 16.7999 40.3563 16.5938 40.1016 16.5938Z" fill="#252525"/>
<path d="M42.8672 21.3435C42.6124 21.3435 42.4062 21.5497 42.4062 21.8044V28.1171C42.4062 28.3719 42.6124 28.5781 42.8672 28.5781C43.122 28.5781 43.3281 28.3719 43.3281 28.1171V21.8044C43.3281 21.5497 43.122 21.3435 42.8672 21.3435Z" fill="#252525"/>
<path d="M42.4879 19.7123C42.4258 19.6483 42.3672 19.589 42.3186 19.5295C42.1575 19.3297 41.8667 19.3035 41.6704 19.4629C41.4723 19.624 41.4427 19.9139 41.6038 20.1111C41.6678 20.1904 41.7443 20.2695 41.8253 20.3533C42.1107 20.6477 42.406 20.9529 42.406 21.6641C42.406 21.9189 42.6121 22.125 42.8669 22.125C43.1217 22.125 43.3278 21.9189 43.3278 21.6641C43.3278 20.5793 42.8218 20.0572 42.4879 19.7123Z" fill="#252525"/>
<path d="M40.3762 19.4629C40.1799 19.3035 39.8891 19.3297 39.728 19.5295C39.6793 19.589 39.6208 19.6483 39.5587 19.7123C39.2247 20.057 38.7188 20.5792 38.7188 21.664C38.7188 21.9188 38.9249 22.1249 39.1797 22.1249C39.4345 22.1249 39.6406 21.9188 39.6406 21.664C39.6406 20.9528 39.9359 20.6476 40.2213 20.3533C40.3023 20.2695 40.3788 20.1904 40.4428 20.1111C40.604 19.9139 40.5743 19.624 40.3762 19.4629Z" fill="#252525"/>
<path d="M41.9453 16.5938C41.6905 16.5938 41.4844 16.7999 41.4844 17.0547V19.8203C41.4844 20.0751 41.6905 20.2813 41.9453 20.2813C42.2001 20.2813 42.4063 20.0751 42.4063 19.8203V17.0547C42.4063 16.7999 42.2001 16.5938 41.9453 16.5938Z" fill="#252525"/>
<path d="M42.8672 22.125H39.1797C38.9249 22.125 38.7188 22.3312 38.7188 22.5859C38.7188 22.8407 38.9249 23.0469 39.1797 23.0469H42.8672C43.122 23.0469 43.3281 22.8407 43.3281 22.5859C43.3281 22.3312 43.122 22.125 42.8672 22.125Z" fill="#252525"/>
<path d="M42.8672 25.8125H39.1797C38.9249 25.8125 38.7188 26.0187 38.7188 26.2734C38.7188 26.5282 38.9249 26.7344 39.1797 26.7344H42.8672C43.122 26.7344 43.3281 26.5282 43.3281 26.2734C43.3281 26.0187 43.122 25.8125 42.8672 25.8125Z" fill="#252525"/>
<path d="M41.9453 16.5938H40.1016C39.8468 16.5938 39.6406 16.7999 39.6406 17.0547C39.6406 17.3095 39.8468 17.5156 40.1016 17.5156H41.9453C42.2001 17.5156 42.4063 17.3095 42.4063 17.0547C42.4063 16.7999 42.2001 16.5938 41.9453 16.5938Z" fill="#252525"/>
<path d="M41.9453 18.4375H40.1016C39.8468 18.4375 39.6406 18.6437 39.6406 18.8984C39.6406 19.1532 39.8468 19.3594 40.1016 19.3594H41.9453C42.2001 19.3594 42.4063 19.1532 42.4063 18.8984C42.4063 18.6437 42.2001 18.4375 41.9453 18.4375Z" fill="#252525"/>
<path d="M41.945 23.9688H40.085C39.8302 23.9688 39.624 24.1749 39.624 24.4297C39.624 24.6845 39.8302 24.8906 40.085 24.8906H41.945C42.1998 24.8906 42.4059 24.6845 42.4059 24.4297C42.4059 24.1749 42.1998 23.9688 41.945 23.9688Z" fill="#252525"/>
<path d="M14.2891 7.5155C14.0343 7.5155 13.8281 7.72166 13.8281 7.97644V14.2891C13.8281 14.5439 14.0343 14.7501 14.2891 14.7501C14.5438 14.7501 14.75 14.5439 14.75 14.2891V7.97644C14.75 7.72166 14.5438 7.5155 14.2891 7.5155Z" fill="#252525"/>
<path d="M15.6719 2.76562C15.4171 2.76562 15.2109 2.97178 15.2109 3.22656V5.9922C15.2109 6.24698 15.4171 6.45314 15.6719 6.45314C15.9267 6.45314 16.1328 6.24698 16.1328 5.9922V3.22656C16.1328 2.97178 15.9267 2.76562 15.6719 2.76562Z" fill="#252525"/>
<path d="M18.8984 7.5155C18.6437 7.5155 18.4375 7.72166 18.4375 7.97644V14.2891C18.4375 14.5439 18.6437 14.7501 18.8984 14.7501C19.1532 14.7501 19.3594 14.5439 19.3594 14.2891V7.97644C19.3594 7.72166 19.1532 7.5155 18.8984 7.5155Z" fill="#252525"/>
<path d="M18.1761 5.93191C18.0618 5.84813 17.9321 5.75456 17.8889 5.70144C17.7278 5.50254 17.4379 5.47546 17.2407 5.63483C17.0426 5.79593 17.013 6.08586 17.1741 6.28303C17.2929 6.42892 17.4586 6.54957 17.6341 6.67736C18.1041 7.01949 18.4372 7.30309 18.4372 7.83605C18.4372 8.09083 18.6434 8.29699 18.8981 8.29699C19.1529 8.29699 19.3591 8.09083 19.3591 7.83605C19.3591 6.7926 18.6192 6.25422 18.1761 5.93191Z" fill="#252525"/>
<path d="M15.9464 5.63487C15.7492 5.4755 15.4593 5.50247 15.2982 5.70148C15.255 5.7546 15.1253 5.84817 15.011 5.93195C14.5682 6.25414 13.8281 6.79252 13.8281 7.83597C13.8281 8.09075 14.0343 8.29691 14.2891 8.29691C14.5438 8.29691 14.75 8.09075 14.75 7.83609C14.75 7.30312 15.083 7.01953 15.553 6.6774C15.7285 6.54949 15.8942 6.42895 16.013 6.28307C16.1742 6.0859 16.1445 5.79597 15.9464 5.63487Z" fill="#252525"/>
<path d="M17.5156 2.76562C17.2608 2.76562 17.0547 2.97178 17.0547 3.22656V5.9922C17.0547 6.24698 17.2608 6.45314 17.5156 6.45314C17.7704 6.45314 17.9766 6.24698 17.9766 5.9922V3.22656C17.9766 2.97178 17.7704 2.76562 17.5156 2.76562Z" fill="#252525"/>
<path d="M18.8985 8.29688H14.2891C14.0343 8.29688 13.8281 8.50303 13.8281 8.75781C13.8281 9.0126 14.0343 9.21875 14.2891 9.21875H18.8985C19.1532 9.21875 19.3594 9.0126 19.3594 8.75781C19.3594 8.50303 19.1532 8.29688 18.8985 8.29688Z" fill="#252525"/>
<path d="M18.8985 11.9844H14.2891C14.0343 11.9844 13.8281 12.1905 13.8281 12.4453C13.8281 12.7001 14.0343 12.9063 14.2891 12.9063H18.8985C19.1532 12.9063 19.3594 12.7001 19.3594 12.4453C19.3594 12.1905 19.1532 11.9844 18.8985 11.9844Z" fill="#252525"/>
<path d="M17.5156 2.76562H15.6719C15.4171 2.76562 15.2109 2.97178 15.2109 3.22656C15.2109 3.48135 15.4171 3.6875 15.6719 3.6875H17.5156C17.7704 3.6875 17.9766 3.48135 17.9766 3.22656C17.9766 2.97178 17.7704 2.76562 17.5156 2.76562Z" fill="#252525"/>
<path d="M17.5156 4.60938H15.6719C15.4171 4.60938 15.2109 4.81553 15.2109 5.07031C15.2109 5.3251 15.4171 5.53125 15.6719 5.53125H17.5156C17.7704 5.53125 17.9766 5.3251 17.9766 5.07031C17.9766 4.81553 17.7704 4.60938 17.5156 4.60938Z" fill="#252525"/>
<path d="M16.5938 9.21875C15.8312 9.21875 15.2109 9.83906 15.2109 10.6016C15.2109 11.3641 15.8312 11.9844 16.5938 11.9844C17.3564 11.9844 17.9766 11.3641 17.9766 10.6016C17.9766 9.83906 17.3563 9.21875 16.5938 9.21875ZM16.5938 11.0625C16.3399 11.0625 16.1328 10.8554 16.1328 10.6016C16.1328 10.3477 16.3399 10.1406 16.5938 10.1406C16.8477 10.1406 17.0547 10.3477 17.0547 10.6016C17.0547 10.8554 16.8476 11.0625 16.5938 11.0625Z" fill="#252525"/>
<path d="M32.2656 5.07032V3.22656C32.2656 2.97178 32.0595 2.76562 31.8047 2.76562C31.5499 2.76562 31.3438 2.97178 31.3438 3.22656V5.07032C31.3438 5.53299 31.0961 5.93631 30.8567 6.32615C30.6325 6.68983 30.4219 7.03381 30.4219 7.4218C30.4219 7.71173 30.4984 8.19157 30.5956 8.79932C30.7118 9.52495 30.8559 10.4289 30.8559 11.0275C30.8559 11.6181 30.718 12.1609 30.5956 12.6389C30.5029 13.0062 30.4219 13.3231 30.4219 13.6022C30.4219 14.3269 30.7414 14.6024 30.8396 14.669C30.9251 14.7276 31.0269 14.7572 31.1277 14.7572C31.2753 14.7572 31.4193 14.6951 31.5047 14.5699C31.6488 14.3602 31.619 14.0937 31.4093 13.9505C31.4084 13.9497 31.3436 13.8615 31.3436 13.6022C31.3436 13.4383 31.4149 13.1601 31.4895 12.8657C31.6173 12.3616 31.7776 11.7341 31.7776 11.0274C31.7776 10.3558 31.6336 9.45189 31.5058 8.65424C31.4221 8.13211 31.3438 7.63879 31.3438 7.4218C31.3438 7.29401 31.5022 7.03657 31.6418 6.80875C31.9199 6.3568 32.2656 5.79411 32.2656 5.07032Z" fill="#252525"/>
<path d="M34.5973 11.0274C34.5973 10.4287 34.7413 9.52484 34.8575 8.7992C34.9547 8.19157 35.0313 7.71173 35.0313 7.4218C35.0313 7.03381 34.8206 6.68983 34.5965 6.32615C34.3569 5.93643 34.1094 5.5331 34.1094 5.07032V3.22656C34.1094 2.97178 33.9032 2.76562 33.6484 2.76562C33.3937 2.76562 33.1875 2.97178 33.1875 3.22656V5.07032C33.1875 5.79411 33.5332 6.3568 33.8114 6.80875C33.9509 7.03646 34.1094 7.29401 34.1094 7.4218C34.1094 7.63879 34.031 8.13211 33.9471 8.65424C33.8193 9.45189 33.6753 10.3558 33.6753 11.0274C33.6753 11.7341 33.8356 12.3616 33.9634 12.8657C34.0382 13.1601 34.1093 13.4383 34.1093 13.6022C34.1093 13.8228 34.0625 13.92 34.0481 13.9443C33.8761 14.0955 33.8402 14.3557 33.9734 14.5493C34.0626 14.6799 34.2066 14.75 34.3533 14.75C34.4433 14.75 34.5344 14.7239 34.6135 14.6689C34.7117 14.6023 35.0313 14.3268 35.0313 13.6021C35.0313 13.3231 34.9502 13.0062 34.8575 12.6388C34.735 12.1608 34.5973 11.618 34.5973 11.0274Z" fill="#252525"/>
<path d="M33.6484 2.76562H31.8047C31.5499 2.76562 31.3438 2.97178 31.3438 3.22656C31.3438 3.48135 31.5499 3.6875 31.8047 3.6875H33.6484C33.9032 3.6875 34.1094 3.48135 34.1094 3.22656C34.1094 2.97178 33.9032 2.76562 33.6484 2.76562Z" fill="#252525"/>
<path d="M33.6484 4.60938H31.8047C31.5499 4.60938 31.3438 4.81553 31.3438 5.07031C31.3438 5.3251 31.5499 5.53125 31.8047 5.53125H33.6484C33.9032 5.53125 34.1094 5.3251 34.1094 5.07031C34.1094 4.81553 33.9032 4.60938 33.6484 4.60938Z" fill="#252525"/>
<path d="M32.7266 7.375C32.4718 7.375 32.2656 7.58116 32.2656 7.83594V8.75782C32.2656 9.0126 32.4718 9.21876 32.7266 9.21876C32.9813 9.21876 33.1875 9.0126 33.1875 8.75782V7.83594C33.1875 7.58116 32.9813 7.375 32.7266 7.375Z" fill="#252525"/>
<path d="M33.6484 7.375H31.8047C31.5499 7.375 31.3438 7.58116 31.3438 7.83594C31.3438 8.09072 31.5499 8.29688 31.8047 8.29688H33.6484C33.9032 8.29688 34.1094 8.09072 34.1094 7.83594C34.1094 7.58116 33.9032 7.375 33.6484 7.375Z" fill="#252525"/>
<path d="M32.7266 10.1406C32.4718 10.1406 32.2656 10.3468 32.2656 10.6016V12.4453C32.2656 12.7001 32.4718 12.9063 32.7266 12.9063C32.9813 12.9063 33.1875 12.7001 33.1875 12.4453V10.6016C33.1875 10.3468 32.9813 10.1406 32.7266 10.1406Z" fill="#252525"/>
</g>
<defs>
<clipPath id="clip0">
<rect width="59" height="59" fill="white"/>
</clipPath>
</defs>
</svg>
