<svg width="82" height="81" viewBox="0 0 82 81" fill="none" xmlns="http://www.w3.org/2000/svg">
<path d="M72.3907 31.0076H9.60947C9.25531 31.0076 8.96875 31.2908 8.96875 31.6405V34.1718C8.96875 34.5215 9.25531 34.8046 9.60947 34.8046H72.3907C72.7447 34.8046 73.0312 34.5216 73.0312 34.1718V31.6405C73.0312 31.2906 72.7447 31.0076 72.3907 31.0076ZM71.75 33.539H10.25V32.2734H71.75V33.539Z" fill="#252525"/>
<path d="M10.8907 34.8047C10.5366 34.8047 10.25 35.0878 10.25 35.4376V69.6093C10.25 69.9592 10.5367 70.2422 10.8907 70.2422C11.2447 70.2422 11.5313 69.9591 11.5314 69.6091V35.4376C11.5314 35.0878 11.2449 34.8047 10.8907 34.8047Z" fill="#252525"/>
<path d="M13.4531 34.8047C13.0991 34.8047 12.8125 35.0878 12.8125 35.4376V69.6093C12.8125 69.9592 13.0991 70.2422 13.4531 70.2422C13.8072 70.2422 14.0938 69.9591 14.0938 69.6091V35.4376C14.0938 35.0878 13.8072 34.8047 13.4531 34.8047Z" fill="#252525"/>
<path d="M13.4533 68.9766H10.8907C10.5366 68.9766 10.25 69.2596 10.25 69.6092C10.25 69.959 10.5367 70.2421 10.8907 70.2421H13.4531C13.8073 70.2421 14.0939 69.959 14.094 69.6092C14.094 69.2596 13.8074 68.9766 13.4533 68.9766Z" fill="#252525"/>
<path d="M71.1093 34.8047C70.7552 34.8047 70.4688 35.0878 70.4688 35.4376V69.6093C70.4688 69.9592 70.7552 70.2422 71.1093 70.2422C71.4635 70.2422 71.75 69.9591 71.75 69.6091V35.4376C71.75 35.0878 71.4635 34.8047 71.1093 34.8047Z" fill="#252525"/>
<path d="M68.547 34.8047C68.1928 34.8047 67.9062 35.0878 67.9062 35.4376V69.6093C67.9062 69.9592 68.1928 70.2422 68.547 70.2422C68.901 70.2422 69.1875 69.9591 69.1875 69.6091V35.4376C69.1875 35.0878 68.901 34.8047 68.547 34.8047Z" fill="#252525"/>
<path d="M71.1094 68.9766H68.547C68.1928 68.9766 67.9062 69.2596 67.9062 69.6092C67.9062 69.959 68.1928 70.2421 68.547 70.2421H71.1094C71.4635 70.2421 71.7501 69.959 71.7501 69.6092C71.7501 69.2596 71.4635 68.9766 71.1094 68.9766Z" fill="#252525"/>
<path d="M67.2656 39.8672H14.7345C14.3803 39.8672 14.0938 40.1503 14.0938 40.5001C14.0938 40.8499 14.3803 41.133 14.7345 41.133H67.2657C67.6199 41.133 67.9063 40.8499 67.9061 40.5001C67.9061 40.1503 67.6197 39.8672 67.2656 39.8672Z" fill="#252525"/>
<path d="M3.20306 25.9453C2.84906 25.9453 2.5625 26.2285 2.5625 26.5782V69.6092C2.5625 69.9591 2.84906 70.2421 3.20306 70.2421C3.55722 70.2421 3.84378 69.9591 3.84378 69.6092V26.5782C3.84378 26.2284 3.55722 25.9453 3.20306 25.9453Z" fill="#252525"/>
<path d="M21.1407 49C20.7866 49 20.5 49.2969 20.5 49.6639V69.5782C20.5 69.9452 20.7867 70.2421 21.1407 70.2421C21.4947 70.2421 21.7814 69.9452 21.7814 69.5781V49.6639C21.7814 49.2969 21.4949 49 21.1407 49Z" fill="#252525"/>
<path d="M0.640723 23.4141C0.286563 23.4141 0 23.6971 0 24.0468V69.6091C0 69.959 0.286563 70.242 0.640723 70.242C0.994882 70.242 1.28128 69.959 1.28128 69.6091V24.0468C1.28128 23.6971 0.994722 23.4141 0.640723 23.4141Z" fill="#252525"/>
<path d="M3.20313 68.9766H0.640723C0.286563 68.9766 0 69.2596 0 69.6092C0 69.959 0.286563 70.2421 0.640723 70.2421H3.20313C3.55729 70.2421 3.84386 69.959 3.84386 69.6092C3.84386 69.2596 3.55729 68.9766 3.20313 68.9766Z" fill="#252525"/>
<path d="M8.32817 52.5234H4.48447C4.13031 52.5234 3.84375 52.8065 3.84375 53.1564C3.84375 53.5062 4.13031 53.7889 4.48447 53.7889H8.32817C8.68233 53.7889 8.96889 53.5062 8.96889 53.1564C8.96889 52.8065 8.68233 52.5234 8.32817 52.5234Z" fill="#252525"/>
<path d="M18.5781 52.5234C18.2239 52.5234 17.9375 52.8065 17.9375 53.1563V69.6093C17.9375 69.9591 18.2239 70.2422 18.5781 70.2422C18.9322 70.2422 19.2188 69.9591 19.2188 69.6091V53.1563C19.2188 52.8065 18.9322 52.5234 18.5781 52.5234Z" fill="#252525"/>
<path d="M21.1406 68.9766H18.5781C18.2239 68.9766 17.9375 69.2596 17.9375 69.6092C17.9375 69.959 18.2239 70.2421 18.5781 70.2421H21.1406C21.4946 70.2421 21.7814 69.959 21.7814 69.6092C21.7814 69.2596 21.4946 68.9766 21.1406 68.9766Z" fill="#252525"/>
<path d="M19.8595 47.4609C19.5053 47.4609 19.2188 47.7437 19.2188 48.0935C19.2188 48.4434 19.5053 48.7264 19.8595 48.7264C20.213 48.7264 20.5 49.0108 20.5 49.3594C20.5 49.7089 20.7868 49.9919 21.1408 49.9919C21.4948 49.9919 21.7815 49.7089 21.7813 49.3594C21.7813 48.3124 20.9192 47.4609 19.8595 47.4609Z" fill="#252525"/>
<path d="M8.32817 47.4609H4.48447C4.13031 47.4609 3.84375 47.7437 3.84375 48.0935C3.84375 48.4434 4.13031 48.7264 4.48447 48.7264H8.32817C8.68233 48.7264 8.96889 48.4434 8.96889 48.0935C8.96889 47.7437 8.68233 47.4609 8.32817 47.4609Z" fill="#252525"/>
<path d="M18.5783 52.5234H16.0157C15.6616 52.5234 15.375 52.8065 15.375 53.1564C15.375 53.5062 15.6617 53.7889 16.0157 53.7889H18.5783C18.9325 53.7889 19.219 53.5062 19.219 53.1564C19.219 52.8065 18.9325 52.5234 18.5783 52.5234Z" fill="#252525"/>
<path d="M19.8596 47.4609H16.0157C15.6616 47.4609 15.375 47.7437 15.375 48.0935C15.375 48.4434 15.6617 48.7264 16.0157 48.7264H19.8596C20.2136 48.7264 20.5001 48.4434 20.5001 48.0935C20.5001 47.7437 20.2136 47.4609 19.8596 47.4609Z" fill="#252525"/>
<path d="M78.7968 25.9453C78.4428 25.9453 78.1562 26.2285 78.1562 26.5782V69.6092C78.1562 69.9591 78.4428 70.2421 78.7968 70.2421C79.151 70.2421 79.4375 69.9591 79.4375 69.6092V26.5782C79.4375 26.2284 79.151 25.9453 78.7968 25.9453Z" fill="#252525"/>
<path d="M60.8593 49C60.5053 49 60.2188 49.2969 60.2188 49.6639V69.5782C60.2188 69.9452 60.5053 70.2421 60.8593 70.2421C61.2135 70.2421 61.5 69.9452 61.5 69.5781V49.6639C61.5 49.2969 61.2135 49 60.8593 49Z" fill="#252525"/>
<path d="M81.3593 23.4141C81.0052 23.4141 80.7188 23.6971 80.7188 24.0468V69.6091C80.7188 69.959 81.0052 70.242 81.3593 70.242C81.7135 70.242 82 69.959 82 69.6091V24.0468C82 23.6971 81.7135 23.4141 81.3593 23.4141Z" fill="#252525"/>
<path d="M81.3594 68.9766H78.7968C78.4428 68.9766 78.1562 69.2596 78.1562 69.6092C78.1562 69.959 78.4428 70.2421 78.7968 70.2421H81.3594C81.7135 70.2421 82.0001 69.959 82.0001 69.6092C82.0001 69.2596 81.7135 68.9766 81.3594 68.9766Z" fill="#252525"/>
<path d="M77.5157 52.5234H73.672C73.3178 52.5234 73.0312 52.8065 73.0312 53.1564C73.0312 53.5062 73.3178 53.7889 73.672 53.7889H77.5157C77.8698 53.7889 78.1562 53.5062 78.1562 53.1564C78.1562 52.8065 77.8698 52.5234 77.5157 52.5234Z" fill="#252525"/>
<path d="M63.422 52.5234C63.0678 52.5234 62.7812 52.8065 62.7812 53.1563V69.6093C62.7812 69.9591 63.0678 70.2422 63.422 70.2422C63.776 70.2422 64.0625 69.9591 64.0625 69.6091V53.1563C64.0625 52.8065 63.7761 52.5234 63.422 52.5234Z" fill="#252525"/>
<path d="M63.4219 68.9766H60.8593C60.5053 68.9766 60.2188 69.2596 60.2188 69.6092C60.2188 69.959 60.5053 70.2421 60.8593 70.2421H63.422C63.776 70.2421 64.0626 69.959 64.0624 69.6092C64.0624 69.2596 63.776 68.9766 63.4219 68.9766Z" fill="#252525"/>
<path d="M62.1406 47.4609C61.0808 47.4609 60.2188 48.3124 60.2188 49.3594C60.2188 49.7089 60.5053 49.9919 60.8593 49.9919C61.2135 49.9919 61.5 49.7089 61.5 49.3594C61.5 49.0108 61.7877 48.7264 62.1406 48.7264C62.4948 48.7264 62.7812 48.4434 62.7812 48.0935C62.7812 47.7437 62.4948 47.4609 62.1406 47.4609Z" fill="#252525"/>
<path d="M77.5157 47.4609H73.672C73.3178 47.4609 73.0312 47.7437 73.0312 48.0935C73.0312 48.4434 73.3178 48.7264 73.672 48.7264H77.5157C77.8698 48.7264 78.1562 48.4434 78.1562 48.0935C78.1562 47.7437 77.8698 47.4609 77.5157 47.4609Z" fill="#252525"/>
<path d="M65.9844 52.5234H63.422C63.0678 52.5234 62.7812 52.8065 62.7812 53.1564C62.7812 53.5062 63.0678 53.7889 63.422 53.7889H65.9844C66.3385 53.7889 66.6249 53.5062 66.6249 53.1564C66.6249 52.8065 66.3385 52.5234 65.9844 52.5234Z" fill="#252525"/>
<path d="M65.9843 47.4609H62.1406C61.7864 47.4609 61.5 47.7437 61.5 48.0935C61.5 48.4434 61.7864 48.7264 62.1406 48.7264H65.9843C66.3384 48.7264 66.6248 48.4434 66.6248 48.0935C66.6248 47.7437 66.3384 47.4609 65.9843 47.4609Z" fill="#252525"/>
<path d="M0.640723 23.4141C0.286563 23.4141 0 23.6971 0 24.0468C0 24.3967 0.286563 24.6797 0.640723 24.6797C1.70048 24.6797 2.56257 25.5313 2.56257 26.5781C2.56257 26.928 2.84913 27.211 3.20313 27.211C3.55729 27.211 3.84386 26.928 3.84386 26.5781C3.84386 24.8329 2.40671 23.4141 0.640723 23.4141Z" fill="#252525"/>
<path d="M81.3594 23.4141C79.5927 23.4141 78.1562 24.8329 78.1562 26.5781C78.1562 26.928 78.4428 27.211 78.7968 27.211C79.151 27.211 79.4375 26.928 79.4375 26.5781C79.4375 25.5313 80.2996 24.6797 81.3594 24.6797C81.7135 24.6797 82.0001 24.3967 82.0001 24.0468C82.0001 23.6971 81.7135 23.4141 81.3594 23.4141Z" fill="#252525"/>
<path d="M27.5468 25.9451H12.1718C11.8178 25.9451 11.5312 26.2281 11.5312 26.578C11.5312 26.9278 11.8178 27.2109 12.1718 27.2109H27.5469C27.9011 27.2109 28.1875 26.9278 28.1875 26.578C28.1875 26.2281 27.9009 25.9451 27.5468 25.9451Z" fill="#252525"/>
<path d="M14.7345 28.4766C14.3808 28.4766 14.0938 28.1923 14.0938 27.8437C14.0938 27.494 13.8072 27.2109 13.4531 27.2109C13.0991 27.2109 12.8125 27.494 12.8125 27.8437C12.8125 28.8907 13.6746 29.7423 14.7343 29.7423C15.0885 29.7423 15.3751 29.4592 15.3751 29.1093C15.3751 28.7595 15.0885 28.4766 14.7345 28.4766Z" fill="#252525"/>
<path d="M26.2658 27.2109C25.9116 27.2109 25.625 27.494 25.625 27.8437C25.625 28.1923 25.3378 28.4766 24.9845 28.4766C24.6303 28.4766 24.3438 28.7595 24.3438 29.1093C24.3438 29.4592 24.6303 29.7423 24.9845 29.7423C26.0442 29.7423 26.9063 28.8905 26.9065 27.8437C26.9065 27.494 26.6199 27.2109 26.2658 27.2109Z" fill="#252525"/>
<path d="M24.9844 28.4766H14.7345C14.3803 28.4766 14.0938 28.7595 14.0938 29.1093C14.0938 29.4592 14.3803 29.7422 14.7345 29.7422H24.9844C25.3384 29.7422 25.625 29.4592 25.625 29.1093C25.625 28.7595 25.3384 28.4766 24.9844 28.4766Z" fill="#252525"/>
<path d="M69.8282 25.9451H54.4531C54.0991 25.9451 53.8125 26.2281 53.8125 26.578C53.8125 26.9278 54.0991 27.2109 54.4531 27.2109H69.8282C70.1822 27.2109 70.4687 26.9278 70.4687 26.578C70.4687 26.2281 70.1822 25.9451 69.8282 25.9451Z" fill="#252525"/>
<path d="M57.0156 28.4766C56.6627 28.4766 56.375 28.1923 56.375 27.8437C56.375 27.494 56.0885 27.2109 55.7343 27.2109C55.3803 27.2109 55.0938 27.494 55.0938 27.8437C55.0938 28.8907 55.9558 29.7423 57.0156 29.7423C57.3698 29.7423 57.6563 29.4592 57.6563 29.1093C57.6563 28.7595 57.3698 28.4766 57.0156 28.4766Z" fill="#252525"/>
<path d="M68.547 27.2109C68.1928 27.2109 67.9063 27.494 67.9063 27.8437C67.9063 28.1923 67.6186 28.4766 67.2657 28.4766C66.9116 28.4766 66.625 28.7595 66.625 29.1093C66.625 29.4592 66.9116 29.7423 67.2657 29.7423C68.3255 29.7423 69.1876 28.8905 69.1876 27.8437C69.1876 27.494 68.901 27.2109 68.547 27.2109Z" fill="#252525"/>
<path d="M67.2655 28.4766H57.0156C56.6614 28.4766 56.375 28.7595 56.375 29.1093C56.375 29.4592 56.6614 29.7422 57.0156 29.7422H67.2655C67.6197 29.7422 67.9061 29.4592 67.9061 29.1093C67.9061 28.7595 67.6197 28.4766 67.2655 28.4766Z" fill="#252525"/>
<path d="M44.6836 18.5653C44.5609 18.4294 44.3869 18.3516 44.2032 18.3516H37.7969C37.6129 18.3516 37.4385 18.4294 37.3164 18.5653C37.1951 18.7012 37.1381 18.8829 37.1613 19.0634L38.4426 29.1884C38.4827 29.5048 38.7553 29.7422 39.0782 29.7422H42.9219C43.2448 29.7422 43.5176 29.5048 43.5575 29.1884L44.8388 19.0634C44.8612 18.8829 44.805 18.7012 44.6836 18.5653ZM42.3563 28.4765H39.6437L38.5226 19.6171H43.4776L42.3563 28.4765Z" fill="#252525"/>
<path d="M44.5862 11.8046C44.2022 11.2423 43.5328 11.1175 42.8872 10.9952L42.4017 10.8988C42.0539 10.8271 41.7254 10.7578 41.4015 10.7578C40.5179 10.7578 39.9637 11.2806 39.7535 12.3114C39.5914 13.1075 39.6784 13.9095 39.9975 14.572C40.3416 15.2852 40.9384 15.7733 41.6328 15.9117C41.7717 15.939 41.9112 15.9526 42.0501 15.9526C43.3176 15.9526 44.4661 14.8413 44.7789 13.3089C44.9066 12.676 44.8439 12.1841 44.5862 11.8046ZM43.5228 13.0605C43.32 14.0505 42.5892 14.8155 41.886 14.6709C41.4808 14.5905 41.2536 14.2334 41.1542 14.0282C40.9559 13.6167 40.9033 13.0826 41.0097 12.5611C41.1191 12.0235 41.2437 12.0235 41.4013 12.0235C41.5913 12.0235 41.8561 12.079 42.1358 12.1372L42.6467 12.2387C42.9996 12.3054 43.4377 12.3869 43.5228 12.5118C43.5652 12.5724 43.5852 12.7489 43.5228 13.0605Z" fill="#252525"/>
<path d="M41.8858 14.6711C41.5411 14.6018 41.2015 14.8243 41.1314 15.1667L40.6259 17.6485C40.5565 17.9907 40.7811 18.3244 41.1277 18.3937C41.1703 18.4024 41.2128 18.406 41.2547 18.406C41.5536 18.406 41.8208 18.1983 41.8822 17.8981L42.3875 15.4163C42.4564 15.0739 42.2325 14.7404 41.8858 14.6711Z" fill="#252525"/>
</svg>
