<svg width="67" height="67" viewBox="0 0 67 67" fill="none" xmlns="http://www.w3.org/2000/svg">
<path d="M0.523488 7.32861C0.234175 7.32861 0 7.56266 0 7.85197V17.274C0 17.5633 0.234175 17.7973 0.523488 17.7973C0.812801 17.7973 1.04684 17.5631 1.04684 17.2738V7.85197C1.04684 7.56266 0.812801 7.32861 0.523488 7.32861Z" fill="#252525"/>
<path d="M2.61724 7.32861C2.32792 7.32861 2.09375 7.56266 2.09375 7.85197V16.227C2.09375 16.5163 2.32792 16.7503 2.61724 16.7503C2.90655 16.7503 3.14059 16.5163 3.14059 16.227V7.85197C3.14059 7.56266 2.90655 7.32861 2.61724 7.32861Z" fill="#252525"/>
<path d="M4.71099 7.32861C4.42167 7.32861 4.1875 7.56266 4.1875 7.85197V16.227C4.1875 16.5163 4.42167 16.7503 4.71099 16.7503C5.0003 16.7503 5.23448 16.5163 5.23448 16.227V7.85197C5.23448 7.56266 5.0003 7.32861 4.71099 7.32861Z" fill="#252525"/>
<path d="M6.80474 7.32861C6.51542 7.32861 6.28125 7.56266 6.28125 7.85197V17.274C6.28125 17.5633 6.51542 17.7973 6.80474 17.7973C7.09405 17.7973 7.32823 17.5631 7.32823 17.2738V7.85197C7.32823 7.56266 7.09405 7.32861 6.80474 7.32861Z" fill="#252525"/>
<path d="M6.80468 16.7502C6.51537 16.7502 6.2812 16.9844 6.2812 17.2737C6.2812 18.7166 5.10705 19.8908 3.66402 19.8908C2.22099 19.8908 1.04684 18.7168 1.04684 17.2737C1.04684 16.9844 0.812801 16.7502 0.523488 16.7502C0.234175 16.7502 0 16.9844 0 17.2737C0 19.2938 1.64394 20.9378 3.66415 20.9378C5.68423 20.9378 7.32817 19.2938 7.32817 17.2737C7.32817 16.9844 7.094 16.7502 6.80468 16.7502Z" fill="#252525"/>
<path d="M2.61724 21.8008C2.32792 21.8008 2.09375 22.0348 2.09375 22.3241V45.539C2.09375 45.8293 2.32792 46.0623 2.61724 46.0623C2.90655 46.0623 3.14059 45.8293 3.14059 45.539V22.3241C3.14059 22.0348 2.90655 21.8008 2.61724 21.8008Z" fill="#252525"/>
<path d="M62.2892 7.32861C61.9999 7.32861 61.7656 7.56266 61.7656 7.85197V45.539C61.7656 45.8294 61.9999 46.0624 62.2892 46.0624C62.5786 46.0624 62.8127 45.8294 62.8126 45.539V7.85197C62.8126 7.56266 62.5786 7.32861 62.2892 7.32861Z" fill="#252525"/>
<path d="M4.71099 21.8008C4.42167 21.8008 4.1875 22.0348 4.1875 22.3241V45.539C4.1875 45.8293 4.42167 46.0623 4.71099 46.0623C5.0003 46.0623 5.23448 45.8293 5.23448 45.539V22.3241C5.23448 22.0348 5.0003 21.8008 4.71099 21.8008Z" fill="#252525"/>
<path d="M4.71106 45.0154C4.42174 45.0154 4.18757 45.2505 4.18757 45.5389C4.18757 45.8282 3.95287 46.0622 3.66408 46.0622C3.37529 46.0622 3.14059 45.8282 3.14059 45.5389C3.14059 45.2505 2.90655 45.0154 2.61724 45.0154C2.32792 45.0154 2.09375 45.2505 2.09375 45.5389C2.09375 46.4058 2.79824 47.1091 3.66408 47.1091C4.52993 47.1091 5.23441 46.4058 5.23455 45.5389C5.23455 45.2506 5.00037 45.0154 4.71106 45.0154Z" fill="#252525"/>
<path d="M64.3829 45.0154C64.0936 45.0154 63.8593 45.2505 63.8593 45.5389C63.8593 45.8282 63.6242 46.0622 63.336 46.0622C63.0477 46.0622 62.8126 45.8282 62.8126 45.5389C62.8126 45.2505 62.5786 45.0154 62.2892 45.0154C61.9999 45.0154 61.7656 45.2505 61.7656 45.5389C61.7656 46.4058 62.4701 47.1091 63.336 47.1091C64.2018 47.1091 64.9063 46.4058 64.9063 45.5389C64.9063 45.2506 64.6722 45.0154 64.3829 45.0154Z" fill="#252525"/>
<path d="M64.383 27.2192C64.0937 27.2192 63.8594 27.4533 63.8594 27.7426V45.541C63.8594 45.8294 64.0937 46.0645 64.383 46.0645C64.6723 46.0645 64.9063 45.8294 64.9063 45.5409V27.7426C64.9063 27.4533 64.6723 27.2192 64.383 27.2192Z" fill="#252525"/>
<path d="M62.4155 7.3443C62.1364 7.27331 61.8522 7.44253 61.7816 7.72411C61.711 8.00373 61.8809 8.28794 62.16 8.35958C62.3153 8.39887 65.9527 9.3691 65.9527 13.0863C65.9527 13.3756 66.1871 13.6098 66.4764 13.6098C66.7657 13.6098 66.9997 13.3756 66.9997 13.0863C66.9997 8.54241 62.4616 7.35556 62.4155 7.3443Z" fill="#252525"/>
<path d="M66.4767 12.563C66.1874 12.563 65.9531 12.797 65.9531 13.0863V25.6489C65.9531 25.9382 66.1874 26.1724 66.4767 26.1724C66.7661 26.1724 67.0001 25.9382 67.0001 25.6489V13.0863C67.0001 12.797 66.7661 12.563 66.4767 12.563Z" fill="#252525"/>
<path d="M66.4767 25.1255H64.383C64.0937 25.1255 63.8594 25.3595 63.8594 25.6488C63.8594 25.9382 64.0937 26.1723 64.383 26.1723H66.4767C66.766 26.1723 67 25.9382 67 25.6488C67 25.3595 66.766 25.1255 66.4767 25.1255Z" fill="#252525"/>
<path d="M34.5467 4.18774C21.8473 4.18774 11.5156 14.5196 11.5156 27.2191C11.5156 39.9181 21.8473 50.2499 34.5467 50.2499C47.2462 50.2499 57.5781 39.9181 57.5781 27.2191C57.5781 14.5196 47.2462 4.18774 34.5467 4.18774ZM34.5467 49.203C22.4245 49.203 12.5625 39.3414 12.5625 27.2191C12.5625 15.0968 22.4245 5.23472 34.5467 5.23472C46.6697 5.23472 56.5312 15.0966 56.5312 27.2191C56.5312 39.3416 46.6696 49.203 34.5467 49.203Z" fill="#252525"/>
<path d="M34.5467 9.42236C24.7335 9.42236 16.75 17.4058 16.75 27.2192C16.75 37.0332 24.7334 45.0156 34.5467 45.0156C44.3603 45.0156 52.3436 37.0332 52.3436 27.2192C52.3436 17.4058 44.3603 9.42236 34.5467 9.42236ZM34.5467 43.9688C25.3111 43.9688 17.7968 36.4546 17.7968 27.2192C17.7968 17.9834 25.311 10.4692 34.5467 10.4692C43.7828 10.4692 51.2969 17.9834 51.2969 27.2192C51.2969 36.4546 43.7828 43.9688 34.5467 43.9688Z" fill="#252525"/>
<path d="M34.5467 12.6304C26.5021 12.6304 19.957 19.1753 19.957 27.2202C19.957 27.5095 20.1912 27.7435 20.4805 27.7435C20.7698 27.7435 21.0039 27.5095 21.0039 27.2202C21.0039 19.7525 27.0792 13.6772 34.5467 13.6772C34.836 13.6772 35.0703 13.4432 35.0703 13.1539C35.0703 12.8645 34.836 12.6304 34.5467 12.6304Z" fill="#252525"/>
<path d="M48.6122 26.6965C48.3229 26.6965 48.0888 26.9307 48.0888 27.22C48.0888 34.6876 42.0142 40.7623 34.5468 40.7623C34.2575 40.7623 34.0234 40.9955 34.0234 41.2858C34.0234 41.5741 34.2575 41.8092 34.5468 41.8092C42.5907 41.8092 49.1357 35.2643 49.1356 27.22C49.1356 26.9307 48.9015 26.6965 48.6122 26.6965Z" fill="#252525"/>
<path d="M44.3388 49.3564C44.1345 49.1519 43.8031 49.1519 43.5986 49.3564L34.5468 58.4082L25.494 49.3543C25.2897 49.1498 24.9585 49.1498 24.7539 49.3543C24.5495 49.5587 24.5495 49.8899 24.7539 50.0944L34.177 59.5183C34.279 59.6206 34.4131 59.6717 34.5468 59.6717C34.6809 59.6717 34.8149 59.6206 34.9169 59.5183L44.3388 50.0965C44.5432 49.8922 44.5432 49.5609 44.3388 49.3564Z" fill="#252525"/>
<path d="M53.7607 43.0751C53.5561 42.8705 53.225 42.8705 53.0204 43.0751L34.5467 61.5487L16.0732 43.0752C15.8688 42.8706 15.5376 42.8706 15.3331 43.0752C15.1285 43.2796 15.1285 43.6109 15.3331 43.8153L34.1768 62.659C34.2789 62.7612 34.413 62.8124 34.5467 62.8124C34.6808 62.8124 34.8148 62.7612 34.9168 62.659L53.7607 43.8152C53.9651 43.6109 53.9651 43.2796 53.7607 43.0751Z" fill="#252525"/>
</svg>
