<svg width="68" height="67" viewBox="0 0 68 67" fill="none" xmlns="http://www.w3.org/2000/svg">
<path d="M34 8C34.8583 8 35.6914 8.0131 36.5 8.03851M34 8C33.1422 8 32.3091 8.0122 31.5 8.03594M34 8C21.2 9.2 18 17.1667 18 21M34 8C46.8 9.2 50 17.1667 50 21M34 8V43.5M36.5 8.03851C56.8864 8.67938 61.6603 17.1526 61.5 21H50M36.5 8.03851V5.5H31.5V8.03594M31.5 8.03594C11.1664 8.63245 6 16.5119 6 21H18M18 21H50M34 43.5H24.5V47H34M34 43.5H43.5V47H34M34 47V57.5M34 57.5C32.1667 57.3333 28.5 58 28.5 62H39.5C39.5 58 35.8333 57.3333 34 57.5Z" stroke="#252525" stroke-linecap="round" stroke-linejoin="round"/>
<path d="M12 51.9999L8 61.9999H11L15 52.9999L19 61.9999H22L18 51.9999M12 51.9999C10.8333 51.9999 8.4 51.3999 8 48.9999V38.4999C12.5 38.3332 21.6 40.7999 22 51.9999H18M12 51.9999H18" stroke="#252525" stroke-linecap="round" stroke-linejoin="round"/>
<path d="M56 51.9999L60 61.9999H57L53 52.9999L49 61.9999H46L50 51.9999M56 51.9999C57.1667 51.9999 59.6 51.3999 60 48.9999V38.4999C55.5 38.3332 46.4 40.7999 46 51.9999H50M56 51.9999H50" stroke="#252525" stroke-linecap="round" stroke-linejoin="round"/>
</svg>
