<svg width="77" height="77" viewBox="0 0 77 77" fill="none" xmlns="http://www.w3.org/2000/svg">
<g clip-path="url(#clip0)">
<path d="M58.7767 63.3402C58.5419 63.1053 58.1611 63.1053 57.9262 63.3402L54.3168 66.9497C54.0819 67.1846 54.0819 67.5654 54.3168 67.8003C54.4343 67.9177 54.5883 67.9765 54.7421 67.9765C54.896 67.9765 55.05 67.9177 55.1674 67.8003L58.7767 64.1909C59.0116 63.956 59.0116 63.5752 58.7767 63.3402Z" fill="#252525"/>
<path d="M76.8237 45.2936C76.5888 45.0587 76.208 45.0587 75.9731 45.2936L60.934 60.3326C60.6991 60.5675 60.6991 60.9483 60.934 61.1832C61.0515 61.3007 61.2054 61.3595 61.3593 61.3595C61.5131 61.3595 61.6671 61.3007 61.7846 61.1832L76.8237 46.1442C77.0585 45.9093 77.0586 45.5285 76.8237 45.2936Z" fill="#252525"/>
<path d="M76.8237 51.309C76.5888 51.0741 76.208 51.0741 75.9731 51.309L60.3324 66.9497C60.0975 67.1847 60.0975 67.5654 60.3324 67.8004C60.4499 67.9178 60.6039 67.9766 60.7577 67.9766C60.9116 67.9766 61.0656 67.9178 61.183 67.8004L76.8237 52.1596C77.0585 51.9247 77.0586 51.5439 76.8237 51.309Z" fill="#252525"/>
<path d="M61.7848 60.3327L39.5268 38.0749C39.2919 37.84 38.9111 37.84 38.6762 38.0749C38.4413 38.3098 38.4413 38.6906 38.6762 38.9255L60.934 61.1833C61.0514 61.3007 61.2054 61.3595 61.3593 61.3595C61.5131 61.3595 61.6672 61.3007 61.7846 61.1833C62.0197 60.9484 62.0197 60.5676 61.7848 60.3327Z" fill="#252525"/>
<path d="M58.7769 63.3405L37.1205 41.6842C36.8856 41.4493 36.5048 41.4493 36.2699 41.6842C36.035 41.9192 36.035 42.2999 36.2699 42.5349L57.9263 64.1911C58.0438 64.3086 58.1978 64.3674 58.3516 64.3674C58.5055 64.3674 58.6595 64.3086 58.7768 64.1911C59.0118 63.9562 59.0118 63.5754 58.7769 63.3405Z" fill="#252525"/>
<path d="M61.1831 51.3092L44.3393 34.4655C44.1044 34.2306 43.7236 34.2306 43.4887 34.4655C43.2538 34.7004 43.2538 35.0812 43.4887 35.3161L60.3324 52.1598C60.4498 52.2773 60.6038 52.3361 60.7577 52.3361C60.9115 52.3361 61.0655 52.2773 61.183 52.1598C61.4181 51.9249 61.418 51.5441 61.1831 51.3092Z" fill="#252525"/>
<path d="M69.605 42.8874C69.3701 42.6525 68.9893 42.6525 68.7544 42.8874L60.3324 51.3092C60.0975 51.5441 60.0975 51.9249 60.3324 52.1598C60.4499 52.2772 60.6039 52.336 60.7577 52.336C60.9116 52.336 61.0656 52.2772 61.183 52.1598L69.605 43.738C69.8399 43.5031 69.8399 43.1223 69.605 42.8874Z" fill="#252525"/>
<path d="M69.6049 42.8872L52.7612 26.0434C52.5263 25.8085 52.1455 25.8085 51.9106 26.0434C51.6756 26.2783 51.6756 26.6591 51.9106 26.894L68.7543 43.7378C68.8717 43.8553 69.0257 43.9141 69.1796 43.9141C69.3334 43.9141 69.4874 43.8553 69.6049 43.7378C69.8398 43.5029 69.8398 43.1221 69.6049 42.8872Z" fill="#252525"/>
<path d="M52.7612 26.0434C52.5263 25.8085 52.1455 25.8085 51.9106 26.0434L43.4887 34.4653C43.2538 34.7002 43.2538 35.081 43.4887 35.3159C43.6061 35.4334 43.7601 35.4922 43.914 35.4922C44.0678 35.4922 44.2218 35.4334 44.3393 35.3159L52.7612 26.894C52.9961 26.6591 52.9961 26.2783 52.7612 26.0434Z" fill="#252525"/>
<path d="M76.8237 35.6686C76.5888 35.4337 76.208 35.4337 75.9731 35.6686L73.5668 38.0749C73.3319 38.3098 73.3319 38.6906 73.5668 38.9255C73.6843 39.043 73.8383 39.1018 73.9921 39.1018C74.146 39.1018 74.3 39.043 74.4174 38.9255L76.8237 36.5192C77.0584 36.2843 77.0586 35.9035 76.8237 35.6686Z" fill="#252525"/>
<path d="M74.4175 38.0749L69.6049 33.2624C69.37 33.0275 68.9892 33.0275 68.7543 33.2624C68.5194 33.4973 68.5194 33.8781 68.7543 34.113L73.5668 38.9255C73.6843 39.043 73.8383 39.1018 73.9922 39.1018C74.146 39.1018 74.3 39.043 74.4175 38.9255C74.6524 38.6906 74.6524 38.3098 74.4175 38.0749Z" fill="#252525"/>
<path d="M76.8237 26.0434C76.5888 25.8085 76.208 25.8085 75.9731 26.0434L68.7543 33.2622C68.5194 33.4971 68.5194 33.8779 68.7543 34.1128C68.8718 34.2302 69.0258 34.289 69.1796 34.289C69.3335 34.289 69.4875 34.2302 69.6049 34.1128L76.8237 26.894C77.0584 26.6591 77.0586 26.2783 76.8237 26.0434Z" fill="#252525"/>
<path d="M49.1519 62.1373L33.5112 46.4967C33.2763 46.2618 32.8955 46.2618 32.6606 46.4967C32.4256 46.7317 32.4256 47.1124 32.6606 47.3474L48.3013 62.9879C48.4187 63.1054 48.5727 63.1642 48.7266 63.1642C48.8804 63.1642 49.0344 63.1054 49.1519 62.9879C49.3868 62.753 49.3868 62.3722 49.1519 62.1373Z" fill="#252525"/>
<path d="M49.1518 62.1371C48.9169 61.9022 48.5361 61.9022 48.3012 62.1371L43.4887 66.9497C43.2538 67.1846 43.2538 67.5654 43.4887 67.8003C43.6061 67.9177 43.7601 67.9766 43.914 67.9766C44.0678 67.9766 44.2218 67.9177 44.3393 67.8003L49.1518 62.9877C49.3868 62.7528 49.3868 62.372 49.1518 62.1371Z" fill="#252525"/>
<path d="M11.855 34.4655C11.6201 34.2306 11.2393 34.2306 11.0043 34.4655L3.78556 41.6843C3.55065 41.9192 3.55065 42.3 3.78556 42.5349C3.90301 42.6523 4.05702 42.7111 4.21087 42.7111C4.36472 42.7111 4.51872 42.6523 4.63617 42.5349L11.855 35.3161C12.0899 35.0812 12.0899 34.7004 11.855 34.4655Z" fill="#252525"/>
<path d="M20.4649 57.5128L4.63617 41.6842C4.40126 41.4493 4.02047 41.4493 3.78556 41.6842C3.55065 41.9192 3.55065 42.2999 3.78556 42.5349L19.6141 58.3634C19.7316 58.4809 19.8856 58.5397 20.0394 58.5397C20.1934 58.5397 20.3473 58.4809 20.4649 58.3634C20.6998 58.1285 20.6998 57.7477 20.4649 57.5128Z" fill="#252525"/>
<path d="M25.2768 52.7001C25.0419 52.4652 24.6611 52.4652 24.4262 52.7001L19.6137 57.5127C19.3788 57.7476 19.3788 58.1284 19.6137 58.3633C19.7311 58.4807 19.8851 58.5395 20.039 58.5395C20.193 58.5395 20.3468 58.4807 20.4643 58.3633L25.2768 53.5507C25.5119 53.3158 25.5119 52.935 25.2768 52.7001Z" fill="#252525"/>
<path d="M39.5264 66.9497L25.2768 52.7001C25.0419 52.4652 24.6611 52.4652 24.4262 52.7001C24.1913 52.935 24.1913 53.3158 24.4262 53.5507L38.6758 67.8003C38.7932 67.9178 38.9472 67.9766 39.1011 67.9766C39.2549 67.9766 39.4089 67.9178 39.5264 67.8003C39.7613 67.5654 39.7613 67.1846 39.5264 66.9497Z" fill="#252525"/>
<path d="M29.9018 65.7467C29.6669 65.5118 29.2861 65.5118 29.0512 65.7467L27.8481 66.9499C27.6131 67.1848 27.6131 67.5656 27.8481 67.8005C27.9655 67.918 28.1195 67.9768 28.2734 67.9768C28.4272 67.9768 28.5812 67.918 28.6987 67.8005L29.9018 66.5974C30.1369 66.3624 30.1369 65.9817 29.9018 65.7467Z" fill="#252525"/>
<path d="M29.9018 65.7465L25.0893 60.934C24.8544 60.6991 24.4736 60.6991 24.2387 60.934C24.0038 61.1689 24.0038 61.5497 24.2387 61.7846L29.0512 66.5971C29.1687 66.7146 29.3227 66.7734 29.4765 66.7734C29.6304 66.7734 29.7844 66.7146 29.9018 66.5971C30.1369 66.3622 30.1369 65.9814 29.9018 65.7465Z" fill="#252525"/>
<path d="M25.0893 60.934C24.8544 60.6991 24.4736 60.6991 24.2387 60.934L18.2231 66.9497C17.9881 67.1846 17.9881 67.5654 18.2231 67.8003C18.3405 67.9178 18.4945 67.9766 18.6484 67.9766C18.8022 67.9766 18.9562 67.9178 19.0737 67.8003L25.0893 61.7846C25.3241 61.5497 25.3242 61.1689 25.0893 60.934Z" fill="#252525"/>
<path d="M15.4646 62.1373L1.08344 47.7563C0.848527 47.5214 0.467736 47.5214 0.232824 47.7563C-0.00208727 47.9912 -0.00208727 48.372 0.232824 48.6069L14.614 62.9879C14.7315 63.1054 14.8855 63.1642 15.0393 63.1642C15.1932 63.1642 15.3472 63.1054 15.4646 62.9879C15.6995 62.753 15.6995 62.3722 15.4646 62.1373Z" fill="#252525"/>
<path d="M15.4643 62.1371C15.2294 61.9022 14.8486 61.9022 14.6137 62.1371L9.80118 66.9497C9.56627 67.1846 9.56627 67.5654 9.80118 67.8003C9.91864 67.9177 10.0726 67.9766 10.2265 67.9766C10.3803 67.9766 10.5343 67.9177 10.6518 67.8003L15.4643 62.9877C15.6992 62.7528 15.6992 62.372 15.4643 62.1371Z" fill="#252525"/>
<path d="M9.45859 28.4402L1.08344 20.0666C0.848527 19.8317 0.467736 19.8317 0.232824 20.0666C-0.00208724 20.3015 -0.00208724 20.6823 0.232824 20.9172L8.60767 29.291C8.72513 29.4084 8.87913 29.4672 9.03298 29.4672C9.18698 29.4672 9.34083 29.4084 9.45844 29.2908C9.69335 29.0559 9.69335 28.6751 9.45859 28.4402Z" fill="#252525"/>
<path d="M9.45805 28.4416C9.22313 28.2067 8.84234 28.2067 8.60743 28.4416L0.176184 36.8718C-0.0587279 37.1067 -0.0587279 37.4875 0.176184 37.7224C0.293639 37.8398 0.44764 37.8986 0.601491 37.8986C0.755341 37.8986 0.909342 37.8398 1.0268 37.7224L9.45805 29.2922C9.69296 29.0573 9.69296 28.6765 9.45805 28.4416Z" fill="#252525"/>
<path d="M67.1987 16.4184C66.9638 16.1835 66.583 16.1835 66.3481 16.4184L60.3324 22.434C60.0975 22.6689 60.0975 23.0497 60.3324 23.2846C60.4499 23.4021 60.6039 23.4609 60.7577 23.4609C60.9116 23.4609 61.0656 23.4023 61.183 23.2846L67.1987 17.269C67.4336 17.0341 67.4336 16.6533 67.1987 16.4184Z" fill="#252525"/>
<path d="M50.3549 16.4184C50.12 16.1835 49.7392 16.1835 49.5043 16.4184L43.4887 22.434C43.2538 22.6689 43.2538 23.0497 43.4887 23.2846C43.6061 23.4021 43.7601 23.4609 43.914 23.4609C44.0678 23.4609 44.2218 23.4023 44.3393 23.2846L50.3549 17.269C50.5898 17.0341 50.5898 16.6533 50.3549 16.4184Z" fill="#252525"/>
<path d="M76.8237 59.7309C76.5888 59.496 76.208 59.496 75.9731 59.7309L68.7543 66.9497C68.5194 67.1846 68.5194 67.5654 68.7543 67.8003C68.8718 67.9178 69.0258 67.9766 69.1796 67.9766C69.3335 67.9766 69.4875 67.9178 69.6049 67.8003L76.8237 60.5815C77.0584 60.3466 77.0586 59.9658 76.8237 59.7309Z" fill="#252525"/>
<path d="M67.1987 28.4496L61.183 22.434C60.9481 22.1991 60.5673 22.1991 60.3324 22.434C60.0975 22.6689 60.0975 23.0497 60.3324 23.2846L66.3481 29.3003C66.4656 29.4177 66.6196 29.4765 66.7734 29.4765C66.9273 29.4765 67.0813 29.4177 67.1987 29.3003C67.4336 29.0653 67.4336 28.6846 67.1987 28.4496Z" fill="#252525"/>
<path d="M76.8237 18.8249C76.5888 18.59 76.208 18.59 75.9731 18.8249L66.3481 28.4498C66.1131 28.6847 66.1131 29.0655 66.3481 29.3004C66.4655 29.4178 66.6195 29.4766 66.7734 29.4766C66.9272 29.4766 67.0812 29.4178 67.1987 29.3005L76.8237 19.6755C77.0584 19.4404 77.0586 19.0598 76.8237 18.8249Z" fill="#252525"/>
<path d="M76.3988 16.2422C76.0663 16.2422 75.7973 16.5112 75.7973 16.8438V66.7734H1.25977V16.8438C1.25977 16.5112 0.990722 16.2422 0.658207 16.2422C0.325691 16.2422 0.0566406 16.5112 0.0566406 16.8438V67.375C0.0566406 67.7075 0.325691 67.9766 0.658207 67.9766H76.3988C76.7313 67.9766 77.0004 67.7075 77.0004 67.375V16.8438C77.0004 16.5112 76.7313 16.2422 76.3988 16.2422Z" fill="#252525"/>
<path d="M25.8673 9.02319C17.5745 9.02319 10.8281 15.7698 10.8281 24.0623C10.8281 32.4184 22.3155 48.7266 25.8673 48.7266C29.4191 48.7266 40.9064 32.4184 40.9064 24.0623C40.9064 15.7696 34.16 9.02319 25.8673 9.02319ZM25.8673 47.5236C23.2753 47.5236 12.0313 32.126 12.0313 24.0625C12.0313 16.4336 18.2385 10.2265 25.8673 10.2265C33.4962 10.2265 39.7033 16.4336 39.7033 24.0625C39.7033 32.126 28.4591 47.5236 25.8673 47.5236Z" fill="#252525"/>
<path d="M9.02373 16.2422H0.658207C0.325691 16.2422 0.0566406 16.5112 0.0566406 16.8438C0.0566406 17.1763 0.325691 17.4453 0.658207 17.4453H9.02373C9.35625 17.4453 9.6253 17.1763 9.6253 16.8438C9.6253 16.5112 9.35625 16.2422 9.02373 16.2422Z" fill="#252525"/>
<path d="M76.3985 16.2422H42.7109C42.3784 16.2422 42.1094 16.5112 42.1094 16.8438C42.1094 17.1763 42.3784 17.4453 42.7109 17.4453H76.3985C76.731 17.4453 77.0001 17.1763 77.0001 16.8438C77.0001 16.5112 76.731 16.2422 76.3985 16.2422Z" fill="#252525"/>
<path d="M25.8672 29.4766C25.5347 29.4766 25.2656 29.7456 25.2656 30.0781V33.6875C25.2656 34.02 25.5347 34.2891 25.8672 34.2891C26.1997 34.2891 26.4688 34.02 26.4688 33.6875V30.0781C26.4688 29.7456 26.1997 29.4766 25.8672 29.4766Z" fill="#252525"/>
<path d="M34.7143 21.2309C34.4794 20.996 34.0986 20.996 33.8637 21.2309L25.4418 29.6528C25.2069 29.8877 25.2069 30.2685 25.4418 30.5034C25.5593 30.6209 25.7133 30.6797 25.8671 30.6797C26.0211 30.6797 26.175 30.6209 26.2924 30.5034L34.7143 22.0815C34.9494 21.8466 34.9494 21.4658 34.7143 21.2309Z" fill="#252525"/>
<path d="M26.2925 29.6528L17.8705 21.2309C17.6356 20.996 17.2548 20.996 17.0199 21.2309C16.785 21.4658 16.785 21.8466 17.0199 22.0815L25.4419 30.5034C25.5593 30.6209 25.7133 30.6797 25.8672 30.6797C26.0212 30.6797 26.175 30.6209 26.2925 30.5034C26.5275 30.2685 26.5275 29.8877 26.2925 29.6528Z" fill="#252525"/>
<path d="M34.289 21.0547H17.4453C17.1128 21.0547 16.8438 21.3237 16.8438 21.6563C16.8438 21.9888 17.1128 22.2578 17.4453 22.2578H34.289C34.6215 22.2578 34.8906 21.9888 34.8906 21.6563C34.8906 21.3237 34.6215 21.0547 34.289 21.0547Z" fill="#252525"/>
<path d="M29.4766 33.0859H22.2578C21.9253 33.0859 21.6562 33.355 21.6562 33.6875C21.6562 34.02 21.9253 34.2891 22.2578 34.2891H29.4766C29.8091 34.2891 30.0782 34.02 30.0782 33.6875C30.0782 33.355 29.8091 33.0859 29.4766 33.0859Z" fill="#252525"/>
<path d="M25.8672 23.4609C24.8721 23.4609 24.0625 24.2705 24.0625 25.2656C24.0625 26.2608 24.8721 27.0703 25.8672 27.0703C26.8625 27.0703 27.6719 26.2608 27.6719 25.2656C27.6719 24.2705 26.8623 23.4609 25.8672 23.4609ZM25.8672 25.8672C25.5359 25.8672 25.2656 25.5969 25.2656 25.2656C25.2656 24.9343 25.5359 24.6641 25.8672 24.6641C26.1987 24.6641 26.4688 24.9343 26.4688 25.2656C26.4688 25.5969 26.1985 25.8672 25.8672 25.8672Z" fill="#252525"/>
<path d="M33.4358 17.6969C33.2009 17.462 32.8201 17.462 32.5852 17.6969L26.2924 23.9898C26.0575 24.2247 26.0575 24.6055 26.2924 24.8404C26.4099 24.9578 26.5639 25.0166 26.7177 25.0166C26.8716 25.0166 27.0256 24.958 27.143 24.8404L33.4358 18.5476C33.6709 18.3126 33.6709 17.9318 33.4358 17.6969Z" fill="#252525"/>
</g>
<defs>
<clipPath id="clip0">
<rect width="77" height="77" fill="white"/>
</clipPath>
</defs>
</svg>
