<svg width="108" height="31" viewBox="0 0 108 31" fill="none" xmlns="http://www.w3.org/2000/svg">
<g opacity="0.8">
<mask id="mask0" mask-type="alpha" maskUnits="userSpaceOnUse" x="0" y="0" width="108" height="31">
<path d="M7.44812 1.36133H0V29.5974H21.1331V22.1553H7.44812V1.36133ZM7.5715 23.0576H20.2258L16.914 26.0726H4.01596L0.920858 28.6967H0.902802V2.26358H6.54381V2.28163L4.01747 5.12223V26.0696L7.5715 23.0576Z" fill="white"/>
<path d="M63.1361 1.36133H55.6895V29.5974H76.8226V22.1553H63.1376V1.36133H63.1361ZM63.261 23.0576H75.9152L72.6035 26.0726H59.7039L56.6088 28.6967H56.5907V2.26358H62.2318V2.28163L59.7054 5.12223V26.0696L63.261 23.0576Z" fill="white"/>
<path d="M100.953 1.36133H86.3851L80.0098 29.5974H88.1816L88.9656 25.3703H98.3066L99.0905 29.5974H107.616L100.953 1.36133ZM99.1492 24.9553L101.934 21.8455H85.9367H85.9291L84.9767 26.0395L81.1398 28.6951L87.1088 2.26358H100.32L98.1772 5.29516L101.934 21.8455L102.896 26.0846L99.8428 28.6967L99.1492 24.9553Z" fill="white"/>
<path d="M97.938 19.0548L95.827 8.71492L98.1758 5.29688H89.7165L85.9277 21.8458L90.0596 19.0548H97.938ZM92.3617 8.82019H94.9302L94.9332 8.84876L94.9422 8.89387L96.8321 18.151H90.3409L92.3617 8.82019Z" fill="white"/>
<path d="M36.9102 0.47998C28.4735 0.47998 21.6348 7.19577 21.6348 15.48C21.6348 23.7642 28.4735 30.48 36.9102 30.48C45.3469 30.48 52.1856 23.7642 52.1856 15.48C52.1856 7.19577 45.3469 0.47998 36.9102 0.47998ZM37.0832 26.3386C36.7657 26.3386 36.4497 26.3251 36.1398 26.2995L38.9956 23.1837C42.2096 22.1777 44.5419 19.1943 44.5419 15.671C44.5419 12.1131 42.166 9.10705 38.9039 8.1296L36.1413 4.65893H36.1398C30.4597 5.12961 25.9998 9.79427 25.9998 15.48C25.9998 21.1657 30.4612 25.8319 36.1398 26.301L39.0017 29.4289C38.314 29.5266 37.6159 29.5762 36.9102 29.5762C34.9676 29.5762 33.0838 29.2033 31.3098 28.4664C29.5975 27.7552 28.0612 26.7371 26.7401 25.4409C25.4205 24.1461 24.3853 22.6379 23.6631 20.9597C22.9152 19.2243 22.5361 17.3792 22.5361 15.4785C22.5361 13.5777 22.9152 11.7326 23.6631 9.99727C24.3853 8.31908 25.422 6.81081 26.7401 5.51607C28.0597 4.21983 29.5975 3.20178 31.3098 2.49051C33.0823 1.75366 34.9661 1.38074 36.9102 1.38074C37.6068 1.38074 38.296 1.43036 38.9761 1.52509L36.1413 4.65592L36.1383 4.65742C36.1383 4.65742 36.1383 4.65742 36.1398 4.65742H36.1413C36.4528 4.63186 36.7672 4.61833 37.0847 4.61833C43.2072 4.61833 48.1696 9.47998 48.1696 15.4785C48.1681 21.477 43.2057 26.3386 37.0832 26.3386ZM31.6303 20.6003C30.3032 19.283 29.5734 17.5326 29.5734 15.671C29.5734 13.8093 30.3047 12.0589 31.6303 10.7416C32.9589 9.42284 34.7254 8.69652 36.6047 8.69652C38.4841 8.69652 40.2505 9.42284 41.5792 10.7416C42.9063 12.0589 43.6376 13.8093 43.6376 15.671C43.6376 17.5326 42.9063 19.283 41.5792 20.6003C40.2505 21.9191 38.4841 22.6454 36.6047 22.6454C34.7254 22.6454 32.9574 21.9191 31.6303 20.6003Z" fill="white"/>
</mask>
<g mask="url(#mask0)">
<rect x="-0.117188" y="0.137207" width="107.512" height="29.4488" fill="#252525"/>
</g>
</g>
</svg>
