<svg width="49" height="26" viewBox="0 0 49 26" fill="none" xmlns="http://www.w3.org/2000/svg">
<path d="M0.425353 23.6319C0.513318 23.5463 0.61961 23.4784 0.736898 23.4249C0.854186 23.375 0.982469 23.35 1.11442 23.35H1.69353C1.71552 23.35 1.72651 23.3393 1.72651 23.3179C1.72651 23.2965 1.71185 23.2858 1.6862 23.2858H1.11808C0.975139 23.2858 0.839525 23.3107 0.711241 23.3643C0.582958 23.4178 0.473001 23.4892 0.377705 23.5819C0.282408 23.6747 0.209103 23.7818 0.154125 23.9067C0.0991461 24.0315 0.0698242 24.1636 0.0698242 24.3063C0.0698242 24.449 0.0991461 24.5811 0.154125 24.7024C0.209103 24.8273 0.286073 24.9343 0.377705 25.0236C0.473001 25.1163 0.582958 25.1877 0.711241 25.2412C0.839525 25.2948 0.975139 25.3197 1.11808 25.3197H1.70819C1.72285 25.3126 1.73018 25.3019 1.73018 25.2876C1.73018 25.2662 1.71552 25.2555 1.68986 25.2555H1.11808C0.982469 25.2555 0.857851 25.2305 0.740563 25.1806C0.623276 25.1306 0.516984 25.0628 0.429018 24.9736C0.341052 24.888 0.271412 24.788 0.216434 24.6703C0.16512 24.5561 0.139464 24.4312 0.139464 24.3027C0.139464 24.1707 0.16512 24.0458 0.216434 23.9316C0.267747 23.8174 0.337387 23.7175 0.425353 23.6319ZM4.79799 23.4856C4.73201 23.4249 4.65871 23.375 4.57074 23.3393C4.48277 23.3036 4.39114 23.2858 4.29218 23.2858H3.58113V25.2948C3.58113 25.3162 3.59212 25.3269 3.61411 25.3269C3.6361 25.3269 3.6471 25.3126 3.6471 25.284V24.6631H4.05028L4.71735 25.309C4.72468 25.3197 4.73201 25.3233 4.74667 25.3233C4.76866 25.3233 4.77966 25.3126 4.77966 25.2912C4.77966 25.2805 4.77233 25.2733 4.76133 25.2626L4.14557 24.6631H4.29218C4.39114 24.6631 4.48277 24.6453 4.57074 24.6096C4.65871 24.5739 4.73201 24.524 4.79799 24.4633C4.86396 24.4027 4.91161 24.3277 4.94826 24.2421C4.98491 24.1564 5.00324 24.0672 5.00324 23.9709C5.00324 23.8745 4.98491 23.7853 4.94826 23.6997C4.91527 23.6212 4.86396 23.5462 4.79799 23.4856ZM4.88595 24.2171C4.85296 24.292 4.80532 24.3598 4.75034 24.4169C4.69169 24.474 4.62572 24.5204 4.54508 24.5525C4.46811 24.5846 4.38381 24.6025 4.29585 24.6025H3.65076V23.35H4.29585C4.38381 23.35 4.46445 23.3678 4.54508 23.3999C4.62205 23.4321 4.69169 23.4785 4.75034 23.5355C4.80898 23.5926 4.85296 23.6604 4.88595 23.7354C4.91894 23.8103 4.93726 23.8924 4.93726 23.978C4.9336 24.0637 4.91894 24.1422 4.88595 24.2171ZM6.92749 23.35H8.06372C8.08571 23.35 8.0967 23.3393 8.0967 23.3179C8.0967 23.2965 8.08204 23.2858 8.05272 23.2858H6.85419V25.3269H8.06372C8.08571 25.3269 8.0967 25.3162 8.0967 25.2948C8.0967 25.2733 8.08204 25.2626 8.05639 25.2626H6.92016V24.3242H7.12908C7.15107 24.3242 7.16207 24.3135 7.16207 24.292C7.16207 24.2706 7.14741 24.2599 7.11808 24.2599H6.91649C6.91649 24.1029 6.91649 23.953 6.91649 23.8067C6.92749 23.6569 6.92749 23.507 6.92749 23.35ZM9.92566 25.3233H10.9812C11.0032 25.3233 11.0142 25.3126 11.0142 25.2912C11.0142 25.2698 10.9996 25.2591 10.9739 25.2591H10.0356L11.0069 23.4214L11.9855 25.3126C11.9929 25.3233 12.0002 25.3269 12.0148 25.3269C12.0368 25.3269 12.0478 25.3162 12.0478 25.2983V25.284L11.0032 23.2751L9.92566 25.3233ZM15.5665 23.2858H13.9501C13.9281 23.2858 13.9208 23.2965 13.9208 23.3179C13.9208 23.3393 13.9318 23.35 13.9501 23.35H14.7528V25.2912C14.7528 25.3126 14.7638 25.3233 14.7858 25.3233C14.8078 25.3233 14.8188 25.309 14.8188 25.284V23.35H15.5665C15.5885 23.35 15.5995 23.3393 15.5995 23.3179C15.5995 23.3072 15.5958 23.3 15.5921 23.2929C15.5811 23.2858 15.5738 23.2858 15.5665 23.2858ZM17.4724 23.2858C17.4504 23.2858 17.4394 23.2965 17.4394 23.3143V25.2912C17.4394 25.3019 17.4431 25.309 17.4467 25.3162C17.4541 25.3233 17.4614 25.3269 17.4724 25.3269C17.4834 25.3269 17.4907 25.3233 17.498 25.3162C17.5054 25.309 17.509 25.3019 17.509 25.2912V23.3107C17.5017 23.2929 17.4907 23.2858 17.4724 23.2858ZM21.4089 23.2858C21.3942 23.2858 21.3832 23.2929 21.3759 23.3036C21.2109 23.6283 21.046 23.9459 20.8774 24.2599C20.7125 24.5739 20.5475 24.8915 20.3789 25.2127L19.4003 23.3072C19.393 23.2929 19.3856 23.2858 19.371 23.2858C19.349 23.2858 19.338 23.2965 19.338 23.3179C19.338 23.3286 19.3417 23.3357 19.3453 23.3393L20.3789 25.3661L21.4382 23.3393C21.4418 23.3357 21.4418 23.3321 21.4418 23.3321C21.4418 23.3286 21.4418 23.325 21.4418 23.3179C21.4418 23.2965 21.4308 23.2858 21.4089 23.2858ZM23.3808 23.35H24.517C24.539 23.35 24.55 23.3393 24.55 23.3179C24.55 23.2965 24.5353 23.2858 24.506 23.2858H23.3111V25.3269H24.5206C24.5426 25.3269 24.5536 25.3162 24.5536 25.2948C24.5536 25.2733 24.539 25.2626 24.5133 25.2626H23.3771V24.3242H23.586C23.608 24.3242 23.619 24.3135 23.619 24.292C23.619 24.2706 23.6043 24.2599 23.575 24.2599H23.3734C23.3734 24.1029 23.3734 23.953 23.3734 23.8067C23.3808 23.6569 23.3808 23.507 23.3808 23.35ZM28.5927 25.3233H29.6483C29.6703 25.3233 29.6813 25.3126 29.6813 25.2912C29.6813 25.2698 29.6666 25.2591 29.641 25.2591H28.7027L29.674 23.4214L30.6526 25.3126C30.6599 25.3233 30.6673 25.3269 30.6819 25.3269C30.7039 25.3269 30.7149 25.3162 30.7149 25.2983V25.284L29.6703 23.2751L28.5927 25.3233ZM33.7057 23.978C33.7057 23.9994 33.7204 24.0101 33.7497 24.0101H34.2115V25.2591H33.6398C33.5042 25.2591 33.3795 25.2341 33.2622 25.1841C33.145 25.1342 33.0387 25.0664 32.9507 24.9772C32.8627 24.8915 32.7931 24.7916 32.7381 24.6739C32.6868 24.5597 32.6611 24.4348 32.6611 24.3063C32.6611 24.1743 32.6868 24.0494 32.7381 23.9352C32.7894 23.821 32.8591 23.7175 32.9507 23.6319C33.0387 23.5463 33.145 23.4784 33.2622 23.4249C33.3795 23.375 33.5078 23.35 33.6398 23.35H33.7204C33.7424 23.35 33.7534 23.3393 33.7534 23.3179C33.7534 23.2965 33.7387 23.2858 33.7094 23.2858H33.6361C33.4895 23.2858 33.3539 23.3107 33.2256 23.3643C33.0973 23.4178 32.9874 23.4892 32.8921 23.5819C32.7968 23.6747 32.7235 23.7818 32.6685 23.9067C32.6135 24.0315 32.5878 24.1636 32.5878 24.3063C32.5878 24.449 32.6135 24.5811 32.6685 24.7024C32.7235 24.8273 32.7968 24.9343 32.8921 25.0236C32.9874 25.1163 33.0973 25.1877 33.2256 25.2412C33.3539 25.2948 33.4895 25.3197 33.6361 25.3197H34.2775V23.9423H33.7314C33.7131 23.9495 33.7057 23.9602 33.7057 23.978ZM36.2091 23.35H37.3453C37.3673 23.35 37.3783 23.3393 37.3783 23.3179C37.3783 23.2965 37.3637 23.2858 37.3343 23.2858H36.1358V25.3269H37.3453C37.3673 25.3269 37.3783 25.3162 37.3783 25.2948C37.3783 25.2733 37.3637 25.2626 37.338 25.2626H36.2018V24.3242H36.4107C36.4327 24.3242 36.4437 24.3135 36.4437 24.292C36.4437 24.2706 36.429 24.2599 36.3997 24.2599H36.1981C36.1981 24.1029 36.1981 23.953 36.1981 23.8067C36.2054 23.6569 36.2091 23.507 36.2091 23.35ZM40.9629 23.2822C40.9409 23.2822 40.9299 23.2965 40.9299 23.3214V25.1663L39.2219 23.2715V25.2948C39.2219 25.3162 39.2329 25.3269 39.2549 25.3269C39.2769 25.3269 39.2879 25.3126 39.2879 25.2876V23.4535L40.9959 25.3483V23.3107C40.9959 23.2929 40.9849 23.2822 40.9629 23.2822ZM43.217 23.6319C43.305 23.5463 43.4113 23.4784 43.5286 23.4249C43.6459 23.375 43.7742 23.35 43.9061 23.35H44.4852C44.5072 23.35 44.5182 23.3393 44.5182 23.3179C44.5182 23.2965 44.5035 23.2858 44.4779 23.2858H43.9024C43.7595 23.2858 43.6239 23.3107 43.4956 23.3643C43.3673 23.4178 43.2574 23.4892 43.1621 23.5819C43.0668 23.6747 42.9935 23.7818 42.9385 23.9067C42.8835 24.0315 42.8542 24.1636 42.8542 24.3063C42.8542 24.449 42.8835 24.5811 42.9385 24.7024C42.9935 24.8273 43.0704 24.9343 43.1621 25.0236C43.2574 25.1163 43.3673 25.1877 43.4956 25.2412C43.6239 25.2948 43.7595 25.3197 43.9024 25.3197H44.4925C44.5072 25.3126 44.5145 25.3019 44.5145 25.2876C44.5145 25.2662 44.4999 25.2555 44.4742 25.2555H43.8988C43.7632 25.2555 43.6385 25.2305 43.5213 25.1806C43.404 25.1306 43.2977 25.0628 43.2097 24.9736C43.1217 24.888 43.0521 24.788 42.9971 24.6703C42.9458 24.5561 42.9202 24.4312 42.9202 24.3027C42.9202 24.1707 42.9458 24.0458 42.9971 23.9316C43.0558 23.8174 43.1291 23.7175 43.217 23.6319ZM47.9049 23.2858C47.9012 23.2858 47.8976 23.2858 47.8939 23.2858C47.8902 23.2858 47.8866 23.2893 47.8829 23.2965C47.7656 23.457 47.6447 23.6176 47.5237 23.7746C47.4027 23.9316 47.2855 24.0886 47.1645 24.2528C47.0729 24.135 46.9922 24.028 46.9226 23.9388C46.853 23.8496 46.7907 23.7711 46.7393 23.7033C46.688 23.6355 46.644 23.5784 46.6074 23.532C46.5707 23.4856 46.5451 23.4463 46.5194 23.4178C46.4681 23.3464 46.4351 23.3072 46.4278 23.2965C46.4205 23.2893 46.4131 23.2893 46.4058 23.2893C46.3801 23.2893 46.3691 23.3 46.3691 23.3214C46.3691 23.3321 46.3728 23.3393 46.3765 23.3429L47.1242 24.3206V25.2948C47.1242 25.3162 47.1352 25.3269 47.1608 25.3269C47.1828 25.3269 47.1902 25.3126 47.1902 25.2876V24.3206L47.9269 23.3464C47.9342 23.3393 47.9379 23.3286 47.9379 23.3179C47.9452 23.2965 47.9342 23.2858 47.9049 23.2858Z" fill="white"/>
<path d="M41.0504 25.4951L39.3424 23.6003V25.2988C39.3388 25.3631 39.2911 25.388 39.2545 25.388C39.1995 25.388 39.1665 25.3524 39.1665 25.3024V23.1328L40.8745 25.0276V23.3219C40.8745 23.2684 40.9112 23.2292 40.9625 23.2292C41.0138 23.2292 41.0504 23.2648 41.0504 23.3148V25.4951ZM40.9625 23.3362V23.2827V23.3362ZM20.3748 25.488L19.2899 23.3648C19.2826 23.3505 19.2789 23.3362 19.2789 23.3184C19.2789 23.2648 19.3156 23.2327 19.3669 23.2327C19.4035 23.2327 19.4328 23.2541 19.4475 23.2863L20.3785 25.0954C20.5288 24.8064 20.679 24.5209 20.8293 24.2354C20.9942 23.9214 21.1628 23.6003 21.3241 23.2791C21.3424 23.247 21.3718 23.2292 21.4084 23.2292C21.4634 23.2292 21.4964 23.2648 21.4964 23.3148C21.4964 23.3291 21.4964 23.3398 21.4891 23.3541L21.4854 23.3612L20.3748 25.488ZM3.61367 25.3845C3.55869 25.3845 3.52571 25.3488 3.52571 25.2988V23.2327H4.29541C4.4017 23.2327 4.50066 23.2506 4.59596 23.2898C4.68759 23.3291 4.77189 23.3826 4.84153 23.4504C4.91117 23.5182 4.96615 23.5967 5.00646 23.6895C5.04678 23.7787 5.06511 23.8786 5.06511 23.9821C5.06511 24.0856 5.04678 24.1819 5.00646 24.2747C4.96615 24.3639 4.91117 24.446 4.84153 24.5138C4.77189 24.5816 4.69125 24.6351 4.59596 24.6744C4.50432 24.7136 4.4017 24.7315 4.29541 24.7315H4.28075L4.80121 25.2382C4.83053 25.2632 4.8342 25.2881 4.8342 25.306C4.8342 25.3595 4.79754 25.3916 4.74623 25.3916C4.71691 25.3916 4.69125 25.3809 4.67659 25.3595L4.03151 24.735H3.70897V25.3024C3.7053 25.3524 3.66132 25.3845 3.61367 25.3845ZM3.7053 24.5495H4.29541C4.37238 24.5495 4.44935 24.5352 4.52265 24.5031C4.59229 24.4745 4.65827 24.4317 4.70958 24.3782C4.76089 24.3247 4.80487 24.264 4.8342 24.1962C4.86352 24.1284 4.88184 24.0535 4.88184 23.975C4.88184 23.8965 4.86718 23.8251 4.8342 23.7537C4.80487 23.6823 4.76089 23.6217 4.70958 23.5717C4.65827 23.5182 4.59596 23.4789 4.52265 23.4468C4.45301 23.4183 4.37604 23.4004 4.29541 23.4004H3.7053V24.5495ZM47.1677 25.3773C47.1128 25.3773 47.0761 25.3417 47.0761 25.2917V24.3354L46.3431 23.3719C46.3284 23.3576 46.3211 23.3362 46.3211 23.3148C46.3211 23.2613 46.3577 23.2292 46.4127 23.2292C46.4384 23.2292 46.4567 23.2363 46.475 23.2541L46.4823 23.2613C46.486 23.2684 46.5043 23.2898 46.5703 23.379C46.5923 23.4111 46.6216 23.4504 46.6583 23.4932C46.6949 23.5396 46.7352 23.5967 46.7865 23.6609C46.8379 23.7287 46.9002 23.8072 46.9698 23.8965C47.0285 23.9714 47.0944 24.057 47.1677 24.1534C47.274 24.0106 47.3803 23.8715 47.4829 23.7359C47.6039 23.5789 47.7212 23.4183 47.8421 23.2613L47.8495 23.2541C47.8605 23.2434 47.8715 23.2363 47.8825 23.2327C47.8898 23.2292 47.9008 23.2292 47.9118 23.2292C47.9777 23.2292 48.0107 23.272 48.0107 23.3148C48.0107 23.3398 48.0034 23.3612 47.9851 23.3755L47.263 24.3318V25.281C47.2557 25.3488 47.2117 25.3773 47.1677 25.3773ZM44.5068 25.3773H43.9057C43.7554 25.3773 43.6124 25.3488 43.4768 25.2917C43.3449 25.2346 43.2276 25.1597 43.1286 25.0633C43.0297 24.967 42.949 24.8528 42.8904 24.7243C42.8317 24.5959 42.8024 24.4531 42.8024 24.3068C42.8024 24.1569 42.8317 24.0178 42.8904 23.8857C42.949 23.7573 43.0297 23.6431 43.125 23.5432C43.2239 23.4468 43.3412 23.3683 43.4732 23.3112C43.6051 23.2541 43.7517 23.2256 43.902 23.2256H44.4811C44.5471 23.2292 44.5727 23.2755 44.5727 23.3112C44.5727 23.3648 44.5361 23.3969 44.4848 23.3969H43.9057C43.7811 23.3969 43.6601 23.4219 43.5501 23.4682C43.4365 23.5146 43.3376 23.5824 43.2569 23.6609C43.1726 23.743 43.1066 23.8394 43.059 23.9464C43.0113 24.0535 42.9857 24.1712 42.9857 24.2961C42.9857 24.4174 43.0113 24.5352 43.059 24.6422C43.1066 24.7493 43.1763 24.8456 43.2569 24.9277C43.3412 25.0098 43.4402 25.074 43.5501 25.1204C43.6601 25.1668 43.7811 25.1918 43.9057 25.1918H44.4848C44.5507 25.1954 44.5764 25.2417 44.5764 25.2774C44.5764 25.3167 44.5544 25.3488 44.5178 25.3595L44.5068 25.3773ZM37.3449 25.3773H36.0804V23.2292H37.3339C37.3999 23.2292 37.4328 23.272 37.4328 23.3148C37.4328 23.3683 37.3962 23.4004 37.3449 23.4004H36.2636C36.2636 23.536 36.2636 23.6716 36.2636 23.8001C36.2636 23.9286 36.2636 24.0606 36.2636 24.1998H36.4102C36.4762 24.1998 36.5092 24.2426 36.5092 24.2854C36.5092 24.3389 36.4726 24.371 36.4212 24.371H36.2673V25.2025H37.3485C37.4035 25.2025 37.4438 25.2382 37.4438 25.2881C37.4328 25.3417 37.3999 25.3773 37.3449 25.3773ZM34.3357 25.3773H33.6393C33.4854 25.3773 33.3424 25.3488 33.2068 25.2917C33.0749 25.2346 32.9576 25.1597 32.8586 25.0633C32.7597 24.967 32.679 24.8528 32.6241 24.7243C32.5654 24.5959 32.5361 24.4531 32.5361 24.3068C32.5361 24.1569 32.5654 24.0178 32.6241 23.8857C32.6827 23.7573 32.7597 23.6395 32.8586 23.5432C32.9576 23.4468 33.0749 23.3683 33.2068 23.3112C33.3388 23.2541 33.4854 23.2256 33.6393 23.2256H33.7126C33.7786 23.2256 33.8116 23.2684 33.8116 23.3112C33.8116 23.3648 33.7749 23.3969 33.7236 23.3969H33.643C33.5184 23.3969 33.3974 23.4219 33.2875 23.4682C33.1738 23.5146 33.0749 23.5824 32.9942 23.6609C32.9099 23.743 32.844 23.8394 32.7963 23.9464C32.7487 24.0535 32.723 24.1712 32.723 24.2961C32.723 24.4174 32.7487 24.5352 32.7963 24.6422C32.844 24.7493 32.9136 24.8456 32.9942 24.9277C33.0785 25.0098 33.1775 25.074 33.2875 25.1204C33.3974 25.1668 33.5184 25.1918 33.6467 25.1918H34.1635V24.0535H33.7566C33.6906 24.0535 33.6577 24.0106 33.6577 23.9678C33.6577 23.925 33.687 23.8893 33.731 23.8822H33.742H34.3431V25.3773H34.3357ZM33.7383 23.9785H33.7566H33.7383ZM33.731 23.9785H33.7016H33.731ZM30.6851 25.3773C30.6375 25.3773 30.6155 25.3524 30.6082 25.3381L30.6045 25.3345L29.6735 23.536L28.7939 25.2025H29.6405C29.6955 25.2025 29.7358 25.2382 29.7358 25.2881C29.7358 25.3417 29.6992 25.3738 29.6479 25.3738H28.5007L29.6735 23.1507L30.7731 25.2632V25.2881C30.7768 25.3452 30.7401 25.3773 30.6851 25.3773ZM24.5202 25.3773H23.2557V23.2292H24.5092C24.5752 23.2292 24.6082 23.272 24.6082 23.3148C24.6082 23.3683 24.5715 23.4004 24.5202 23.4004H23.439C23.439 23.536 23.439 23.6716 23.439 23.8001C23.439 23.9286 23.439 24.0606 23.439 24.1998H23.5856C23.6515 24.1998 23.6845 24.2426 23.6845 24.2854C23.6845 24.3389 23.6479 24.371 23.5966 24.371H23.4426V25.2025H24.5239C24.5788 25.2025 24.6192 25.2382 24.6192 25.2881C24.6082 25.3417 24.5715 25.3773 24.5202 25.3773ZM17.4719 25.3773C17.4353 25.3773 17.417 25.3631 17.406 25.3488C17.3913 25.3345 17.384 25.3131 17.384 25.2917V23.3148C17.384 23.2648 17.4206 23.2327 17.4719 23.2327C17.5159 23.2327 17.5526 23.2613 17.5599 23.3041V23.3148V25.2953C17.5599 25.3202 17.5526 25.3417 17.5343 25.3559C17.5196 25.3702 17.4976 25.3773 17.4719 25.3773ZM14.7817 25.3773C14.7267 25.3773 14.6937 25.3417 14.6937 25.2917V23.404H13.946C13.9057 23.404 13.8617 23.3755 13.8617 23.3184C13.8617 23.2648 13.8947 23.2327 13.946 23.2327H15.5624C15.588 23.2327 15.61 23.2434 15.6283 23.2613C15.643 23.2791 15.6503 23.297 15.6503 23.3184C15.6503 23.3719 15.6137 23.404 15.5624 23.404H14.8696V25.2846C14.8696 25.3417 14.833 25.3773 14.7817 25.3773ZM12.0217 25.3773C11.9741 25.3773 11.9521 25.3524 11.9448 25.3381L11.9411 25.3345L11.0101 23.536L10.1305 25.2025H10.9771C11.0321 25.2025 11.0724 25.2382 11.0724 25.2881C11.0724 25.3417 11.0358 25.3738 10.9845 25.3738H9.83725L11.0101 23.1507L12.1097 25.2632V25.2881C12.1097 25.3452 12.073 25.3773 12.0217 25.3773ZM8.06694 25.3773H6.80243V23.2292H8.05594C8.12192 23.2292 8.15491 23.272 8.15491 23.3148C8.15491 23.3683 8.11825 23.4004 8.06694 23.4004H6.98569C6.98569 23.536 6.98569 23.6716 6.98569 23.8001C6.98569 23.9286 6.98569 24.0606 6.98569 24.1998H7.1323C7.19828 24.1998 7.23126 24.2426 7.23126 24.2854C7.23126 24.3389 7.19461 24.371 7.1433 24.371H6.98936V25.2025H8.0706C8.12558 25.2025 8.1659 25.2382 8.1659 25.2881C8.15491 25.3417 8.11825 25.3773 8.06694 25.3773ZM1.71874 25.3773H1.11764C0.967367 25.3773 0.824423 25.3488 0.688809 25.2917C0.55686 25.2346 0.439572 25.1597 0.340611 25.0633C0.241649 24.967 0.161014 24.8528 0.10237 24.7243C0.0437262 24.5959 0.0144043 24.4531 0.0144043 24.3068C0.0144043 24.1569 0.0437262 24.0178 0.10237 23.8857C0.161014 23.7573 0.241649 23.6431 0.336946 23.5432C0.435907 23.4468 0.553195 23.3683 0.685143 23.3112C0.817092 23.2541 0.963702 23.2256 1.11398 23.2256H1.69308C1.75906 23.2292 1.78472 23.2755 1.78472 23.3112C1.78472 23.3648 1.74806 23.3969 1.69675 23.3969H1.11764C0.993024 23.3969 0.872071 23.4219 0.762114 23.4682C0.648491 23.5146 0.54953 23.5824 0.468894 23.6609C0.384594 23.743 0.318619 23.8394 0.270971 23.9464C0.223323 24.0535 0.197666 24.1712 0.197666 24.2961C0.197666 24.4174 0.223323 24.5352 0.270971 24.6422C0.318619 24.7493 0.388259 24.8456 0.468894 24.9277C0.553195 25.0098 0.652156 25.074 0.762114 25.1204C0.872071 25.1668 0.993024 25.1918 1.12131 25.1918H1.70042C1.76639 25.1954 1.79205 25.2417 1.79205 25.2774C1.79205 25.3167 1.77005 25.3488 1.7334 25.3595L1.71874 25.3773Z" fill="white"/>
<path fill-rule="evenodd" clip-rule="evenodd" d="M23.201 17.4082L33.2474 0.494141H30.6231C28.8161 3.53796 25.664 8.85126 23.1533 13.0869L22.2957 11.6168L28.8894 0.494141H26.2651C24.6927 3.14544 22.7941 6.34984 20.9945 9.38652L20.1332 7.91278C21.6359 5.37924 23.1827 2.77076 24.5315 0.497709H21.9072C20.9322 2.14273 19.8803 3.91621 18.832 5.68255L17.9927 4.24093H13.6677H7.44044C5.27062 4.24093 4.21503 4.34798 4.21503 4.34798C5.29994 2.75649 7.44044 2.7779 7.44044 2.7779H17.124L15.8119 0.565508H7.58705C3.84117 0.565508 0.806353 3.52012 0.806353 7.16699C0.806353 10.8139 3.84117 13.8042 7.58705 13.8042H11.912C12.3189 13.8149 12.6451 14.136 12.6451 14.5357C12.6451 14.9353 12.3189 15.2565 11.912 15.2672H3.47098L2.15883 17.4796H5.84606C8.41173 17.4796 11.0397 17.4796 11.3952 17.4796C11.4209 17.4796 11.5235 17.4796 11.5565 17.4796C11.967 17.476 14.9542 17.3476 14.9542 13.9469C14.9542 13.9469 16.2004 14.111 16.2004 15.624C16.2004 15.624 16.2004 18.8855 11.5565 18.9069C11.5418 18.9069 11.4282 18.9069 11.4099 18.9069C10.8858 18.9069 3.56628 18.9069 1.31582 18.9069L0 21.1193H11.9487C14.9249 21.1015 17.4502 19.2209 18.3445 16.6089L21.0018 21.1193L22.3213 18.9069L14.9432 6.45332H16.6768L23.201 17.4082ZM7.58705 6.45332H12.3225L13.2682 8.04838C12.843 7.96274 12.3995 7.91992 11.9487 7.91635H7.58705C7.18021 7.90565 6.854 7.58449 6.854 7.18483C6.854 6.78518 7.18021 6.46402 7.58705 6.45332ZM15.3574 11.6988C15.3574 11.6988 14.2211 11.5918 12.2419 11.5918C12.2419 11.5918 8.87721 11.5918 8.13317 11.5918C8.04154 11.5918 7.92425 11.5918 7.90959 11.5918C3.00916 11.5704 3.40867 8.30887 3.40867 8.30887C3.40867 6.79588 4.65486 6.63174 4.65486 6.63174C4.65486 10.0074 7.45877 10.1323 7.89493 10.1287C7.93158 10.1287 8.05254 10.1287 8.16249 10.1287C8.96518 10.1287 12.2382 10.1287 12.2382 10.1287C12.2382 10.1287 14.1405 9.95389 15.3574 11.6988Z" fill="#FF9600"/>
<path fill-rule="evenodd" clip-rule="evenodd" d="M35.5236 0.601192L35.4796 0.494141L23.0471 21.1193C23.278 21.205 29.7362 21.1193 29.7362 21.1193L33.2365 15.2137C34.4277 17.2227 35.6592 19.3066 36.7405 21.1336H47.8975L35.5236 0.601192ZM34.5487 13.0013L35.4283 11.5204C36.4289 13.2082 37.4919 15.046 38.4778 16.7088H41.1021L35.399 7.14558L28.4167 18.9212C27.7716 18.9212 27.1888 18.9176 26.683 18.9176L35.4247 4.1767C35.6959 4.63345 42.4033 15.9773 44.1479 18.9248H38.0526L34.5487 13.0013Z" fill="white"/>
</svg>
