<svg width="575" height="746" viewBox="0 0 575 746" fill="none" xmlns="http://www.w3.org/2000/svg">
<path d="M27 11.5H47.5C49.433 11.5 51 13.067 51 15V32C51 33.933 49.433 35.5 47.5 35.5H27V11.5Z" fill="#CCCCCC" stroke="#808080"/>
<path d="M535 15C535 13.067 536.567 11.5 538.5 11.5H559V35.5H538.5C536.567 35.5 535 33.933 535 32V15Z" fill="#CCCCCC" stroke="#808080"/>
<path d="M365 706C365 707.933 363.433 709.5 361.5 709.5L341 709.5L341 685.5L361.5 685.5C363.433 685.5 365 687.067 365 689L365 706Z" fill="#CCCCCC" stroke="#808080"/>
<path d="M21.5 371H40.5C42.7091 371 44.5 372.791 44.5 375V409C44.5 411.209 42.7091 413 40.5 413H21.5V371Z" fill="#CCCCCC"/>
<path d="M21.5 371H22.5C24.7091 371 26.5 372.791 26.5 375V409C26.5 411.209 24.7091 413 22.5 413H21.5V371Z" fill="#808080"/>
<path d="M21.5 435H40.5C42.7091 435 44.5 436.791 44.5 439V473C44.5 475.209 42.7091 477 40.5 477H21.5V435Z" fill="#CCCCCC"/>
<path d="M21.5 435H22.5C24.7091 435 26.5 436.791 26.5 439V473C26.5 475.209 24.7091 477 22.5 477H21.5V435Z" fill="#808080"/>
<path d="M21.5 499H40.5C42.7091 499 44.5 500.791 44.5 503V537C44.5 539.209 42.7091 541 40.5 541H21.5V499Z" fill="#CCCCCC"/>
<path d="M21.5 499H22.5C24.7091 499 26.5 500.791 26.5 503V537C26.5 539.209 24.7091 541 22.5 541H21.5V499Z" fill="#808080"/>
<path d="M21.5 563H40.5C42.7091 563 44.5 564.791 44.5 567V601C44.5 603.209 42.7091 605 40.5 605H21.5V563Z" fill="#CCCCCC"/>
<path d="M21.5 563H22.5C24.7091 563 26.5 564.791 26.5 567V601C26.5 603.209 24.7091 605 22.5 605H21.5V563Z" fill="#808080"/>
<path d="M60 11.5H68V33C68 34.3807 66.8807 35.5 65.5 35.5H62.5C61.1193 35.5 60 34.3807 60 33V11.5Z" fill="#CCCCCC" stroke="#808080"/>
<path d="M68 11.5H76V33C76 34.3807 74.8807 35.5 73.5 35.5H70.5C69.1193 35.5 68 34.3807 68 33V11.5Z" fill="#CCCCCC" stroke="#808080"/>
<path d="M76 11.5H84V33C84 34.3807 82.8807 35.5 81.5 35.5H78.5C77.1193 35.5 76 34.3807 76 33V11.5Z" fill="#CCCCCC" stroke="#808080"/>
<path d="M84 11.5H92V33C92 34.3807 90.8807 35.5 89.5 35.5H86.5C85.1193 35.5 84 34.3807 84 33V11.5Z" fill="#CCCCCC" stroke="#808080"/>
<path d="M92 11.5H100V33C100 34.3807 98.8807 35.5 97.5 35.5H94.5C93.1193 35.5 92 34.3807 92 33V11.5Z" fill="#CCCCCC" stroke="#808080"/>
<path d="M100 11.5H108V33C108 34.3807 106.881 35.5 105.5 35.5H102.5C101.119 35.5 100 34.3807 100 33V11.5Z" fill="#CCCCCC" stroke="#808080"/>
<path d="M108 11.5H116V33C116 34.3807 114.881 35.5 113.5 35.5H110.5C109.119 35.5 108 34.3807 108 33V11.5Z" fill="#CCCCCC" stroke="#808080"/>
<path d="M140 11.5H148V33C148 34.3807 146.881 35.5 145.5 35.5H142.5C141.119 35.5 140 34.3807 140 33V11.5Z" fill="#CCCCCC" stroke="#808080"/>
<path d="M116 11.5H124V33C124 34.3807 122.881 35.5 121.5 35.5H118.5C117.119 35.5 116 34.3807 116 33V11.5Z" fill="#CCCCCC" stroke="#808080"/>
<path d="M148 11.5H156V33C156 34.3807 154.881 35.5 153.5 35.5H150.5C149.119 35.5 148 34.3807 148 33V11.5Z" fill="#CCCCCC" stroke="#808080"/>
<path d="M171.5 11.5H179.5V33C179.5 34.3807 178.381 35.5 177 35.5H174C172.619 35.5 171.5 34.3807 171.5 33V11.5Z" fill="#CCCCCC" stroke="#808080"/>
<path d="M124 11.5H132V33C132 34.3807 130.881 35.5 129.5 35.5H126.5C125.119 35.5 124 34.3807 124 33V11.5Z" fill="#CCCCCC" stroke="#808080"/>
<path d="M156 11.5H164V33C164 34.3807 162.881 35.5 161.5 35.5H158.5C157.119 35.5 156 34.3807 156 33V11.5Z" fill="#CCCCCC" stroke="#808080"/>
<path d="M179.5 11.5H187.5V33C187.5 34.3807 186.381 35.5 185 35.5H182C180.619 35.5 179.5 34.3807 179.5 33V11.5Z" fill="#CCCCCC" stroke="#808080"/>
<path d="M132 11.5H140V33C140 34.3807 138.881 35.5 137.5 35.5H134.5C133.119 35.5 132 34.3807 132 33V11.5Z" fill="#CCCCCC" stroke="#808080"/>
<path d="M164 11.5H172V33C172 34.3807 170.881 35.5 169.5 35.5H166.5C165.119 35.5 164 34.3807 164 33V11.5Z" fill="#CCCCCC" stroke="#808080"/>
<path d="M187.5 11.5H195.5V33C195.5 34.3807 194.381 35.5 193 35.5H190C188.619 35.5 187.5 34.3807 187.5 33V11.5Z" fill="#CCCCCC" stroke="#808080"/>
<path d="M414 11.5H422V33C422 34.3807 420.881 35.5 419.5 35.5H416.5C415.119 35.5 414 34.3807 414 33V11.5Z" fill="#CCCCCC" stroke="#808080"/>
<path d="M422 11.5H430V33C430 34.3807 428.881 35.5 427.5 35.5H424.5C423.119 35.5 422 34.3807 422 33V11.5Z" fill="#CCCCCC" stroke="#808080"/>
<path d="M430 11.5H438V33C438 34.3807 436.881 35.5 435.5 35.5H432.5C431.119 35.5 430 34.3807 430 33V11.5Z" fill="#CCCCCC" stroke="#808080"/>
<path d="M438 11.5H446V33C446 34.3807 444.881 35.5 443.5 35.5H440.5C439.119 35.5 438 34.3807 438 33V11.5Z" fill="#CCCCCC" stroke="#808080"/>
<path d="M446 11.5H454V33C454 34.3807 452.881 35.5 451.5 35.5H448.5C447.119 35.5 446 34.3807 446 33V11.5Z" fill="#CCCCCC" stroke="#808080"/>
<path d="M454 11.5H462V33C462 34.3807 460.881 35.5 459.5 35.5H456.5C455.119 35.5 454 34.3807 454 33V11.5Z" fill="#CCCCCC" stroke="#808080"/>
<path d="M462 11.5H470V33C470 34.3807 468.881 35.5 467.5 35.5H464.5C463.119 35.5 462 34.3807 462 33V11.5Z" fill="#CCCCCC" stroke="#808080"/>
<path d="M494 11.5H502V33C502 34.3807 500.881 35.5 499.5 35.5H496.5C495.119 35.5 494 34.3807 494 33V11.5Z" fill="#CCCCCC" stroke="#808080"/>
<path d="M470 11.5H478V33C478 34.3807 476.881 35.5 475.5 35.5H472.5C471.119 35.5 470 34.3807 470 33V11.5Z" fill="#CCCCCC" stroke="#808080"/>
<path d="M502 11.5H510V33C510 34.3807 508.881 35.5 507.5 35.5H504.5C503.119 35.5 502 34.3807 502 33V11.5Z" fill="#CCCCCC" stroke="#808080"/>
<path d="M478 11.5H486V33C486 34.3807 484.881 35.5 483.5 35.5H480.5C479.119 35.5 478 34.3807 478 33V11.5Z" fill="#CCCCCC" stroke="#808080"/>
<path d="M510 11.5H518V33C518 34.3807 516.881 35.5 515.5 35.5H512.5C511.119 35.5 510 34.3807 510 33V11.5Z" fill="#CCCCCC" stroke="#808080"/>
<path d="M486 11.5H494V33C494 34.3807 492.881 35.5 491.5 35.5H488.5C487.119 35.5 486 34.3807 486 33V11.5Z" fill="#CCCCCC" stroke="#808080"/>
<path d="M518 11.5H526V33C526 34.3807 524.881 35.5 523.5 35.5H520.5C519.119 35.5 518 34.3807 518 33V11.5Z" fill="#CCCCCC" stroke="#808080"/>
<path d="M366.5 11.5H374.5V33C374.5 34.3807 373.381 35.5 372 35.5H369C367.619 35.5 366.5 34.3807 366.5 33V11.5Z" fill="#CCCCCC" stroke="#808080"/>
<path d="M374.5 11.5H382.5V33C382.5 34.3807 381.381 35.5 380 35.5H377C375.619 35.5 374.5 34.3807 374.5 33V11.5Z" fill="#CCCCCC" stroke="#808080"/>
<path d="M382.5 11.5H390.5V33C390.5 34.3807 389.381 35.5 388 35.5H385C383.619 35.5 382.5 34.3807 382.5 33V11.5Z" fill="#CCCCCC" stroke="#808080"/>
<path d="M390.5 11.5H398.5V33C398.5 34.3807 397.381 35.5 396 35.5H393C391.619 35.5 390.5 34.3807 390.5 33V11.5Z" fill="#CCCCCC" stroke="#808080"/>
<path d="M398.5 11.5H406.5V33C406.5 34.3807 405.381 35.5 404 35.5H401C399.619 35.5 398.5 34.3807 398.5 33V11.5Z" fill="#CCCCCC" stroke="#808080"/>
<path d="M406.5 11.5H414.5V33C414.5 34.3807 413.381 35.5 412 35.5H409C407.619 35.5 406.5 34.3807 406.5 33V11.5Z" fill="#CCCCCC" stroke="#808080"/>
<path d="M334.5 11.5H342.5V33C342.5 34.3807 341.381 35.5 340 35.5H337C335.619 35.5 334.5 34.3807 334.5 33V11.5Z" fill="#CCCCCC" stroke="#808080"/>
<path d="M342.5 11.5H350.5V33C350.5 34.3807 349.381 35.5 348 35.5H345C343.619 35.5 342.5 34.3807 342.5 33V11.5Z" fill="#CCCCCC" stroke="#808080"/>
<path d="M350.5 11.5H358.5V33C358.5 34.3807 357.381 35.5 356 35.5H353C351.619 35.5 350.5 34.3807 350.5 33V11.5Z" fill="#CCCCCC" stroke="#808080"/>
<path d="M358.5 11.5H366.5V33C366.5 34.3807 365.381 35.5 364 35.5H361C359.619 35.5 358.5 34.3807 358.5 33V11.5Z" fill="#CCCCCC" stroke="#808080"/>
<path d="M559 46.5L559 54.5L537.5 54.5C536.119 54.5 535 53.3807 535 52L535 49C535 47.6193 536.119 46.5 537.5 46.5L559 46.5Z" fill="#CCCCCC" stroke="#808080"/>
<path d="M559 54.5L559 62.5L537.5 62.5C536.119 62.5 535 61.3807 535 60L535 57C535 55.6193 536.119 54.5 537.5 54.5L559 54.5Z" fill="#CCCCCC" stroke="#808080"/>
<path d="M559 62.5L559 70.5L537.5 70.5C536.119 70.5 535 69.3807 535 68L535 65C535 63.6193 536.119 62.5 537.5 62.5L559 62.5Z" fill="#CCCCCC" stroke="#808080"/>
<path d="M559 70.5L559 78.5L537.5 78.5C536.119 78.5 535 77.3807 535 76L535 73C535 71.6193 536.119 70.5 537.5 70.5L559 70.5Z" fill="#CCCCCC" stroke="#808080"/>
<path d="M559 78.5L559 86.5L537.5 86.5C536.119 86.5 535 85.3807 535 84L535 81C535 79.6193 536.119 78.5 537.5 78.5L559 78.5Z" fill="#CCCCCC" stroke="#808080"/>
<path d="M27 86.5L27 78.5L48.5 78.5C49.8807 78.5 51 79.6193 51 81L51 84C51 85.3807 49.8807 86.5 48.5 86.5L27 86.5Z" fill="#CCCCCC" stroke="#808080"/>
<path d="M27 78.5L27 70.5L48.5 70.5C49.8807 70.5 51 71.6193 51 73L51 76C51 77.3807 49.8807 78.5 48.5 78.5L27 78.5Z" fill="#CCCCCC" stroke="#808080"/>
<path d="M27 70.5L27 62.5L48.5 62.5C49.8807 62.5 51 63.6193 51 65L51 68C51 69.3807 49.8807 70.5 48.5 70.5L27 70.5Z" fill="#CCCCCC" stroke="#808080"/>
<path d="M27 62.5L27 54.5L48.5 54.5C49.8807 54.5 51 55.6193 51 57L51 60C51 61.3807 49.8807 62.5 48.5 62.5L27 62.5Z" fill="#CCCCCC" stroke="#808080"/>
<path d="M27 54.5L27 46.5L48.5 46.5C49.8807 46.5 51 47.6193 51 49L51 52C51 53.3807 49.8807 54.5 48.5 54.5L27 54.5Z" fill="#CCCCCC" stroke="#808080"/>
<path d="M562 588.5L562 596.5L540.5 596.5C539.119 596.5 538 595.381 538 594L538 591C538 589.619 539.119 588.5 540.5 588.5L562 588.5Z" fill="#CCCCCC" stroke="#808080"/>
<path d="M562 596.5L562 604.5L540.5 604.5C539.119 604.5 538 603.381 538 602L538 599C538 597.619 539.119 596.5 540.5 596.5L562 596.5Z" fill="#CCCCCC" stroke="#808080"/>
<path d="M562 604.5L562 612.5L540.5 612.5C539.119 612.5 538 611.381 538 610L538 607C538 605.619 539.119 604.5 540.5 604.5L562 604.5Z" fill="#CCCCCC" stroke="#808080"/>
<path d="M562 612.5L562 620.5L540.5 620.5C539.119 620.5 538 619.381 538 618L538 615C538 613.619 539.119 612.5 540.5 612.5L562 612.5Z" fill="#CCCCCC" stroke="#808080"/>
<path d="M562 620.5L562 628.5L540.5 628.5C539.119 628.5 538 627.381 538 626L538 623C538 621.619 539.119 620.5 540.5 620.5L562 620.5Z" fill="#CCCCCC" stroke="#808080"/>
<path d="M562 628.5L562 636.5L540.5 636.5C539.119 636.5 538 635.381 538 634L538 631C538 629.619 539.119 628.5 540.5 628.5L562 628.5Z" fill="#CCCCCC" stroke="#808080"/>
<path d="M562 636.5L562 644.5L540.5 644.5C539.119 644.5 538 643.381 538 642L538 639C538 637.619 539.119 636.5 540.5 636.5L562 636.5Z" fill="#CCCCCC" stroke="#808080"/>
<path d="M562 668.5L562 676.5L540.5 676.5C539.119 676.5 538 675.381 538 674L538 671C538 669.619 539.119 668.5 540.5 668.5L562 668.5Z" fill="#CCCCCC" stroke="#808080"/>
<path d="M562 644.5L562 652.5L540.5 652.5C539.119 652.5 538 651.381 538 650L538 647C538 645.619 539.119 644.5 540.5 644.5L562 644.5Z" fill="#CCCCCC" stroke="#808080"/>
<path d="M562 676.5L562 684.5L540.5 684.5C539.119 684.5 538 683.381 538 682L538 679C538 677.619 539.119 676.5 540.5 676.5L562 676.5Z" fill="#CCCCCC" stroke="#808080"/>
<path d="M562 652.5L562 660.5L540.5 660.5C539.119 660.5 538 659.381 538 658L538 655C538 653.619 539.119 652.5 540.5 652.5L562 652.5Z" fill="#CCCCCC" stroke="#808080"/>
<path d="M562 684.5L562 692.5L540.5 692.5C539.119 692.5 538 691.381 538 690L538 687C538 685.619 539.119 684.5 540.5 684.5L562 684.5Z" fill="#CCCCCC" stroke="#808080"/>
<path d="M562 660.5L562 668.5L540.5 668.5C539.119 668.5 538 667.381 538 666L538 663C538 661.619 539.119 660.5 540.5 660.5L562 660.5Z" fill="#CCCCCC" stroke="#808080"/>
<path d="M562 692.5L562 700.5L540.5 700.5C539.119 700.5 538 699.381 538 698L538 695C538 693.619 539.119 692.5 540.5 692.5L562 692.5Z" fill="#CCCCCC" stroke="#808080"/>
<path d="M562 524.5L562 532.5L540.5 532.5C539.119 532.5 538 531.381 538 530L538 527C538 525.619 539.119 524.5 540.5 524.5L562 524.5Z" fill="#CCCCCC" stroke="#808080"/>
<path d="M562 532.5L562 540.5L540.5 540.5C539.119 540.5 538 539.381 538 538L538 535C538 533.619 539.119 532.5 540.5 532.5L562 532.5Z" fill="#CCCCCC" stroke="#808080"/>
<path d="M562 540.5L562 548.5L540.5 548.5C539.119 548.5 538 547.381 538 546L538 543C538 541.619 539.119 540.5 540.5 540.5L562 540.5Z" fill="#CCCCCC" stroke="#808080"/>
<path d="M562 548.5L562 556.5L540.5 556.5C539.119 556.5 538 555.381 538 554L538 551C538 549.619 539.119 548.5 540.5 548.5L562 548.5Z" fill="#CCCCCC" stroke="#808080"/>
<path d="M562 556.5L562 564.5L540.5 564.5C539.119 564.5 538 563.381 538 562L538 559C538 557.619 539.119 556.5 540.5 556.5L562 556.5Z" fill="#CCCCCC" stroke="#808080"/>
<path d="M562 564.5L562 572.5L540.5 572.5C539.119 572.5 538 571.381 538 570L538 567C538 565.619 539.119 564.5 540.5 564.5L562 564.5Z" fill="#CCCCCC" stroke="#808080"/>
<path d="M562 572.5L562 580.5L540.5 580.5C539.119 580.5 538 579.381 538 578L538 575C538 573.619 539.119 572.5 540.5 572.5L562 572.5Z" fill="#CCCCCC" stroke="#808080"/>
<path d="M562 580.5L562 588.5L540.5 588.5C539.119 588.5 538 587.381 538 586L538 583C538 581.619 539.119 580.5 540.5 580.5L562 580.5Z" fill="#CCCCCC" stroke="#808080"/>
<path d="M341 676.5L341 668.5L362.5 668.5C363.881 668.5 365 669.619 365 671L365 674C365 675.381 363.881 676.5 362.5 676.5L341 676.5Z" fill="#CCCCCC" stroke="#808080"/>
<path d="M341 668.5L341 660.5L362.5 660.5C363.881 660.5 365 661.619 365 663L365 666C365 667.381 363.881 668.5 362.5 668.5L341 668.5Z" fill="#CCCCCC" stroke="#808080"/>
<path d="M341 660.5L341 652.5L362.5 652.5C363.881 652.5 365 653.619 365 655L365 658C365 659.381 363.881 660.5 362.5 660.5L341 660.5Z" fill="#CCCCCC" stroke="#808080"/>
<path d="M341 652.5L341 644.5L362.5 644.5C363.881 644.5 365 645.619 365 647L365 650C365 651.381 363.881 652.5 362.5 652.5L341 652.5Z" fill="#CCCCCC" stroke="#808080"/>
<path d="M341 644.5L341 636.5L362.5 636.5C363.881 636.5 365 637.619 365 639L365 642C365 643.381 363.881 644.5 362.5 644.5L341 644.5Z" fill="#CCCCCC" stroke="#808080"/>
<path d="M422 709.5L414 709.5L414 688C414 686.619 415.119 685.5 416.5 685.5L419.5 685.5C420.881 685.5 422 686.619 422 688L422 709.5Z" fill="#CCCCCC" stroke="#808080"/>
<path d="M414 709.5L406 709.5L406 688C406 686.619 407.119 685.5 408.5 685.5L411.5 685.5C412.881 685.5 414 686.619 414 688L414 709.5Z" fill="#CCCCCC" stroke="#808080"/>
<path d="M406 709.5L398 709.5L398 688C398 686.619 399.119 685.5 400.5 685.5L403.5 685.5C404.881 685.5 406 686.619 406 688L406 709.5Z" fill="#CCCCCC" stroke="#808080"/>
<path d="M398 709.5L390 709.5L390 688C390 686.619 391.119 685.5 392.5 685.5L395.5 685.5C396.881 685.5 398 686.619 398 688L398 709.5Z" fill="#CCCCCC" stroke="#808080"/>
<path d="M390 709.5L382 709.5L382 688C382 686.619 383.119 685.5 384.5 685.5L387.5 685.5C388.881 685.5 390 686.619 390 688L390 709.5Z" fill="#CCCCCC" stroke="#808080"/>
<path d="M382 709.5L374 709.5L374 688C374 686.619 375.119 685.5 376.5 685.5L379.5 685.5C380.881 685.5 382 686.619 382 688L382 709.5Z" fill="#CCCCCC" stroke="#808080"/>
<path d="M445.5 709.5L437.5 709.5L437.5 688C437.5 686.619 438.619 685.5 440 685.5L443 685.5C444.381 685.5 445.5 686.619 445.5 688L445.5 709.5Z" fill="#CCCCCC" stroke="#808080"/>
<path d="M437.5 709.5L429.5 709.5L429.5 688C429.5 686.619 430.619 685.5 432 685.5L435 685.5C436.381 685.5 437.5 686.619 437.5 688L437.5 709.5Z" fill="#CCCCCC" stroke="#808080"/>
<path d="M429.5 709.5L421.5 709.5L421.5 688C421.5 686.619 422.619 685.5 424 685.5L427 685.5C428.381 685.5 429.5 686.619 429.5 688L429.5 709.5Z" fill="#CCCCCC" stroke="#808080"/>
<path d="M328.5 549L312.5 549L312.5 530L328.5 530L328.5 549Z" fill="#CCCCCC"/>
<path d="M328.5 534L312.5 534L312.5 530L328.5 530L328.5 534Z" fill="#808080"/>
<path d="M362.5 549L346.5 549L346.5 530L362.5 530L362.5 549Z" fill="#CCCCCC"/>
<path d="M362.5 534L346.5 534L346.5 530L362.5 530L362.5 534Z" fill="#808080"/>
<path d="M408.5 549L392.5 549L392.5 530L408.5 530L408.5 549Z" fill="#CCCCCC"/>
<path d="M408.5 534L392.5 534L392.5 530L408.5 530L408.5 534Z" fill="#808080"/>
<path d="M392.5 582L408.5 582L408.5 601L392.5 601L392.5 582Z" fill="#CCCCCC"/>
<path d="M392.5 597L408.5 597L408.5 601L392.5 601L392.5 597Z" fill="#808080"/>
<path d="M346.5 582L362.5 582L362.5 601L346.5 601L346.5 582Z" fill="#CCCCCC"/>
<path d="M346.5 597L362.5 597L362.5 601L346.5 601L346.5 597Z" fill="#808080"/>
<path d="M324.5 466L340.5 466L340.5 485L324.5 485L324.5 466Z" fill="#CCCCCC"/>
<path d="M324.5 481L340.5 481L340.5 485L324.5 485L324.5 481Z" fill="#808080"/>
<path d="M255.5 466L271.5 466L271.5 485L255.5 485L255.5 466Z" fill="#CCCCCC"/>
<path d="M255.5 481L271.5 481L271.5 485L255.5 485L255.5 481Z" fill="#808080"/>
<path d="M186.5 466L202.5 466L202.5 485L186.5 485L186.5 466Z" fill="#CCCCCC"/>
<path d="M186.5 481L202.5 481L202.5 485L186.5 485L186.5 481Z" fill="#808080"/>
<path d="M312.5 582L328.5 582L328.5 601L312.5 601L312.5 582Z" fill="#CCCCCC"/>
<path d="M312.5 597L328.5 597L328.5 601L312.5 601L312.5 597Z" fill="#808080"/>
<path d="M290.5 466L306.5 466L306.5 485L290.5 485L290.5 466Z" fill="#CCCCCC"/>
<path d="M290.5 481L306.5 481L306.5 485L290.5 485L290.5 481Z" fill="#808080"/>
<path d="M221.5 466L237.5 466L237.5 485L221.5 485L221.5 466Z" fill="#CCCCCC"/>
<path d="M221.5 481L237.5 481L237.5 485L221.5 485L221.5 481Z" fill="#808080"/>
<path d="M152.5 466L168.5 466L168.5 485L152.5 485L152.5 466Z" fill="#CCCCCC"/>
<path d="M152.5 481L168.5 481L168.5 485L152.5 485L152.5 481Z" fill="#808080"/>
<path d="M294 547.5L283 547.5L283 538C283 534.962 285.462 532.5 288.5 532.5C291.538 532.5 294 534.962 294 538L294 547.5Z" fill="#CCCCCC" stroke="#808080"/>
<path d="M215 583.5L226 583.5L226 593C226 596.038 223.538 598.5 220.5 598.5C217.462 598.5 215 596.038 215 593L215 583.5Z" fill="#CCCCCC" stroke="#808080"/>
<path d="M260 547.5L249 547.5L249 538C249 534.962 251.462 532.5 254.5 532.5C257.538 532.5 260 534.962 260 538L260 547.5Z" fill="#CCCCCC" stroke="#808080"/>
<path d="M249 583.5L260 583.5L260 593C260 596.038 257.538 598.5 254.5 598.5C251.462 598.5 249 596.038 249 593L249 583.5Z" fill="#CCCCCC" stroke="#808080"/>
<path d="M226 547.5L215 547.5L215 538C215 534.962 217.462 532.5 220.5 532.5C223.538 532.5 226 534.962 226 538L226 547.5Z" fill="#CCCCCC" stroke="#808080"/>
<path d="M283 583.5L294 583.5L294 593C294 596.038 291.538 598.5 288.5 598.5C285.462 598.5 283 596.038 283 593L283 583.5Z" fill="#CCCCCC" stroke="#808080"/>
<path d="M184 547.5L173 547.5L173 538C173 534.962 175.462 532.5 178.5 532.5C181.538 532.5 184 534.962 184 538L184 547.5Z" fill="#CCCCCC" stroke="#808080"/>
<path d="M78 600.5L78 589.5L87.5 589.5C90.5376 589.5 93 591.962 93 595C93 598.038 90.5376 600.5 87.5 600.5L78 600.5Z" fill="#CCCCCC" stroke="#808080"/>
<path d="M78 537.5L78 526.5L87.5 526.5C90.5376 526.5 93 528.962 93 532C93 535.038 90.5376 537.5 87.5 537.5L78 537.5Z" fill="#CCCCCC" stroke="#808080"/>
<path d="M78 473.5L78 462.5L87.5 462.5C90.5376 462.5 93 464.962 93 468C93 471.038 90.5376 473.5 87.5 473.5L78 473.5Z" fill="#CCCCCC" stroke="#808080"/>
<path d="M78 409.5L78 398.5L87.5 398.5C90.5376 398.5 93 400.962 93 404C93 407.038 90.5376 409.5 87.5 409.5L78 409.5Z" fill="#CCCCCC" stroke="#808080"/>
<path d="M78 577.5L78 566.5L87.5 566.5C90.5376 566.5 93 568.962 93 572C93 575.038 90.5376 577.5 87.5 577.5L78 577.5Z" fill="#CCCCCC" stroke="#808080"/>
<path d="M78 514.5L78 503.5L87.5 503.5C90.5376 503.5 93 505.962 93 509C93 512.038 90.5376 514.5 87.5 514.5L78 514.5Z" fill="#CCCCCC" stroke="#808080"/>
<path d="M78 450.5L78 439.5L87.5 439.5C90.5376 439.5 93 441.962 93 445C93 448.038 90.5376 450.5 87.5 450.5L78 450.5Z" fill="#CCCCCC" stroke="#808080"/>
<path d="M78 386.5L78 375.5L87.5 375.5C90.5376 375.5 93 377.962 93 381C93 384.038 90.5376 386.5 87.5 386.5L78 386.5Z" fill="#CCCCCC" stroke="#808080"/>
<path d="M63.5 75.5H80.5V87C80.5 91.1421 77.1421 94.5 73 94.5H71C66.8579 94.5 63.5 91.1421 63.5 87V75.5Z" fill="#CCCCCC" stroke="#808080"/>
<path d="M91.5 75.5H108.5V87C108.5 91.1421 105.142 94.5 101 94.5H99C94.8579 94.5 91.5 91.1421 91.5 87V75.5Z" fill="#CCCCCC" stroke="#808080"/>
<path d="M136.5 75.5H153.5V87C153.5 91.1421 150.142 94.5 146 94.5H144C139.858 94.5 136.5 91.1421 136.5 87V75.5Z" fill="#CCCCCC" stroke="#808080"/>
<path d="M442 75.5H425V87C425 91.1421 428.358 94.5 432.5 94.5H434.5C438.642 94.5 442 91.1421 442 87V75.5Z" fill="#CCCCCC" stroke="#808080"/>
<path d="M519 75.5H502V87C502 91.1421 505.358 94.5 509.5 94.5H511.5C515.642 94.5 519 91.1421 519 87V75.5Z" fill="#CCCCCC" stroke="#808080"/>
<path d="M164.5 75.5H181.5V87C181.5 91.1421 178.142 94.5 174 94.5H172C167.858 94.5 164.5 91.1421 164.5 87V75.5Z" fill="#CCCCCC" stroke="#808080"/>
<path d="M490 75.5H473V87C473 91.1421 476.358 94.5 480.5 94.5H482.5C486.642 94.5 490 91.1421 490 87V75.5Z" fill="#CCCCCC" stroke="#808080"/>
<path d="M363 75.5H346V87C346 91.1421 349.358 94.5 353.5 94.5H355.5C359.642 94.5 363 91.1421 363 87V75.5Z" fill="#CCCCCC" stroke="#808080"/>
<path d="M392 75.5H375V87C375 91.1421 378.358 94.5 382.5 94.5H384.5C388.642 94.5 392 91.1421 392 87V75.5Z" fill="#CCCCCC" stroke="#808080"/>
<path d="M243.5 32L243.5 49L232 49C227.858 49 224.5 45.6421 224.5 41.5L224.5 39.5C224.5 35.3579 227.858 32 232 32L243.5 32Z" fill="#CCCCCC" stroke="#808080"/>
<path d="M243.5 78L243.5 61L232 61C227.858 61 224.5 64.3579 224.5 68.5L224.5 70.5C224.5 74.6421 227.858 78 232 78L243.5 78Z" fill="#CCCCCC" stroke="#808080"/>
<path d="M28 170.5H45V182C45 186.142 41.6421 189.5 37.5 189.5H35.5C31.3579 189.5 28 186.142 28 182V170.5Z" fill="#CCCCCC" stroke="#808080"/>
<path d="M510 170.5H527V182C527 186.142 523.642 189.5 519.5 189.5H517.5C513.358 189.5 510 186.142 510 182V170.5Z" fill="#CCCCCC" stroke="#808080"/>
<path d="M556 129.5L539 129.5L539 118C539 113.858 542.358 110.5 546.5 110.5L548.5 110.5C552.642 110.5 556 113.858 556 118L556 129.5Z" fill="#CCCCCC" stroke="#808080"/>
<path d="M74 131.5L57 131.5L57 120C57 115.858 60.3579 112.5 64.5 112.5L66.5 112.5C70.6421 112.5 74 115.858 74 120L74 131.5Z" fill="#CCCCCC" stroke="#808080"/>
<path d="M213 169.5L196 169.5L196 158C196 153.858 199.358 150.5 203.5 150.5L205.5 150.5C209.642 150.5 213 153.858 213 158L213 169.5Z" fill="#CCCCCC" stroke="#808080"/>
<path d="M395 169.5L378 169.5L378 158C378 153.858 381.358 150.5 385.5 150.5L387.5 150.5C391.642 150.5 395 153.858 395 158L395 169.5Z" fill="#CCCCCC" stroke="#808080"/>
<path d="M500 667.5L500 684.5L488.5 684.5C484.358 684.5 481 681.142 481 677L481 675C481 670.858 484.358 667.5 488.5 667.5L500 667.5Z" fill="#CCCCCC" stroke="#808080"/>
<path d="M246 169.5L229 169.5L229 158C229 153.858 232.358 150.5 236.5 150.5L238.5 150.5C242.642 150.5 246 153.858 246 158L246 169.5Z" fill="#CCCCCC" stroke="#808080"/>
<path d="M428 169.5L411 169.5L411 158C411 153.858 414.358 150.5 418.5 150.5L420.5 150.5C424.642 150.5 428 153.858 428 158L428 169.5Z" fill="#CCCCCC" stroke="#808080"/>
<path d="M500 638.5L500 655.5L488.5 655.5C484.358 655.5 481 652.142 481 648L481 646C481 641.858 484.358 638.5 488.5 638.5L500 638.5Z" fill="#CCCCCC" stroke="#808080"/>
<path d="M556 230.5L539 230.5L539 219C539 214.858 542.358 211.5 546.5 211.5L548.5 211.5C552.642 211.5 556 214.858 556 219L556 230.5Z" fill="#CCCCCC" stroke="#808080"/>
<path d="M74 232.5L57 232.5L57 221C57 216.858 60.3579 213.5 64.5 213.5L66.5 213.5C70.6421 213.5 74 216.858 74 221L74 232.5Z" fill="#CCCCCC" stroke="#808080"/>
<path d="M28 271.5H45V283C45 287.142 41.6421 290.5 37.5 290.5H35.5C31.3579 290.5 28 287.142 28 283V271.5Z" fill="#CCCCCC" stroke="#808080"/>
<path d="M510 271.5H527V283C527 287.142 523.642 290.5 519.5 290.5H517.5C513.358 290.5 510 287.142 510 283V271.5Z" fill="#CCCCCC" stroke="#808080"/>
<path d="M57 170.5H74V182C74 186.142 70.6421 189.5 66.5 189.5H64.5C60.3579 189.5 57 186.142 57 182V170.5Z" fill="#CCCCCC" stroke="#808080"/>
<path d="M539 170.5H556V182C556 186.142 552.642 189.5 548.5 189.5H546.5C542.358 189.5 539 186.142 539 182V170.5Z" fill="#CCCCCC" stroke="#808080"/>
<path d="M527 129.5L510 129.5L510 118C510 113.858 513.358 110.5 517.5 110.5L519.5 110.5C523.642 110.5 527 113.858 527 118L527 129.5Z" fill="#CCCCCC" stroke="#808080"/>
<path d="M45 131.5L28 131.5L28 120C28 115.858 31.3579 112.5 35.5 112.5L37.5 112.5C41.6421 112.5 45 115.858 45 120L45 131.5Z" fill="#CCCCCC" stroke="#808080"/>
<path d="M180 169.5L163 169.5L163 158C163 153.858 166.358 150.5 170.5 150.5L172.5 150.5C176.642 150.5 180 153.858 180 158L180 169.5Z" fill="#CCCCCC" stroke="#808080"/>
<path d="M362 169.5L345 169.5L345 158C345 153.858 348.358 150.5 352.5 150.5L354.5 150.5C358.642 150.5 362 153.858 362 158L362 169.5Z" fill="#CCCCCC" stroke="#808080"/>
<path d="M500 539.5L500 556.5L488.5 556.5C484.358 556.5 481 553.142 481 549L481 547C481 542.858 484.358 539.5 488.5 539.5L500 539.5Z" fill="#CCCCCC" stroke="#808080"/>
<path d="M500.5 587.5L500.5 604.5L489 604.5C484.858 604.5 481.5 601.142 481.5 597L481.5 595C481.5 590.858 484.858 587.5 489 587.5L500.5 587.5Z" fill="#CCCCCC" stroke="#808080"/>
<path d="M396.5 643.5L379.5 643.5L379.5 632C379.5 627.858 382.858 624.5 387 624.5L389 624.5C393.142 624.5 396.5 627.858 396.5 632L396.5 643.5Z" fill="#CCCCCC" stroke="#808080"/>
<path d="M434.5 643.5L417.5 643.5L417.5 632C417.5 627.858 420.858 624.5 425 624.5L427 624.5C431.142 624.5 434.5 627.858 434.5 632L434.5 643.5Z" fill="#CCCCCC" stroke="#808080"/>
<path d="M446.5 671.5L446.5 654.5L458 654.5C462.142 654.5 465.5 657.858 465.5 662L465.5 664C465.5 668.142 462.142 671.5 458 671.5L446.5 671.5Z" fill="#CCCCCC" stroke="#808080"/>
<path d="M527 230.5L510 230.5L510 219C510 214.858 513.358 211.5 517.5 211.5L519.5 211.5C523.642 211.5 527 214.858 527 219L527 230.5Z" fill="#CCCCCC" stroke="#808080"/>
<path d="M45 232.5L28 232.5L28 221C28 216.858 31.3579 213.5 35.5 213.5L37.5 213.5C41.6421 213.5 45 216.858 45 221L45 232.5Z" fill="#CCCCCC" stroke="#808080"/>
<path d="M57 271.5H74V283C74 287.142 70.6421 290.5 66.5 290.5H64.5C60.3579 290.5 57 287.142 57 283V271.5Z" fill="#CCCCCC" stroke="#808080"/>
<path d="M539 271.5H556V283C556 287.142 552.642 290.5 548.5 290.5H546.5C542.358 290.5 539 287.142 539 283V271.5Z" fill="#CCCCCC" stroke="#808080"/>
<path d="M283.5 78L283.5 61L295 61C299.142 61 302.5 64.3579 302.5 68.5L302.5 70.5C302.5 74.6421 299.142 78 295 78L283.5 78Z" fill="#CCCCCC" stroke="#808080"/>
<path d="M283.5 32L283.5 49L295 49C299.142 49 302.5 45.6421 302.5 41.5L302.5 39.5C302.5 35.3579 299.142 32 295 32L283.5 32Z" fill="#CCCCCC" stroke="#808080"/>
<rect x="156.5" y="553" width="266" height="25" fill="#808080"/>
<rect x="63" y="42" width="46" height="28" fill="#808080"/>
<rect x="136" y="42" width="46" height="28" fill="#808080"/>
<rect x="277" y="26" width="58" height="28" transform="rotate(90 277 26)" fill="#808080"/>
<rect x="341" y="42" width="58" height="28" fill="#808080"/>
<rect x="420" y="42" width="27" height="28" fill="#808080"/>
<rect x="467" y="42" width="58" height="28" fill="#808080"/>
<rect x="503" y="136" width="58" height="28" fill="#808080"/>
<rect x="503" y="238" width="58" height="28" fill="#808080"/>
<rect x="506" y="533" width="28" height="28" fill="#808080"/>
<rect x="506.5" y="581" width="28" height="28" fill="#808080"/>
<rect x="506" y="632" width="28" height="58" fill="#808080"/>
<rect x="441" y="649.5" width="28" height="28" transform="rotate(90 441 649.5)" fill="#808080"/>
<rect x="403" y="649.5" width="28" height="28" transform="rotate(90 403 649.5)" fill="#808080"/>
<rect x="49" y="563" width="25" height="42" fill="#808080"/>
<rect x="49" y="499" width="25" height="42" fill="#808080"/>
<rect x="49" y="435" width="25" height="42" fill="#808080"/>
<rect x="49" y="371" width="25" height="42" fill="#808080"/>
<rect x="22" y="238" width="58" height="28" fill="#808080"/>
<rect x="22" y="136" width="58" height="28" fill="#808080"/>
<path d="M12.5 616.5H181" stroke="#252525"/>
<path d="M13 323.5V719.5H574.5V1H1V323.5H13Z" stroke="#252525"/>
<path d="M87.5 311H12.5V341H85.5L87.5 311Z" stroke="#252525"/>
<path d="M499.5 311H574.5V341H501.5L499.5 311Z" stroke="#252525"/>
<path d="M263.5 311H139.5L140.5 341H261.5L263.5 311Z" stroke="#252525"/>
<path d="M443.5 311H319.5L320.5 341H441.5L443.5 311Z" stroke="#252525"/>
<path d="M141 196C141 185.23 149.73 176.5 160.5 176.5H423.5C434.27 176.5 443 185.23 443 196V227.5H141V196Z" stroke="#252525"/>
<path d="M432 440C432 450.77 423.27 459.5 412.5 459.5L160.5 459.5C149.73 459.5 141 450.77 141 440L141 408.5L432 408.5L432 440Z" stroke="#252525"/>
<path d="M141 341V408.5" stroke="#252525"/>
<path d="M141.5 228L141.5 299" stroke="#252525"/>
<path d="M441.5 255L441.5 299" stroke="#252525"/>
<path d="M328 719.5V638H248V655.5L278 680M248 692V719.5" stroke="#252525"/>
<rect x="75" y="622.5" width="5" height="41" fill="#CCCCCC" stroke="#252525"/>
<rect x="120" y="622.5" width="5" height="41" fill="#CCCCCC" stroke="#252525"/>
<rect x="80" y="622.5" width="5" height="41" fill="#CCCCCC" stroke="#252525"/>
<rect x="125" y="622.5" width="5" height="41" fill="#CCCCCC" stroke="#252525"/>
<rect x="85" y="622.5" width="5" height="41" fill="#CCCCCC" stroke="#252525"/>
<rect x="130" y="622.5" width="5" height="41" fill="#CCCCCC" stroke="#252525"/>
<rect x="90" y="622.5" width="5" height="41" fill="#CCCCCC" stroke="#252525"/>
<rect x="135" y="622.5" width="5" height="41" fill="#CCCCCC" stroke="#252525"/>
<rect x="95" y="622.5" width="5" height="41" fill="#CCCCCC" stroke="#252525"/>
<rect x="140" y="622.5" width="5" height="41" fill="#CCCCCC" stroke="#252525"/>
<rect x="100" y="622.5" width="5" height="41" fill="#CCCCCC" stroke="#252525"/>
<rect x="145" y="622.5" width="5" height="41" fill="#CCCCCC" stroke="#252525"/>
<rect x="165" y="622.5" width="5" height="41" fill="#CCCCCC" stroke="#252525"/>
<rect x="105" y="622.5" width="5" height="41" fill="#CCCCCC" stroke="#252525"/>
<rect x="150" y="622.5" width="5" height="41" fill="#CCCCCC" stroke="#252525"/>
<rect x="170" y="622.5" width="5" height="41" fill="#CCCCCC" stroke="#252525"/>
<rect x="110" y="622.5" width="5" height="41" fill="#CCCCCC" stroke="#252525"/>
<rect x="155" y="622.5" width="5" height="41" fill="#CCCCCC" stroke="#252525"/>
<rect x="175" y="622.5" width="5" height="41" fill="#CCCCCC" stroke="#252525"/>
<rect x="115" y="622.5" width="5" height="41" fill="#CCCCCC" stroke="#252525"/>
<rect x="160" y="622.5" width="5" height="41" fill="#CCCCCC" stroke="#252525"/>
<rect x="75" y="672.5" width="5" height="41" fill="#CCCCCC" stroke="#252525"/>
<rect x="120" y="672.5" width="5" height="41" fill="#CCCCCC" stroke="#252525"/>
<rect x="80" y="672.5" width="5" height="41" fill="#CCCCCC" stroke="#252525"/>
<rect x="125" y="672.5" width="5" height="41" fill="#CCCCCC" stroke="#252525"/>
<rect x="85" y="672.5" width="5" height="41" fill="#CCCCCC" stroke="#252525"/>
<rect x="130" y="672.5" width="5" height="41" fill="#CCCCCC" stroke="#252525"/>
<rect x="90" y="672.5" width="5" height="41" fill="#CCCCCC" stroke="#252525"/>
<rect x="135" y="672.5" width="5" height="41" fill="#CCCCCC" stroke="#252525"/>
<rect x="95" y="672.5" width="5" height="41" fill="#CCCCCC" stroke="#252525"/>
<rect x="140" y="672.5" width="5" height="41" fill="#CCCCCC" stroke="#252525"/>
<rect x="100" y="672.5" width="5" height="41" fill="#CCCCCC" stroke="#252525"/>
<rect x="145" y="672.5" width="5" height="41" fill="#CCCCCC" stroke="#252525"/>
<rect x="165" y="672.5" width="5" height="41" fill="#CCCCCC" stroke="#252525"/>
<rect x="105" y="672.5" width="5" height="41" fill="#CCCCCC" stroke="#252525"/>
<rect x="150" y="672.5" width="5" height="41" fill="#CCCCCC" stroke="#252525"/>
<rect x="170" y="672.5" width="5" height="41" fill="#CCCCCC" stroke="#252525"/>
<rect x="110" y="672.5" width="5" height="41" fill="#CCCCCC" stroke="#252525"/>
<rect x="155" y="672.5" width="5" height="41" fill="#CCCCCC" stroke="#252525"/>
<rect x="175" y="672.5" width="5" height="41" fill="#CCCCCC" stroke="#252525"/>
<rect x="115" y="672.5" width="5" height="41" fill="#CCCCCC" stroke="#252525"/>
<rect x="160" y="672.5" width="5" height="41" fill="#CCCCCC" stroke="#252525"/>
<path opacity="0.4" d="M236.775 119.062C236.775 120.924 235.789 122.07 233.816 122.5V122.559C235.978 123.021 237.059 124.18 237.059 126.035C237.059 127.344 236.596 128.366 235.672 129.102C234.754 129.831 233.455 130.195 231.775 130.195C230.2 130.195 228.875 129.915 227.801 129.355V128.34C228.419 128.639 229.08 128.87 229.783 129.033C230.486 129.196 231.15 129.277 231.775 129.277C233.077 129.277 234.103 128.997 234.852 128.438C235.607 127.871 235.984 127.08 235.984 126.064C235.984 125.075 235.617 124.326 234.881 123.818C234.152 123.311 233.058 123.057 231.6 123.057H229.48V122.119H231.678C233.058 122.119 234.077 121.859 234.734 121.338C235.392 120.817 235.721 120.078 235.721 119.121C235.721 118.307 235.418 117.656 234.812 117.168C234.214 116.68 233.429 116.436 232.459 116.436C231.736 116.436 231.072 116.54 230.467 116.748C229.861 116.95 229.207 117.301 228.504 117.803L227.938 117.021C229.253 116.019 230.76 115.518 232.459 115.518C233.794 115.518 234.845 115.837 235.613 116.475C236.388 117.113 236.775 117.975 236.775 119.062ZM240.213 115.723H241.17V125.059C241.17 125.723 241.144 126.836 241.092 128.398H241.15L249.588 115.723H250.594V130H249.627V120.723C249.627 119.668 249.669 118.529 249.754 117.305H249.676L241.209 130H240.213V115.723ZM260.926 130L255.604 116.816H255.525C255.577 117.624 255.604 118.451 255.604 119.297V130H254.646V115.723H256.189L261.248 128.281H261.307L266.365 115.723H267.869V130H266.863V119.18C266.863 118.424 266.902 117.643 266.98 116.836H266.902L261.561 130H260.926ZM282.254 130H281.248V122.979H272.908V130H271.912V115.723H272.908V122.061H281.248V115.723H282.254V130ZM286.307 115.723H287.264V125.059C287.264 125.723 287.238 126.836 287.186 128.398H287.244L295.682 115.723H296.688V130H295.721V120.723C295.721 119.668 295.763 118.529 295.848 117.305H295.77L287.303 130H286.307V115.723ZM300.74 115.723H301.697V125.059C301.697 125.723 301.671 126.836 301.619 128.398H301.678L310.115 115.723H311.121V130H310.154V120.723C310.154 119.668 310.197 118.529 310.281 117.305H310.203L301.736 130H300.74V115.723ZM305.916 114.58C304.946 114.58 304.207 114.365 303.699 113.936C303.191 113.499 302.895 112.799 302.811 111.836H303.67C303.768 112.552 303.989 113.06 304.334 113.359C304.679 113.652 305.213 113.799 305.936 113.799C306.652 113.799 307.182 113.646 307.527 113.34C307.879 113.034 308.094 112.533 308.172 111.836H309.031C308.895 113.665 307.856 114.58 305.916 114.58ZM326.463 116.416C324.673 116.416 323.263 116.989 322.234 118.135C321.206 119.281 320.691 120.85 320.691 122.842C320.691 124.88 321.176 126.462 322.146 127.588C323.117 128.714 324.503 129.277 326.307 129.277C327.505 129.277 328.605 129.124 329.607 128.818V129.697C328.663 130.029 327.485 130.195 326.072 130.195C324.067 130.195 322.488 129.548 321.336 128.252C320.184 126.956 319.607 125.146 319.607 122.822C319.607 121.37 319.881 120.091 320.428 118.984C320.981 117.878 321.772 117.025 322.801 116.426C323.836 115.82 325.037 115.518 326.404 115.518C327.798 115.518 329.044 115.778 330.145 116.299L329.744 117.197C328.702 116.676 327.609 116.416 326.463 116.416ZM339.666 124.961H333.865L331.873 130H330.77L336.512 115.664H337.146L342.771 130H341.648L339.666 124.961ZM334.227 124.062H339.334L337.391 118.916C337.228 118.512 337.033 117.952 336.805 117.236C336.629 117.861 336.437 118.428 336.229 118.936L334.227 124.062ZM355.242 133.604H354.285V130H343.885V133.604H342.918V129.062H343.943C344.907 127.389 345.753 125.267 346.482 122.695C347.212 120.117 347.618 117.793 347.703 115.723H353.777V129.062H355.242V133.604ZM352.762 129.062V116.66H348.562C348.406 118.711 347.996 120.921 347.332 123.291C346.668 125.661 345.91 127.585 345.057 129.062H352.762Z" fill="#252525"/>
<path opacity="0.4" d="M209.018 515H208.021V500.723H215.844V501.641H209.018V515ZM230.062 507.842C230.062 510.107 229.496 511.901 228.363 513.223C227.23 514.538 225.668 515.195 223.676 515.195C221.69 515.195 220.131 514.538 218.998 513.223C217.865 511.901 217.299 510.101 217.299 507.822C217.299 505.55 217.868 503.763 219.008 502.461C220.154 501.152 221.716 500.498 223.695 500.498C225.688 500.498 227.247 501.156 228.373 502.471C229.499 503.779 230.062 505.57 230.062 507.842ZM218.383 507.842C218.383 509.886 218.839 511.468 219.75 512.588C220.661 513.701 221.97 514.258 223.676 514.258C225.395 514.258 226.706 513.704 227.611 512.598C228.523 511.491 228.979 509.906 228.979 507.842C228.979 505.785 228.523 504.209 227.611 503.115C226.706 502.015 225.401 501.465 223.695 501.465C221.996 501.465 220.684 502.018 219.76 503.125C218.842 504.232 218.383 505.804 218.383 507.842ZM241.947 504.824C241.947 506.204 241.479 507.262 240.541 507.998C239.604 508.734 238.275 509.102 236.557 509.102H234.35V515H233.354V500.723H236.85C240.248 500.723 241.947 502.09 241.947 504.824ZM234.35 508.242H236.312C237.921 508.242 239.083 507.979 239.799 507.451C240.515 506.917 240.873 506.055 240.873 504.863C240.873 503.763 240.535 502.949 239.857 502.422C239.18 501.888 238.132 501.621 236.713 501.621H234.35V508.242ZM257.055 507.842C257.055 510.107 256.488 511.901 255.355 513.223C254.223 514.538 252.66 515.195 250.668 515.195C248.682 515.195 247.123 514.538 245.99 513.223C244.857 511.901 244.291 510.101 244.291 507.822C244.291 505.55 244.861 503.763 246 502.461C247.146 501.152 248.708 500.498 250.688 500.498C252.68 500.498 254.239 501.156 255.365 502.471C256.492 503.779 257.055 505.57 257.055 507.842ZM245.375 507.842C245.375 509.886 245.831 511.468 246.742 512.588C247.654 513.701 248.962 514.258 250.668 514.258C252.387 514.258 253.699 513.704 254.604 512.598C255.515 511.491 255.971 509.906 255.971 507.842C255.971 505.785 255.515 504.209 254.604 503.115C253.699 502.015 252.393 501.465 250.688 501.465C248.988 501.465 247.676 502.018 246.752 503.125C245.834 504.232 245.375 505.804 245.375 507.842ZM270.785 518.604H269.828V515H259.428V518.604H258.461V514.062H259.486C260.45 512.389 261.296 510.267 262.025 507.695C262.755 505.117 263.161 502.793 263.246 500.723H269.32V514.062H270.785V518.604ZM268.305 514.062V501.66H264.105C263.949 503.711 263.539 505.921 262.875 508.291C262.211 510.661 261.452 512.585 260.6 514.062H268.305ZM279.506 501.416C277.715 501.416 276.306 501.989 275.277 503.135C274.249 504.281 273.734 505.85 273.734 507.842C273.734 509.88 274.219 511.462 275.189 512.588C276.16 513.714 277.546 514.277 279.35 514.277C280.548 514.277 281.648 514.124 282.65 513.818V514.697C281.706 515.029 280.528 515.195 279.115 515.195C277.11 515.195 275.531 514.548 274.379 513.252C273.227 511.956 272.65 510.146 272.65 507.822C272.65 506.37 272.924 505.091 273.471 503.984C274.024 502.878 274.815 502.025 275.844 501.426C276.879 500.82 278.08 500.518 279.447 500.518C280.84 500.518 282.087 500.778 283.188 501.299L282.787 502.197C281.745 501.676 280.652 501.416 279.506 501.416ZM295.248 515H293.891L286.83 507.725V515H285.834V500.723H286.83V507.637L293.695 500.723H295.014L288.109 507.637L295.248 515ZM309.281 507.842C309.281 510.107 308.715 511.901 307.582 513.223C306.449 514.538 304.887 515.195 302.895 515.195C300.909 515.195 299.35 514.538 298.217 513.223C297.084 511.901 296.518 510.101 296.518 507.822C296.518 505.55 297.087 503.763 298.227 502.461C299.372 501.152 300.935 500.498 302.914 500.498C304.906 500.498 306.465 501.156 307.592 502.471C308.718 503.779 309.281 505.57 309.281 507.842ZM297.602 507.842C297.602 509.886 298.057 511.468 298.969 512.588C299.88 513.701 301.189 514.258 302.895 514.258C304.613 514.258 305.925 513.704 306.83 512.598C307.742 511.491 308.197 509.906 308.197 507.842C308.197 505.785 307.742 504.209 306.83 503.115C305.925 502.015 304.62 501.465 302.914 501.465C301.215 501.465 299.903 502.018 298.979 503.125C298.061 504.232 297.602 505.804 297.602 507.842ZM320.375 515H312.572V500.723H320.375V501.641H313.568V507.041H319.994V507.959H313.568V514.082H320.375V515ZM338.217 515H336.859L329.799 507.725V515H328.803V500.723H329.799V507.637L336.664 500.723H337.982L331.078 507.637L338.217 515ZM347.123 509.961H341.322L339.33 515H338.227L343.969 500.664H344.604L350.229 515H349.105L347.123 509.961ZM341.684 509.062H346.791L344.848 503.916C344.685 503.512 344.49 502.952 344.262 502.236C344.086 502.861 343.894 503.428 343.686 503.936L341.684 509.062ZM357.357 500.518H358.354V502.275H358.773C360.564 502.275 361.947 502.734 362.924 503.652C363.907 504.57 364.398 505.846 364.398 507.48C364.398 508.613 364.171 509.593 363.715 510.42C363.266 511.247 362.595 511.885 361.703 512.334C360.818 512.777 359.737 512.998 358.461 512.998H358.354V515.195H357.357V512.998H357.182C355.925 512.998 354.857 512.777 353.979 512.334C353.106 511.891 352.445 511.27 351.996 510.469C351.547 509.668 351.322 508.711 351.322 507.598C351.322 506.582 351.55 505.667 352.006 504.854C352.462 504.033 353.116 503.398 353.969 502.949C354.822 502.5 355.831 502.275 356.996 502.275H357.357V500.518ZM358.354 512.178H358.5C360.036 512.178 361.221 511.774 362.055 510.967C362.895 510.153 363.314 509.004 363.314 507.52C363.314 506.094 362.924 505 362.143 504.238C361.361 503.477 360.238 503.096 358.773 503.096H358.354V512.178ZM357.357 503.096H356.957C355.531 503.096 354.415 503.493 353.607 504.287C352.8 505.081 352.396 506.165 352.396 507.539C352.396 509.017 352.813 510.16 353.646 510.967C354.486 511.774 355.671 512.178 357.201 512.178H357.357V503.096ZM375.316 515H367.514V500.723H375.316V501.641H368.51V507.041H374.936V507.959H368.51V514.082H375.316V515Z" fill="#252525"/>
<path d="M243.816 201.989C243.816 203.575 243.42 204.831 242.627 205.756C241.834 206.676 240.74 207.137 239.346 207.137C237.956 207.137 236.864 206.676 236.071 205.756C235.278 204.831 234.882 203.571 234.882 201.976C234.882 200.385 235.281 199.134 236.078 198.223C236.88 197.307 237.974 196.849 239.359 196.849C240.754 196.849 241.845 197.309 242.634 198.229C243.422 199.146 243.816 200.399 243.816 201.989ZM235.641 201.989C235.641 203.42 235.96 204.528 236.598 205.312C237.236 206.091 238.152 206.48 239.346 206.48C240.549 206.48 241.467 206.093 242.101 205.318C242.739 204.544 243.058 203.434 243.058 201.989C243.058 200.549 242.739 199.446 242.101 198.681C241.467 197.91 240.553 197.525 239.359 197.525C238.17 197.525 237.252 197.913 236.604 198.688C235.962 199.462 235.641 200.563 235.641 201.989ZM248.725 207H248.021V197.662H244.773V197.006H251.972V197.662H248.725V207ZM260.052 207H259.102L254.159 201.907V207H253.462V197.006H254.159V201.846L258.965 197.006H259.888L255.055 201.846L260.052 207ZM267.489 199.877C267.489 200.843 267.161 201.584 266.505 202.099C265.849 202.614 264.919 202.871 263.716 202.871H262.171V207H261.474V197.006H263.921C266.3 197.006 267.489 197.963 267.489 199.877ZM262.171 202.27H263.545C264.671 202.27 265.484 202.085 265.985 201.716C266.487 201.342 266.737 200.738 266.737 199.904C266.737 199.134 266.5 198.564 266.026 198.195C265.552 197.822 264.819 197.635 263.825 197.635H262.171V202.27ZM278.242 207H277.545V197.006H278.242V207ZM270.36 201.415H272.295C273.439 201.415 274.298 201.634 274.872 202.071C275.451 202.504 275.74 203.19 275.74 204.129C275.74 205.049 275.458 205.758 274.893 206.255C274.327 206.752 273.512 207 272.445 207H269.663V197.006H270.36V201.415ZM270.36 206.385H272.336C273.266 206.385 273.938 206.196 274.353 205.817C274.772 205.439 274.981 204.876 274.981 204.129C274.981 203.386 274.765 202.851 274.332 202.522C273.899 202.194 273.188 202.03 272.199 202.03H270.36V206.385ZM283.684 207H282.979V197.662H279.732V197.006H286.931V197.662H283.684V207ZM293.233 203.473H289.173L287.778 207H287.006L291.025 196.965H291.47L295.407 207H294.621L293.233 203.473ZM289.426 202.844H293.001L291.641 199.241C291.527 198.959 291.39 198.567 291.23 198.065C291.107 198.503 290.973 198.899 290.827 199.255L289.426 202.844ZM299.14 202.646L296.467 207H295.626L298.436 202.509C297.738 202.372 297.198 202.074 296.815 201.613C296.433 201.153 296.241 200.574 296.241 199.877C296.241 197.963 297.44 197.006 299.837 197.006H302.216V207H301.519V202.646H299.14ZM301.519 197.635H299.864C298.857 197.635 298.126 197.81 297.67 198.161C297.219 198.507 296.993 199.068 296.993 199.843C296.993 200.572 297.216 201.121 297.663 201.49C298.11 201.859 298.764 202.044 299.625 202.044H301.519V197.635ZM315.272 207H314.322L309.38 201.907V207H308.683V197.006H309.38V201.846L314.186 197.006H315.108L310.275 201.846L315.272 207ZM317.166 207.137C316.624 207.137 316.186 207.068 315.854 206.932V206.228C316.245 206.396 316.66 206.48 317.098 206.48C317.426 206.48 317.706 206.426 317.938 206.316C318.175 206.202 318.394 206.022 318.595 205.776C318.795 205.526 319.039 205.109 319.326 204.525L315.348 197.006H316.175L319.23 202.844C319.39 203.158 319.534 203.484 319.661 203.821H319.688L319.859 203.404L322.73 197.006H323.51L320.304 204.033C320.099 204.484 319.903 204.901 319.716 205.284C319.529 205.662 319.322 205.988 319.094 206.262C318.866 206.535 318.599 206.749 318.294 206.904C317.989 207.059 317.613 207.137 317.166 207.137ZM331.043 207H330.243L327.29 202.338L324.282 207H323.51L326.873 201.791L323.817 197.006H324.604L327.304 201.285L330.045 197.006H330.79L327.693 201.777L331.043 207ZM339.697 207H338.993V202.085H333.155V207H332.458V197.006H333.155V201.442H338.993V197.006H339.697V207ZM344.845 202.646L342.172 207H341.331L344.141 202.509C343.443 202.372 342.903 202.074 342.521 201.613C342.138 201.153 341.946 200.574 341.946 199.877C341.946 197.963 343.145 197.006 345.542 197.006H347.921V207H347.224V202.646H344.845ZM347.224 197.635H345.569C344.562 197.635 343.831 197.81 343.375 198.161C342.924 198.507 342.698 199.068 342.698 199.843C342.698 200.572 342.922 201.121 343.368 201.49C343.815 201.859 344.469 202.044 345.33 202.044H347.224V197.635Z" fill="#252525"/>
<path d="M219.115 433.415C220.264 433.415 221.125 433.634 221.699 434.071C222.273 434.504 222.561 435.19 222.561 436.129C222.561 437.049 222.276 437.758 221.706 438.255C221.141 438.752 220.33 439 219.272 439H216.415V429.006H222.027V429.662H217.112V433.415H219.115ZM217.112 438.385H219.156C220.054 438.385 220.719 438.205 221.152 437.845C221.585 437.48 221.802 436.908 221.802 436.129C221.802 435.377 221.583 434.839 221.146 434.516C220.708 434.192 219.999 434.03 219.02 434.03H217.112V438.385ZM229.567 435.473H225.507L224.112 439H223.34L227.359 428.965H227.804L231.741 439H230.955L229.567 435.473ZM225.76 434.844H229.335L227.975 431.241C227.861 430.959 227.724 430.567 227.564 430.065C227.441 430.503 227.307 430.899 227.161 431.255L225.76 434.844ZM239.179 431.877C239.179 432.843 238.851 433.584 238.194 434.099C237.538 434.614 236.608 434.871 235.405 434.871H233.86V439H233.163V429.006H235.61C237.989 429.006 239.179 429.963 239.179 431.877ZM233.86 434.27H235.234C236.36 434.27 237.174 434.085 237.675 433.716C238.176 433.342 238.427 432.738 238.427 431.904C238.427 431.134 238.19 430.564 237.716 430.195C237.242 429.822 236.508 429.635 235.515 429.635H233.86V434.27ZM247.847 433.777H250.813V434.338H247.847V437.291H247.286V434.338H244.333V433.777H247.286V430.811H247.847V433.777ZM263.214 439H262.264L257.321 433.907V439H256.624V429.006H257.321V433.846L262.127 429.006H263.05L258.217 433.846L263.214 439ZM273.037 433.989C273.037 435.575 272.641 436.831 271.848 437.756C271.055 438.676 269.961 439.137 268.566 439.137C267.176 439.137 266.085 438.676 265.292 437.756C264.499 436.831 264.103 435.571 264.103 433.976C264.103 432.385 264.501 431.134 265.299 430.223C266.101 429.307 267.195 428.849 268.58 428.849C269.975 428.849 271.066 429.309 271.854 430.229C272.643 431.146 273.037 432.399 273.037 433.989ZM264.861 433.989C264.861 435.42 265.18 436.528 265.818 437.312C266.456 438.091 267.372 438.48 268.566 438.48C269.77 438.48 270.688 438.093 271.321 437.318C271.959 436.544 272.278 435.434 272.278 433.989C272.278 432.549 271.959 431.446 271.321 430.681C270.688 429.91 269.774 429.525 268.58 429.525C267.391 429.525 266.472 429.913 265.825 430.688C265.183 431.462 264.861 432.563 264.861 433.989ZM282.58 439H281.876V434.085H276.038V439H275.341V429.006H276.038V433.442H281.876V429.006H282.58V439ZM292.725 441.522H292.055V439H284.774V441.522H284.098V438.344H284.815C285.49 437.173 286.082 435.687 286.593 433.887C287.103 432.082 287.388 430.455 287.447 429.006H291.699V438.344H292.725V441.522ZM290.988 438.344V429.662H288.049C287.939 431.098 287.652 432.645 287.188 434.304C286.723 435.963 286.192 437.309 285.595 438.344H290.988ZM294.563 429.006H295.233V435.541C295.233 436.006 295.215 436.785 295.179 437.879H295.22L301.126 429.006H301.83V439H301.153V432.506C301.153 431.768 301.183 430.97 301.242 430.113H301.188L295.261 439H294.563V429.006ZM307.271 439H306.567V429.662H303.32V429.006H310.519V429.662H307.271V439ZM317.471 439H312.009V429.006H317.471V429.648H312.706V433.429H317.204V434.071H312.706V438.357H317.471V439ZM325.749 431.877C325.749 432.843 325.421 433.584 324.765 434.099C324.108 434.614 323.179 434.871 321.976 434.871H320.431V439H319.733V429.006H322.181C324.56 429.006 325.749 429.963 325.749 431.877ZM320.431 434.27H321.805C322.93 434.27 323.744 434.085 324.245 433.716C324.746 433.342 324.997 432.738 324.997 431.904C324.997 431.134 324.76 430.564 324.286 430.195C323.812 429.822 323.078 429.635 322.085 429.635H320.431V434.27ZM332.188 429.491C330.935 429.491 329.949 429.892 329.229 430.694C328.508 431.496 328.148 432.595 328.148 433.989C328.148 435.416 328.488 436.523 329.167 437.312C329.846 438.1 330.817 438.494 332.079 438.494C332.918 438.494 333.688 438.387 334.39 438.173V438.788C333.729 439.021 332.904 439.137 331.915 439.137C330.511 439.137 329.406 438.683 328.6 437.776C327.793 436.869 327.39 435.603 327.39 433.976C327.39 432.959 327.581 432.064 327.964 431.289C328.351 430.514 328.905 429.917 329.625 429.498C330.35 429.074 331.19 428.862 332.147 428.862C333.123 428.862 333.995 429.045 334.766 429.409L334.485 430.038C333.756 429.674 332.991 429.491 332.188 429.491ZM343.208 439H342.258L337.315 433.907V439H336.618V429.006H337.315V433.846L342.121 429.006H343.044L338.211 433.846L343.208 439ZM349.442 435.473H345.382L343.987 439H343.215L347.234 428.965H347.679L351.616 439H350.83L349.442 435.473ZM345.635 434.844H349.21L347.85 431.241C347.736 430.959 347.599 430.567 347.439 430.065C347.316 430.503 347.182 430.899 347.036 431.255L345.635 434.844ZM355.349 434.646L352.676 439H351.835L354.645 434.509C353.947 434.372 353.407 434.074 353.024 433.613C352.642 433.153 352.45 432.574 352.45 431.877C352.45 429.963 353.649 429.006 356.046 429.006H358.425V439H357.728V434.646H355.349ZM357.728 429.635H356.073C355.066 429.635 354.335 429.81 353.879 430.161C353.428 430.507 353.202 431.068 353.202 431.843C353.202 432.572 353.425 433.121 353.872 433.49C354.319 433.859 354.973 434.044 355.834 434.044H357.728V429.635Z" fill="#252525"/>
<path d="M271.415 730.006H274.156C275.391 730.006 276.298 730.215 276.877 730.635C277.456 731.054 277.745 731.688 277.745 732.535C277.745 733.114 277.567 733.597 277.212 733.984C276.861 734.367 276.346 734.613 275.667 734.723V734.764C276.465 734.882 277.05 735.135 277.424 735.522C277.802 735.905 277.991 736.441 277.991 737.129C277.991 738.049 277.686 738.758 277.075 739.255C276.465 739.752 275.599 740 274.478 740H271.415V730.006ZM272.112 734.456H274.313C275.252 734.456 275.934 734.301 276.357 733.991C276.786 733.677 277 733.187 277 732.521C277 731.856 276.758 731.373 276.275 731.072C275.797 730.771 275.081 730.621 274.129 730.621H272.112V734.456ZM272.112 735.071V739.385H274.464C276.314 739.385 277.239 738.633 277.239 737.129C277.239 735.757 276.264 735.071 274.313 735.071H272.112ZM286.311 740H285.511L282.558 735.338L279.55 740H278.777L282.141 734.791L279.085 730.006H279.871L282.571 734.285L285.312 730.006H286.058L282.961 734.777L286.311 740ZM296.127 734.989C296.127 736.575 295.73 737.831 294.938 738.756C294.145 739.676 293.051 740.137 291.656 740.137C290.266 740.137 289.175 739.676 288.382 738.756C287.589 737.831 287.192 736.571 287.192 734.976C287.192 733.385 287.591 732.134 288.389 731.223C289.191 730.307 290.285 729.849 291.67 729.849C293.064 729.849 294.156 730.309 294.944 731.229C295.733 732.146 296.127 733.399 296.127 734.989ZM287.951 734.989C287.951 736.42 288.27 737.528 288.908 738.312C289.546 739.091 290.462 739.48 291.656 739.48C292.859 739.48 293.778 739.093 294.411 738.318C295.049 737.544 295.368 736.434 295.368 734.989C295.368 733.549 295.049 732.446 294.411 731.681C293.778 730.91 292.864 730.525 291.67 730.525C290.48 730.525 289.562 730.913 288.915 731.688C288.272 732.462 287.951 733.563 287.951 734.989ZM305.738 742.522H305.068V740H297.788V742.522H297.111V739.344H297.829C298.504 738.173 299.096 736.687 299.606 734.887C300.117 733.082 300.402 731.455 300.461 730.006H304.713V739.344H305.738V742.522ZM304.002 739.344V730.662H301.062C300.953 732.098 300.666 733.645 300.201 735.304C299.736 736.963 299.205 738.309 298.608 739.344H304.002Z" fill="#252525"/>
<path d="M51 699.888L51 700.585L41.0059 700.585L41.0059 695.109L41.6484 695.109L41.6484 699.888L51 699.888ZM47.4727 688.745L47.4727 692.806L51 694.2L51 694.973L40.9648 690.953L40.9648 690.509L51 686.571L51 687.357L47.4727 688.745ZM46.8437 692.553L46.8437 688.978L43.2412 690.338C42.9587 690.452 42.5667 690.589 42.0654 690.748C42.5029 690.871 42.8994 691.006 43.2549 691.151L46.8437 692.553ZM43.877 679.134C44.8431 679.134 45.5837 679.462 46.0986 680.118C46.6136 680.774 46.8711 681.704 46.8711 682.907L46.8711 684.452L51 684.452L51 685.149L41.0059 685.149L41.0059 682.702C41.0059 680.323 41.9629 679.134 43.877 679.134ZM46.2695 684.452L46.2695 683.078C46.2695 681.952 46.085 681.139 45.7158 680.638C45.3421 680.136 44.7383 679.886 43.9043 679.886C43.1341 679.886 42.5645 680.123 42.1953 680.597C41.8216 681.071 41.6348 681.804 41.6348 682.798L41.6348 684.452L46.2695 684.452ZM53.5225 669.652L53.5225 670.322L51 670.322L51 677.603L53.5225 677.603L53.5225 678.279L50.3437 678.279L50.3437 677.562C49.1725 676.887 47.6868 676.295 45.8867 675.784C44.082 675.274 42.4551 674.989 41.0059 674.93L41.0059 670.678L50.3437 670.678L50.3437 669.652L53.5225 669.652ZM50.3437 671.389L41.6621 671.389L41.6621 674.328C43.0977 674.437 44.6449 674.725 46.3037 675.189C47.9626 675.654 49.3092 676.185 50.3437 676.782L50.3437 671.389ZM51 662.352L51 667.813L41.0059 667.813L41.0059 662.352L41.6484 662.352L41.6484 667.116L45.4287 667.116L45.4287 662.618L46.0713 662.618L46.0713 667.116L50.3574 667.116L50.3574 662.352L51 662.352ZM43.877 654.073C44.8431 654.073 45.5837 654.401 46.0986 655.058C46.6136 655.714 46.8711 656.644 46.8711 657.847L46.8711 659.392L51 659.392L51 660.089L41.0059 660.089L41.0059 657.642C41.0059 655.263 41.9629 654.073 43.877 654.073ZM46.2695 659.392L46.2695 658.018C46.2695 656.892 46.085 656.078 45.7158 655.577C45.3421 655.076 44.7383 654.825 43.9043 654.825C43.1341 654.825 42.5645 655.062 42.1953 655.536C41.8216 656.01 41.6348 656.744 41.6348 657.737L41.6348 659.392L46.2695 659.392ZM45.9893 643.498C47.5752 643.498 48.8307 643.895 49.7559 644.687C50.6764 645.48 51.1367 646.574 51.1367 647.969C51.1367 649.359 50.6764 650.45 49.7559 651.243C48.8307 652.036 47.5706 652.433 45.9756 652.433C44.3851 652.433 43.1341 652.034 42.2227 651.236C41.3066 650.434 40.8486 649.34 40.8486 647.955C40.8486 646.561 41.3089 645.469 42.2295 644.681C43.1455 643.892 44.3988 643.498 45.9893 643.498ZM45.9893 651.674C47.4202 651.674 48.5277 651.355 49.3115 650.717C50.0908 650.079 50.4805 649.163 50.4805 647.969C50.4805 646.766 50.0931 645.847 49.3184 645.214C48.5436 644.576 47.4339 644.257 45.9893 644.257C44.5492 644.257 43.4463 644.576 42.6807 645.214C41.9105 645.847 41.5254 646.761 41.5254 647.955C41.5254 649.145 41.9128 650.063 42.6875 650.71C43.4622 651.353 44.5628 651.674 45.9893 651.674ZM45.415 638.494C45.415 637.346 45.6338 636.484 46.0713 635.91C46.5042 635.336 47.1901 635.049 48.1289 635.049C49.0495 635.049 49.7581 635.334 50.2549 635.903C50.7516 636.468 51 637.28 51 638.337L51 641.194L41.0059 641.194L41.0059 635.582L41.6621 635.582L41.6621 640.497L45.415 640.497L45.415 638.494ZM50.3848 640.497L50.3848 638.453C50.3848 637.555 50.2047 636.89 49.8447 636.457C49.4801 636.024 48.9082 635.808 48.1289 635.808C47.377 635.808 46.8392 636.026 46.5156 636.464C46.1921 636.901 46.0303 637.61 46.0303 638.59L46.0303 640.497L50.3848 640.497Z" fill="#252525"/>
</svg>
